<svg enable-background="new 0 0 96.3 33.6" viewBox="0 0 96.3 33.6" xmlns="http://www.w3.org/2000/svg"><g enable-background="new" fill="#c62828"><path d="m16.4 24.9-2-5.1h-6.3l-2 5.1h-1.9l6.3-16h1.6l6.3 16zm-2.5-6.7-1.9-5c-.2-.6-.5-1.4-.7-2.3-.2.7-.4 1.5-.7 2.3l-1.9 4.9h5.2z"/><path d="m32.1 8.9-5.9 15.9h-1.8l5.9-15.9z"/><path d="m49.7 24.9h-10.4v-1.6l4.2-4.2c1.3-1.3 2.1-2.2 2.5-2.8s.7-1.1.9-1.6.3-1.1.3-1.7c0-.9-.3-1.5-.8-2s-1.2-.7-2.1-.7c-.7 0-1.3.1-1.9.3s-1.3.6-2 1.2l-1-1.2c1.5-1.2 3.1-1.8 4.8-1.8 1.5 0 2.7.4 3.5 1.2.9.8 1.3 1.8 1.3 3.1 0 1-.3 2-.9 3s-1.6 2.2-3.2 3.8l-3.5 3.4v.1h8.2v1.5z"/><path d="m63.9 16.3h4.5v1.5h-4.5v4.6h-1.5v-4.6h-4.5v-1.5h4.5v-4.7h1.5z"/><path d="m86.9 24.9h-10.5v-1.6l4.2-4.2c1.3-1.3 2.1-2.2 2.5-2.8s.7-1.1.9-1.6.3-1.1.3-1.7c0-.9-.3-1.5-.8-2s-1.2-.7-2.1-.7c-.7 0-1.3.1-1.9.3s-1.3.6-2 1.2l-1-1.2c1.5-1.2 3.1-1.8 4.8-1.8 1.5 0 2.7.4 3.5 1.2.9.8 1.3 1.8 1.3 3.1 0 1-.3 2-.9 3s-1.6 2.2-3.2 3.8l-3.5 3.4v.1h8.2v1.5z"/></g></svg>