<svg enable-background="new 0 0 65.7 33.6" viewBox="0 0 65.7 33.6" xmlns="http://www.w3.org/2000/svg"><g enable-background="new" fill="#c62828"><path d="m13.7 16.4h3.9v1.3h-3.9v4h-1.3v-4h-3.9v-1.3h3.9v-4h1.3z"/><path d="m34.1 18.7c0 1.7-.4 3-1.3 3.9s-2 1.4-3.5 1.4c-.9 0-1.7-.2-2.5-.6-.7-.4-1.3-1.1-1.7-1.9s-.6-1.8-.6-2.8c0-1.7.4-3 1.3-3.9.8-.9 2-1.4 3.5-1.4 1.4 0 2.6.5 3.4 1.4 1 1 1.4 2.3 1.4 3.9zm-7.8 0c0 1.3.3 2.3.8 3s1.3 1 2.3 1 1.8-.3 2.3-1 .8-1.7.8-3-.3-2.3-.8-3-1.3-1-2.3-1-1.8.3-2.3 1c-.6.7-.8 1.7-.8 3z"/><path d="m41.5 13.4c.5 0 .9 0 1.2.1l-.2 1.4c-.4-.1-.8-.1-1.1-.1-.8 0-1.5.3-2.1 1s-.9 1.5-.9 2.5v5.5h-1.6v-10.3h1.3l.2 1.9h.1c.4-.7.8-1.2 1.4-1.6.5-.3 1.1-.4 1.7-.4z"/><path d="m52.2 18.6-3.6-5h1.8l2.7 4 2.7-4h1.8l-3.6 5 3.8 5.3h-1.8l-2.9-4.2-2.9 4.2h-1.8z"/></g></svg>