<svg enable-background="new 0 0 334.6 365" viewBox="0 0 334.6 365" xmlns="http://www.w3.org/2000/svg"><path d="m165.1 85.9-86.5 48.5v97.1l86.5 48.5 86.5-48.5v-97.1z" fill="none" stroke="#c62828" stroke-width="10"/><path d="m251.6 134.4 78.2-42.7" fill="#bb3f37"/><path d="m251.6 134.4 78.2-42.7" fill="none" stroke="#c62828" stroke-width="10"/><path d="m251.6 230.6 78.2 42.7" fill="#bb3f37"/><path d="m251.6 230.6 78.2 42.7" fill="none" stroke="#c62828" stroke-width="10"/><path d="m83 230.6-78.1 42.7" fill="#bb3f37"/><path d="m83 230.6-78.1 42.7" fill="none" stroke="#c62828" stroke-width="10"/><path d="m4.9 91.7 78.1 42.7" fill="#bb3f37"/><g fill="none" stroke="#c62828" stroke-width="10"><path d="m4.9 91.7 78.1 42.7"/><path d="m165.1 5.3v82.5"/><path d="m165.1 277.2v82.5"/></g><g enable-background="new" fill="#c62828"><path d="m230.9 106.5-3-7.7h-9.7l-3 7.7h-2.9l9.6-24.4h2.4l9.5 24.4zm-3.9-10.3-2.8-7.5c-.4-1-.7-2.1-1.1-3.5-.2 1.1-.6 2.2-1 3.5l-2.9 7.5z"/><path d="m250 97.2-6.3-8.9h3.1l4.8 7 4.8-7h3.1l-6.3 8.9 6.7 9.3h-3.1l-5.1-7.4-5.1 7.4h-3.1z"/><path d="m287.9 106.5-3-7.7h-9.7l-3 7.7h-2.9l9.6-24.4h2.4l9.5 24.4zm-3.9-10.3-2.8-7.5c-.4-1-.7-2.1-1.1-3.5-.2 1.1-.6 2.2-1 3.5l-2.9 7.5z"/></g><g enable-background="new" fill="#c62828"><path d="m215.2 260h6.9c3.2 0 5.5.5 7 1.4 1.4 1 2.2 2.5 2.2 4.6 0 1.4-.4 2.6-1.2 3.6-.8.9-2 1.5-3.5 1.8v.2c3.7.6 5.5 2.6 5.5 5.8 0 2.2-.7 3.9-2.2 5.1s-3.5 1.8-6.1 1.8h-8.5v-24.3zm2.8 10.4h4.6c2 0 3.4-.3 4.3-.9s1.3-1.7 1.3-3.2c0-1.4-.5-2.3-1.5-2.9s-2.5-.9-4.6-.9h-4.1zm0 2.4v9.1h5.1c2 0 3.4-.4 4.4-1.1s1.5-1.9 1.5-3.6c0-1.5-.5-2.6-1.5-3.3s-2.6-1.1-4.6-1.1z"/><path d="m250 275-6.3-8.9h3.1l4.8 7 4.8-7h3.1l-6.3 8.9 6.7 9.3h-3.1l-5.1-7.4-5.1 7.4h-3.1z"/><path d="m272.6 260h6.9c3.2 0 5.5.5 7 1.4 1.4 1 2.2 2.5 2.2 4.6 0 1.4-.4 2.6-1.2 3.6-.8.9-2 1.5-3.5 1.8v.2c3.7.6 5.5 2.6 5.5 5.8 0 2.2-.7 3.9-2.2 5.1s-3.5 1.8-6.1 1.8h-8.5v-24.3zm2.9 10.4h4.6c2 0 3.4-.3 4.3-.9s1.3-1.7 1.3-3.2c0-1.4-.5-2.3-1.5-2.9s-2.5-.9-4.6-.9h-4.1zm0 2.4v9.1h5.1c2 0 3.4-.4 4.4-1.1s1.5-1.9 1.5-3.6c0-1.5-.5-2.6-1.5-3.3s-2.6-1.1-4.6-1.1z"/></g><path d="m230.3 186.6h6.8v2.3h-6.8v7.1h-2.3v-7.1h-6.8v-2.3h6.8v-7.1h2.3z" fill="#c62828"/></svg>