<svg enable-background="new 0 0 248 326.8" viewBox="0 0 248 326.8" xmlns="http://www.w3.org/2000/svg"><path d="m216.2 71.2-184.3 184.3" fill="none" stroke="#c62828" stroke-width="10"/><path d="m31.9 71.2 184.3 184.3" fill="none" stroke="#c62828" stroke-width="10"/><g fill="#c62828"><path d="m53.6 196h-44.2v-6.6l17.7-17.8c5.4-5.5 9-9.4 10.7-11.7s3-4.6 3.9-6.8 1.3-4.6 1.3-7.1c0-3.6-1.1-6.4-3.3-8.5s-5.2-3.2-9.1-3.2c-2.8 0-5.4.5-7.9 1.4s-5.3 2.6-8.3 5l-4-5.2c6.2-5.2 12.9-7.7 20.2-7.7 6.3 0 11.3 1.6 14.9 4.9 3.6 3.2 5.4 7.6 5.4 13 0 4.3-1.2 8.5-3.6 12.6-2.4 4.2-6.9 9.4-13.4 15.8l-14.9 14.4v.4h34.6z"/><path d="m148.9 273.2h-10v15.5h-7.3v-15.5h-32.7v-6.7l31.9-45.5h8.1v45.2h10zm-17.3-7v-22.4c0-4.4.2-9.3.5-14.9h-.4c-1.5 2.9-2.9 5.4-4.1 7.3l-21 29.9h25z"/><path d="m194.5 167.2c0-13.2 2.6-23.1 7.7-29.6s12.7-9.8 22.8-9.8c3.5 0 6.2.3 8.2.9v6.6c-2.4-.8-5.1-1.1-8.1-1.1-7.2 0-12.7 2.2-16.5 6.7s-5.9 11.6-6.3 21.2h.6c3.4-5.3 8.7-7.9 16-7.9 6 0 10.8 1.8 14.3 5.5 3.5 3.6 5.2 8.6 5.2 14.9 0 7-1.9 12.5-5.7 16.5s-9 6-15.5 6c-7 0-12.5-2.6-16.6-7.8-4.1-5.5-6.1-12.8-6.1-22.1zm22.6 23.2c4.4 0 7.7-1.4 10.1-4.1s3.6-6.7 3.6-11.9c0-4.4-1.1-7.9-3.4-10.5s-5.6-3.8-10-3.8c-2.8 0-5.3.6-7.6 1.7s-4.1 2.7-5.5 4.7-2 4.1-2 6.2c0 3.2.6 6.1 1.8 8.8s3 4.9 5.2 6.5c2.3 1.6 4.9 2.4 7.8 2.4z"/><path d="m123.8 36.1c6.1 0 11 1.4 14.6 4.3s5.4 6.8 5.4 11.8c0 3.3-1 6.3-3.1 9.1-2.1 2.7-5.3 5.2-9.8 7.5 5.5 2.6 9.3 5.3 11.6 8.2s3.4 6.2 3.4 10c0 5.6-1.9 10-5.8 13.4-3.9 3.3-9.2 5-16 5-7.2 0-12.7-1.6-16.6-4.7s-5.8-7.6-5.8-13.4c0-7.7 4.7-13.7 14.1-18-4.2-2.4-7.3-5-9.1-7.8s-2.8-5.9-2.8-9.3c0-4.9 1.8-8.8 5.4-11.7 3.7-2.9 8.5-4.4 14.5-4.4zm-14.5 51.3c0 3.7 1.3 6.5 3.8 8.6 2.6 2.1 6.2 3.1 10.8 3.1s8.1-1.1 10.7-3.2c2.5-2.1 3.8-5.1 3.8-8.8 0-3-1.2-5.6-3.6-7.9s-6.6-4.6-12.5-6.7c-4.6 2-7.9 4.1-9.9 6.5-2.1 2.2-3.1 5-3.1 8.4zm14.4-45.1c-3.8 0-6.8.9-9 2.8-2.2 1.8-3.3 4.3-3.3 7.4 0 2.8.9 5.2 2.7 7.3 1.8 2 5.2 4 10 6.1 4.4-1.8 7.5-3.8 9.3-5.9s2.7-4.6 2.7-7.4c0-3.1-1.1-5.6-3.3-7.4-2.1-2-5.2-2.9-9.1-2.9z"/></g></svg>