<svg enable-background="new 0 0 63.2 40.4" viewBox="0 0 63.2 40.4" xmlns="http://www.w3.org/2000/svg"><g enable-background="new" fill="#c62828"><path d="m9.6 21.6v-1.7h5.6v1.7z"/><path d="m23.5 22.7c0-1 .3-1.9.8-2.6.5-.8 1.5-1.5 2.8-2.3-.6-.7-1.1-1.3-1.3-1.6-.2-.4-.4-.8-.6-1.2-.1-.4-.2-.8-.2-1.2 0-1.1.4-2 1.1-2.7s1.8-1 3.1-1c1.2 0 2.2.3 2.9.9s1.1 1.5 1.1 2.6c0 .8-.3 1.6-.8 2.2-.5.7-1.4 1.4-2.6 2.1l4.6 4.4c.4-.5.8-1 1-1.7.3-.6.5-1.3.6-2.1h2c-.5 2.2-1.3 3.8-2.3 4.9l3.4 3.3h-2.6l-2.1-2c-.9.8-1.8 1.4-2.7 1.7s-2 .5-3.1.5c-1.6 0-2.9-.4-3.8-1.2-.9-.5-1.3-1.6-1.3-3zm5.1 2.8c1.8 0 3.3-.6 4.5-1.7l-5-4.8c-.8.5-1.4.9-1.8 1.3-.3.3-.6.7-.8 1.1s-.2.8-.2 1.3c0 .9.3 1.6.9 2.1.7.5 1.5.7 2.4.7zm-1.7-11.8c0 .5.1 1 .4 1.5s.7 1 1.4 1.7c1-.6 1.7-1.1 2-1.6.4-.5.6-1 .6-1.7 0-.6-.2-1.1-.6-1.4-.4-.4-.9-.6-1.6-.6s-1.2.2-1.6.5-.6 1-.6 1.6z"/><path d="m52.6 18h4.7v1.6h-4.7v4.8h-1.6v-4.8h-4.7v-1.6h4.7v-4.9h1.6z"/></g></svg>