<svg enable-background="new 0 0 156 156" viewBox="0 0 156 156" xmlns="http://www.w3.org/2000/svg"><path d="m151.3 78c0 40.5-32.8 73.3-73.3 73.3s-73.3-32.8-73.3-73.3 32.8-73.3 73.3-73.3 73.3 32.8 73.3 73.3z" fill="none" stroke="#c62828" stroke-width="10"/><path d="m106.7 78c0 15.8-12.8 28.7-28.7 28.7-15.8 0-28.7-12.8-28.7-28.7 0-15.8 12.8-28.7 28.7-28.7 15.8 0 28.7 12.9 28.7 28.7z" fill="none" stroke="#c62828" stroke-width="10"/><path d="m78.8 76.1h4.7v1.6h-4.7v4.9h-1.6v-4.9h-4.7v-1.6h4.7v-4.9h1.6z" fill="#c62828"/><path d="m49.3 78h-44.6" fill="none" stroke="#c62828" stroke-width="10"/><path d="m151.3 78h-44.6" fill="none" stroke="#c62828" stroke-width="10"/><g fill="#c62828"><path d="m83.4 33.8-2.1-5.3h-6.7l-2.1 5.3h-2l6.6-16.8h1.6l6.6 16.8zm-2.7-7.1-1.9-5.2c-.3-.7-.5-1.5-.8-2.5-.2.7-.4 1.5-.7 2.4l-2 5.2h5.4z"/><path d="m73.6 119.1h4.7c2.2 0 3.8.3 4.8 1s1.5 1.7 1.5 3.2c0 1-.3 1.8-.8 2.5-.6.6-1.4 1.1-2.4 1.3v.1c2.5.4 3.8 1.8 3.8 4 0 1.5-.5 2.7-1.5 3.5s-2.4 1.3-4.3 1.3h-5.9v-16.9zm1.9 7.2h3.2c1.4 0 2.4-.2 3-.6s.9-1.2.9-2.2c0-.9-.3-1.6-1-2s-1.7-.6-3.2-.6h-2.9zm0 1.7v6.3h3.5c1.4 0 2.4-.3 3.1-.8s1-1.3 1-2.5c0-1-.3-1.8-1-2.3s-1.8-.7-3.2-.7z"/></g></svg>