<svg enable-background="new 0 0 334.6 365" viewBox="0 0 334.6 365" xmlns="http://www.w3.org/2000/svg"><path d="m165.1 85.9-86.5 48.5v97.1l86.5 48.5 86.5-48.5v-97.1z" fill="none" stroke="#c62828" stroke-width="10"/><path d="m251.6 134.4 78.2-42.7" fill="#bb3f37"/><path d="m251.6 134.4 78.2-42.7" fill="none" stroke="#c62828" stroke-width="10"/><path d="m251.6 230.6 78.2 42.7" fill="#bb3f37"/><path d="m251.6 230.6 78.2 42.7" fill="none" stroke="#c62828" stroke-width="10"/><path d="m83 230.6-78.1 42.7" fill="#bb3f37"/><path d="m83 230.6-78.1 42.7" fill="none" stroke="#c62828" stroke-width="10"/><path d="m4.9 91.7 78.1 42.7" fill="#bb3f37"/><path d="m4.9 91.7 78.1 42.7" fill="none" stroke="#c62828" stroke-width="10"/><path d="m165.1 5.3v82.5" fill="none" stroke="#c62828" stroke-width="10"/><path d="m165.1 277.2v82.5" fill="none" stroke="#c62828" stroke-width="10"/><g fill="#c62828"><g enable-background="new"><path d="m106 184.5h6.8v2.3h-6.8v7.1h-2.3v-7.1h-6.8v-2.3h6.8v-7.1h2.3z"/><path d="m123.8 182.8c2.6 0 4.6.6 6 1.9s2.2 3 2.2 5.2c0 2.5-.8 4.5-2.4 5.9s-3.8 2.1-6.6 2.1c-2.7 0-4.8-.4-6.3-1.3v-2.6c.8.5 1.7.9 2.9 1.2s2.3.4 3.4.4c1.9 0 3.5-.5 4.5-1.4 1.1-.9 1.6-2.2 1.6-4 0-3.4-2.1-5.1-6.2-5.1-1.1 0-2.5.2-4.2.5l-1.4-.9.9-11.3h12.1v2.5h-9.7l-.6 7.3c1.3-.2 2.5-.4 3.8-.4z"/></g><g enable-background="new"><path d="m125.4 135.2h6.8v2.3h-6.8v7.1h-2.3v-7.1h-6.8v-2.3h6.8v-7.1h2.3z"/><path d="m135.9 138c0-4.8.9-8.3 2.8-10.7s4.6-3.5 8.2-3.5c1.3 0 2.2.1 3 .3v2.4c-.9-.3-1.8-.4-2.9-.4-2.6 0-4.6.8-6 2.4s-2.1 4.2-2.3 7.6h.2c1.2-1.9 3.1-2.9 5.8-2.9 2.2 0 3.9.7 5.2 2s1.9 3.1 1.9 5.4c0 2.5-.7 4.5-2.1 5.9s-3.2 2.2-5.6 2.2c-2.5 0-4.5-.9-6-2.8-1.4-1.9-2.2-4.5-2.2-7.9zm8.2 8.4c1.6 0 2.8-.5 3.7-1.5s1.3-2.4 1.3-4.3c0-1.6-.4-2.9-1.2-3.8s-2-1.4-3.6-1.4c-1 0-1.9.2-2.7.6s-1.5 1-2 1.7-.7 1.5-.7 2.2c0 1.1.2 2.2.7 3.2.4 1 1.1 1.8 1.9 2.3s1.5 1 2.6 1z"/></g><g enable-background="new"><path d="m125.4 231.1h6.8v2.3h-6.8v7.1h-2.3v-7.1h-6.8v-2.3h6.8v-7.1h2.3z"/><path d="m152.7 238.7h-3.6v5.6h-2.6v-5.6h-11.8v-2.4l11.5-16.4h2.9v16.3h3.6zm-6.2-2.5v-8.1c0-1.6.1-3.4.2-5.4h-.1c-.5 1.1-1 1.9-1.5 2.6l-7.6 10.8h9z"/></g><g enable-background="new"><path d="m184.1 231.1h6.8v2.3h-6.8v7.1h-2.3v-7.1h-6.8v-2.3h6.8v-7.1h2.3z"/><path d="m209.3 225.7c0 1.5-.4 2.8-1.3 3.8s-2.1 1.6-3.7 2v.1c1.9.2 3.4.9 4.3 1.9s1.4 2.3 1.4 3.9c0 2.3-.8 4.1-2.4 5.3s-3.9 1.9-6.8 1.9c-1.3 0-2.5-.1-3.5-.3-1.1-.2-2.1-.5-3.1-1v-2.6c1.1.5 2.2.9 3.4 1.2s2.3.4 3.4.4c4.2 0 6.3-1.6 6.3-4.9 0-2.9-2.3-4.4-6.9-4.4h-2.4v-2.4h2.4c1.9 0 3.4-.4 4.5-1.3s1.7-2 1.7-3.5c0-1.2-.4-2.1-1.2-2.8s-1.9-1-3.3-1c-1.1 0-2.1.1-3 .4s-2 .8-3.2 1.6l-1.4-1.9c1-.8 2.1-1.4 3.4-1.9s2.7-.7 4.1-.7c2.4 0 4.2.5 5.5 1.6 1.2 1.3 1.8 2.7 1.8 4.6z"/></g><g enable-background="new"><path d="m189.1 135.2h6.8v2.3h-6.8v7.1h-2.3v-7.1h-6.8v-2.3h6.8v-7.1h2.3z"/><path d="m209.6 148.4h-2.7v-17.3c0-1.4 0-2.8.1-4.1-.2.2-.5.5-.8.7-.3.3-1.6 1.3-3.9 3.2l-1.5-1.9 6.4-5h2.3v24.4z"/></g><g enable-background="new"><path d="m208.5 181.4h6.8v2.3h-6.8v7.1h-2.3v-7.1h-6.8v-2.3h6.8v-7.1h2.3z"/><path d="m234.7 194.5h-15.9v-2.4l6.4-6.4c1.9-2 3.2-3.4 3.8-4.2s1.1-1.7 1.4-2.5.5-1.7.5-2.6c0-1.3-.4-2.3-1.2-3.1s-1.9-1.1-3.3-1.1c-1 0-2 .2-2.9.5s-1.9.9-3 1.8l-1.5-1.9c2.2-1.9 4.7-2.8 7.3-2.8 2.3 0 4.1.6 5.4 1.8s1.9 2.7 1.9 4.7c0 1.5-.4 3.1-1.3 4.6s-2.5 3.4-4.8 5.7l-5.3 5.2v.1h12.5z"/></g><path d="m219.4 87.1-6.3-8.9h3.1l4.8 7 4.8-7h3.1l-6.3 8.9 6.7 9.3h-3.1l-5.2-7.4-5.1 7.4h-3.1z"/><path d="m276.2 185.2-6.3-8.9h3.1l4.8 7 4.8-7h3.1l-6.3 8.9 6.7 9.3h-3.1l-5.1-7.4-5.1 7.4h-3.1z"/><path d="m224.4 281.6-6.3-8.9h3.1l4.8 7 4.8-7h3.1l-6.3 8.9 6.7 9.3h-3.1l-5.1-7.4-5.1 7.4h-3.1z"/><path d="m104.1 284.5-6.3-8.9h3.1l4.8 7 4.8-7h3.1l-6.3 8.9 6.7 9.3h-3.1l-5.1-7.4-5.1 7.4h-3.1z"/><path d="m104.1 87.1-6.3-8.9h3.1l4.8 7 4.8-7h3.1l-6.3 8.9 6.7 9.3h-3.1l-5.1-7.4-5.1 7.4h-3.1z"/><path d="m47.3 186.4-6.3-8.9h3.1l4.8 7 4.8-7h3.1l-6.3 8.9 6.7 9.3h-3.2l-5.1-7.4-5.1 7.4h-3.1z"/></g></svg>