<svg enable-background="new 0 0 44.5 13.9" viewBox="0 0 44.5 13.9" xmlns="http://www.w3.org/2000/svg"><g enable-background="new" fill="#c62828"><path d="m10.5 13.9-1.7-4.4h-5.5l-1.7 4.4h-1.6l5.4-13.9h1.3l5.4 13.8h-1.6zm-2.2-5.9-1.6-4.2c-.2-.5-.4-1.2-.6-2-.1.6-.3 1.3-.6 2l-1.6 4.2z"/><path d="m21.3 8.6-3.6-5h1.8l2.7 4 2.7-4h1.8l-3.6 5 3.8 5.3h-1.8l-2.9-4.2-2.9 4.2h-1.8z"/><path d="m42.8 13.9-1.7-4.4h-5.5l-1.7 4.4h-1.6l5.4-13.9h1.3l5.4 13.8h-1.6zm-2.2-5.9-1.6-4.2c-.2-.5-.4-1.2-.6-2-.1.6-.3 1.3-.6 2l-1.6 4.2z"/></g></svg>