<svg enable-background="new 0 0 77.4 14.2" viewBox="0 0 77.4 14.2" xmlns="http://www.w3.org/2000/svg"><g enable-background="new" fill="#c62828"><path d="m10.5 14-1.7-4.4h-5.5l-1.7 4.4h-1.6l5.4-13.8h1.3l5.5 13.8zm-2.2-5.8-1.6-4.3c-.2-.5-.4-1.2-.6-2-.1.6-.3 1.3-.6 2l-1.6 4.3z"/><path d="m21.3 8.7-3.6-5h1.8l2.7 4 2.7-4h1.8l-3.6 5 3.8 5.3h-1.8l-2.9-4.2-2.9 4.2h-1.8z"/><path d="m42.3 14h-9v-1.3l3.6-3.7c1.1-1.1 1.8-1.9 2.1-2.4.4-.5.6-.9.8-1.4s.3-.9.3-1.5c0-.7-.2-1.3-.7-1.7-.4-.4-1.1-.6-1.9-.6-.6 0-1.1.1-1.6.3s-1.1.5-1.7 1l-.8-1.1c1.3-1.1 2.7-1.6 4.2-1.6 1.3 0 2.3.3 3 1s1.1 1.6 1.1 2.7c0 .9-.2 1.7-.7 2.6s-1.4 1.9-2.7 3.2l-3 2.9v.1h7.1v1.5z"/><path d="m49.4 10.4c0-.8.2-1.5.7-2.2.4-.6 1.2-1.3 2.3-1.9-.5-.6-.9-1-1.1-1.4s-.3-.6-.5-1c-.1-.3-.2-.7-.2-1 0-.9.3-1.7.9-2.2.7-.4 1.6-.7 2.7-.7 1 0 1.8.3 2.4.8.5.5.8 1.2.8 2.2 0 .7-.2 1.3-.6 1.9s-1.1 1.1-2.1 1.7l3.8 3.7c.4-.4.6-.8.8-1.4.2-.5.4-1.1.5-1.7h1.6c-.4 1.8-1.1 3.2-1.9 4.1l2.8 2.7h-2.2l-1.7-1.7c-.7.7-1.5 1.1-2.3 1.4s-1.6.4-2.6.4c-1.3 0-2.4-.3-3.1-1s-1-1.5-1-2.7zm4.3 2.4c1.5 0 2.8-.5 3.8-1.4l-4.1-4c-.7.4-1.2.8-1.5 1.1s-.5.6-.6.9c-.2.2-.3.6-.3 1 0 .7.2 1.3.7 1.7s1.2.7 2 .7zm-1.5-9.8c0 .4.1.8.3 1.2s.6.9 1.2 1.4c.8-.5 1.4-.9 1.7-1.3s.5-.9.5-1.4-.2-.9-.5-1.2-.8-.5-1.3-.5c-.6 0-1 .2-1.4.5-.3.3-.5.7-.5 1.3z"/><path d="m73.5 6.5h3.9v1.3h-3.9v4h-1.3v-4h-3.9v-1.3h3.9v-4h1.3z"/></g></svg>