<svg enable-background="new 0 0 124.3 33.6" viewBox="0 0 124.3 33.6" xmlns="http://www.w3.org/2000/svg"><g enable-background="new" fill="#c62828"><path d="m13.5 18.3c-.1-2.1-.2-4.6-.2-6.5h-.1c-.5 1.8-1.1 3.6-1.9 5.7l-2.7 7.3h-1.4l-2.4-7.2c-.8-2.1-1.4-4-1.8-5.8 0 1.9-.2 4.4-.3 6.7l-.4 6.5h-1.9l1-15.1h2.6l2.6 7.3c.6 1.8 1.1 3.4 1.4 5h.1c.4-1.5.9-3.2 1.6-5.1l2.7-7.3h2.5l.9 15.1h-1.9z"/><path d="m21.2 11c0 .7-.5 1.2-1.3 1.2-.7 0-1.2-.5-1.2-1.2s.5-1.2 1.2-1.2c.8 0 1.3.6 1.3 1.2zm-2.2 13.9v-10.8h2v10.8z"/><path d="m24.2 17c0-1.1 0-2-.1-2.9h1.7l.1 1.8c.5-1 1.8-2 3.6-2 1.5 0 3.8.9 3.8 4.6v6.5h-2v-6.2c0-1.7-.6-3.2-2.5-3.2-1.3 0-2.3.9-2.6 2-.1.2-.1.6-.1.9v6.5h-2v-8z"/><path d="m37.7 19.8c0 2.7 1.7 3.8 3.7 3.8 1.4 0 2.3-.2 3-.6l.3 1.4c-.7.3-1.9.7-3.6.7-3.3 0-5.3-2.2-5.3-5.5s1.9-5.8 5.1-5.8c3.5 0 4.5 3.1 4.5 5.1 0 .4 0 .7-.1.9zm5.8-1.4c0-1.3-.5-3.2-2.7-3.2-2 0-2.9 1.8-3 3.2z"/><path d="m47.5 22.9c.6.4 1.6.8 2.6.8 1.4 0 2.1-.7 2.1-1.6s-.6-1.5-2-2c-1.9-.7-2.9-1.8-2.9-3.1 0-1.7 1.4-3.2 3.7-3.2 1.1 0 2.1.3 2.7.7l-.5 1.4c-.4-.3-1.2-.6-2.2-.6-1.2 0-1.8.7-1.8 1.5 0 .9.6 1.3 2.1 1.8 1.9.7 2.8 1.7 2.8 3.3 0 1.9-1.5 3.2-4 3.2-1.2 0-2.3-.3-3-.7z"/><path d="m57.4 14.1 1.4 5.5c.3 1.2.6 2.3.8 3.4h.1c.2-1.1.6-2.3 1-3.4l1.8-5.5h1.7l1.7 5.4c.4 1.3.7 2.4 1 3.5h.1c.2-1.1.5-2.2.8-3.5l1.5-5.4h1.9l-3.5 10.8h-1.8l-1.7-5.2c-.4-1.2-.7-2.3-1-3.6-.3 1.3-.6 2.4-1 3.6l-1.7 5.1h-1.8l-3.3-10.8h2z"/><path d="m74 19.8c0 2.7 1.7 3.8 3.7 3.8 1.4 0 2.3-.2 3-.6l.3 1.4c-.7.3-1.9.7-3.6.7-3.3 0-5.3-2.2-5.3-5.5s1.9-5.8 5.1-5.8c3.5 0 4.5 3.1 4.5 5.1 0 .4 0 .7-.1.9zm5.7-1.4c0-1.3-.5-3.2-2.7-3.2-2 0-2.9 1.8-3 3.2z"/><path d="m85.2 19.8c0 2.7 1.7 3.8 3.7 3.8 1.4 0 2.3-.2 3-.6l.3 1.4c-.7.3-1.9.7-3.6.7-3.3 0-5.3-2.2-5.3-5.5s1.9-5.8 5.1-5.8c3.5 0 4.5 3.1 4.5 5.1 0 .4 0 .7-.1.9zm5.7-1.4c0-1.3-.5-3.2-2.7-3.2-2 0-2.9 1.8-3 3.2z"/><path d="m95.3 17.6c0-1.4 0-2.5-.1-3.5h1.8l.1 1.9c.8-1.3 2.1-2.1 3.8-2.1 2.6 0 4.6 2.2 4.6 5.5 0 3.9-2.4 5.8-4.9 5.8-1.4 0-2.7-.6-3.3-1.7v5.9h-1.9v-11.8zm1.9 2.9c0 .3 0 .6.1.8.4 1.4 1.5 2.3 2.9 2.3 2.1 0 3.3-1.7 3.3-4.2 0-2.2-1.1-4-3.2-4-1.3 0-2.6 1-3 2.4-.1.2-.1.5-.1.8z"/><path d="m109.1 19.8c0 2.7 1.7 3.8 3.7 3.8 1.4 0 2.3-.2 3-.6l.3 1.4c-.7.3-1.9.7-3.6.7-3.3 0-5.3-2.2-5.3-5.5s1.9-5.8 5.1-5.8c3.5 0 4.5 3.1 4.5 5.1 0 .4 0 .7-.1.9zm5.7-1.4c0-1.3-.5-3.2-2.7-3.2-2 0-2.9 1.8-3 3.2z"/><path d="m119.2 17.5c0-1.3 0-2.4-.1-3.4h1.7l.1 2.1h.1c.5-1.5 1.7-2.4 3-2.4.2 0 .4 0 .6.1v1.9c-.2 0-.4-.1-.7-.1-1.4 0-2.4 1-2.6 2.5 0 .3-.1.6-.1.9v5.8h-1.9v-7.4z"/></g></svg>