<svg enable-background="new 0 0 85.8 16.4" viewBox="0 0 85.8 16.4" xmlns="http://www.w3.org/2000/svg"><g enable-background="new" fill="#c62828"><path d="m0 11v-1.6h5.4v1.6z"/><path d="m13.3 12.1c0-.9.3-1.8.8-2.5s1.4-1.5 2.7-2.2c-.6-.7-1-1.2-1.3-1.6-.2-.4-.4-.7-.5-1.1s-.2-.8-.2-1.2c0-1.1.4-1.9 1.1-2.6.7-.6 1.7-.9 3-.9 1.1 0 2.1.3 2.7.9.7.6 1 1.5 1 2.5 0 .8-.2 1.5-.7 2.2s-1.3 1.3-2.5 2l4.4 4.3c.4-.5.7-1 1-1.6.2-.6.4-1.3.6-2h1.8c-.5 2.1-1.2 3.7-2.2 4.7l3.3 3.2h-2.5l-2-1.9c-.9.8-1.7 1.3-2.6 1.7-.9.3-1.9.5-3 .5-1.6 0-2.8-.4-3.6-1.2-.9-.8-1.3-1.9-1.3-3.2zm5 2.7c1.8 0 3.2-.6 4.4-1.7l-4.8-4.6c-.8.5-1.4.9-1.7 1.2s-.6.7-.7 1c-.2.4-.2.8-.2 1.3 0 .9.3 1.5.8 2s1.2.8 2.2.8zm-1.7-11.4c0 .5.1 1 .4 1.4.3.5.7 1 1.3 1.6.9-.5 1.6-1 2-1.5s.6-1 .6-1.6-.2-1-.6-1.4-.9-.5-1.5-.5-1.2.2-1.6.5c-.4.5-.6.9-.6 1.5z"/><path d="m46.4 16.2-2-5.1h-6.4l-2 5.1h-1.9l6.3-16h1.6l6.3 16zm-2.6-6.7-1.8-5c-.2-.6-.5-1.4-.7-2.3-.2.7-.4 1.5-.7 2.3l-1.9 4.9h5.1z"/><path d="m58.9 10.1-4.2-5.8h2.1l3.2 4.5 3.1-4.6h2l-4.1 5.9 4.4 6.1h-2.1l-3.3-4.8-3.4 4.8h-2.1z"/><path d="m83.9 16.2-2-5.1h-6.4l-2 5.1h-1.9l6.3-16h1.6l6.3 16zm-2.6-6.7-1.9-4.9c-.2-.6-.5-1.4-.7-2.3-.2.7-.4 1.5-.7 2.3l-1.9 4.9z"/></g></svg>