<svg enable-background="new 0 0 232.4 232.8" viewBox="0 0 232.4 232.8" xmlns="http://www.w3.org/2000/svg"><path d="m14.2 116.4c0 17.4 14.1 31.5 31.5 31.5s31.5-14.1 31.5-31.5-14.1-31.5-31.5-31.5-31.5 14.1-31.5 31.5z" fill="none" stroke="#c62828" stroke-width="10"/><g enable-background="new" fill="#c62828"><path d="m32.4 124.6-1.9-5h-6.3l-1.9 5h-1.8l6.2-15.7h1.5l6.2 15.7zm-2.6-6.6-1.8-4.9c-.2-.6-.5-1.4-.7-2.3-.2.7-.4 1.4-.7 2.3l-1.8 4.9z"/><path d="m44.7 118.6-4.1-5.7h2l3.1 4.5 3.1-4.5h2l-4.1 5.7 4.3 6h-2l-3.3-4.8-3.3 4.8h-2z"/><path d="m69.1 124.6-1.9-5h-6.3l-1.9 5h-1.8l6.2-15.7h1.5l6.1 15.7zm-2.5-6.6-1.8-4.9c-.2-.6-.5-1.4-.7-2.3-.2.7-.4 1.4-.7 2.3l-1.8 4.9z"/></g><path d="m155.2 116.4c0 17.4 14.1 31.5 31.5 31.5s31.5-14.1 31.5-31.5-14.1-31.5-31.5-31.5-31.5 14.1-31.5 31.5z" fill="none" stroke="#c62828" stroke-width="10"/><g fill="#c62828"><g enable-background="new"><path d="m163.5 108.9h4.4c2.1 0 3.6.3 4.5.9s1.4 1.6 1.4 2.9c0 .9-.3 1.7-.8 2.3s-1.3 1-2.3 1.2v.1c2.4.4 3.6 1.7 3.6 3.8 0 1.4-.5 2.5-1.4 3.3s-2.3 1.2-4 1.2h-5.5v-15.7zm1.9 6.7h3c1.3 0 2.2-.2 2.8-.6s.8-1.1.8-2-.3-1.5-.9-1.9-1.6-.6-3-.6h-2.7zm0 1.6v5.8h3.3c1.3 0 2.2-.2 2.9-.7.6-.5 1-1.3 1-2.3s-.3-1.7-1-2.1-1.6-.7-3-.7z"/><path d="m186 118.6-4.1-5.7h2l3.1 4.5 3.1-4.5h2l-4.1 5.7 4.3 6h-2l-3.3-4.8-3.3 4.8h-2z"/><path d="m200.6 108.9h4.4c2.1 0 3.6.3 4.5.9s1.4 1.6 1.4 2.9c0 .9-.3 1.7-.8 2.3s-1.3 1-2.3 1.2v.1c2.4.4 3.6 1.7 3.6 3.8 0 1.4-.5 2.5-1.4 3.3s-2.3 1.2-4 1.2h-5.5v-15.7zm1.9 6.7h3c1.3 0 2.2-.2 2.8-.6s.8-1.1.8-2-.3-1.5-.9-1.9-1.6-.6-3-.6h-2.7zm0 1.6v5.8h3.3c1.3 0 2.2-.2 2.9-.7s1-1.3 1-2.3-.3-1.7-1-2.1-1.6-.7-3-.7z"/></g><path d="m115.4 116.1h4.4v1.5h-4.4v4.6h-1.5v-4.6h-4.4v-1.5h4.4v-4.6h1.5z"/></g></svg>