<svg enable-background="new 0 0 113.2 33.6" viewBox="0 0 113.2 33.6" xmlns="http://www.w3.org/2000/svg"><g enable-background="new" fill="#c62828"><path d="m15.4 8.8-5.7 15.3h-1.7l5.7-15.3z"/><path d="m33 18.4c0 1.9-.5 3.3-1.4 4.4s-2.2 1.6-3.9 1.6c-1 0-1.9-.2-2.7-.7s-1.4-1.2-1.8-2.1-.7-2-.7-3.2c0-1.9.5-3.3 1.4-4.4.9-1 2.2-1.6 3.9-1.6 1.6 0 2.9.5 3.8 1.6s1.4 2.6 1.4 4.4zm-8.8 0c0 1.5.3 2.6.9 3.4s1.5 1.2 2.6 1.2 2-.4 2.6-1.1c.6-.8.9-1.9.9-3.4s-.3-2.6-.9-3.3c-.6-.8-1.5-1.1-2.6-1.1s-2 .4-2.6 1.1c-.6.6-.9 1.7-.9 3.2z"/><path d="m41.3 12.4c.5 0 1 0 1.4.1l-.2 1.6c-.5-.1-.9-.2-1.3-.2-.9 0-1.7.4-2.4 1.1-.7.8-1 1.7-1 2.8v6.2h-1.8v-11.4h1.4l.2 2.1h.1c.4-.7.9-1.3 1.5-1.7.7-.4 1.4-.6 2.1-.6z"/><path d="m53.2 18.3-4-5.6h2l3 4.4 3-4.4h2l-4 5.6 4.2 5.9h-2l-3.2-4.7-3.3 4.7h-2z"/><path d="m77.1 18.4c0 1.9-.5 3.3-1.4 4.4s-2.2 1.6-3.9 1.6c-1 0-1.9-.2-2.7-.7s-1.4-1.2-1.8-2.1-.7-2-.7-3.2c0-1.9.5-3.3 1.4-4.4.9-1 2.2-1.6 3.9-1.6 1.6 0 2.9.5 3.8 1.6 1 1.1 1.4 2.6 1.4 4.4zm-8.7 0c0 1.5.3 2.6.9 3.4s1.5 1.2 2.6 1.2 2-.4 2.6-1.1.9-1.9.9-3.4-.3-2.6-.9-3.3-1.5-1.1-2.6-1.1-2 .4-2.6 1.1c-.6.6-.9 1.7-.9 3.2z"/><path d="m85.4 12.4c.5 0 1 0 1.4.1l-.2 1.6c-.5-.1-.9-.2-1.3-.2-.9 0-1.7.4-2.4 1.1-.7.8-1 1.7-1 2.8v6.2h-1.7v-11.4h1.4l.2 2.1h.1c.4-.7.9-1.3 1.5-1.7.7-.4 1.3-.6 2-.6z"/><path d="m99.5 15.8h4.3v1.4h-4.3v4.5h-1.5v-4.5h-4.3v-1.4h4.3v-4.5h1.5z"/></g></svg>