<svg enable-background="new 0 0 83.6 16" viewBox="0 0 83.6 16" xmlns="http://www.w3.org/2000/svg"><g enable-background="new" fill="#c62828"><path d="m12.2 16-2-5.1h-6.4l-2 5.1h-1.8l6.3-16h1.6l6.3 16zm-2.5-6.7-1.9-5c-.2-.6-.5-1.4-.7-2.3-.2.7-.4 1.5-.7 2.3l-1.9 5z"/><path d="m24.7 9.9-4.2-5.8h2.1l3.2 4.6 3.1-4.6h2l-4.2 5.8 4.4 6.1h-2.1l-3.3-4.8-3.3 4.8h-2.1z"/><path d="m49.7 16-2-5.1h-6.4l-2 5.1h-1.9l6.3-16h1.6l6.3 16zm-2.6-6.7-1.9-4.9c-.2-.7-.4-1.5-.7-2.4-.2.7-.4 1.5-.7 2.3l-1.9 4.9h5.2z"/><path d="m58.3 10.9v-1.7h5.4v1.7z"/><path d="m72.6.1h4.5c2.1 0 3.6.3 4.6.9s1.4 1.6 1.4 3c0 .9-.3 1.7-.8 2.3-.5.7-1.3 1.1-2.3 1.2v.1c2.4.4 3.6 1.7 3.6 3.8 0 1.4-.5 2.5-1.4 3.3-1 .8-2.3 1.2-4 1.2h-5.6zm1.8 6.8h3.1c1.3 0 2.3-.2 2.8-.6.6-.4.9-1.1.9-2.1 0-.9-.3-1.5-1-1.9-.6-.4-1.7-.6-3.1-.6h-2.7zm0 1.6v6h3.3c1.3 0 2.3-.2 2.9-.7.7-.5 1-1.3 1-2.3s-.3-1.7-1-2.2-1.7-.7-3-.7h-3.2z"/></g></svg>