<svg enable-background="new 0 0 174 42.4" viewBox="0 0 174 42.4" xmlns="http://www.w3.org/2000/svg"><path d="m15 22.6 16.2 15.7 16.2-15.7h-10.3v-16.6h-11.9v16.7h-10.2z" fill="#c62828"/><path d="m15 22.6 16.2 15.7 16.2-15.7h-10.3v-16.6h-11.9v16.7h-10.2z" fill="none" stroke="#c62828"/><g enable-background="new" fill="#c62828"><path d="m57.3 23.6v-1.7h5.6v1.7z"/><path d="m82.8 22.8c0 2-.5 3.6-1.5 4.8s-2.5 1.7-4.3 1.7c-1.1 0-2.1-.3-3-.8s-1.5-1.3-2-2.3-.7-2.1-.7-3.5c0-2 .5-3.6 1.5-4.8 1-1.1 2.4-1.7 4.3-1.7 1.8 0 3.2.6 4.2 1.8s1.5 2.8 1.5 4.8zm-9.6 0c0 1.6.3 2.8 1 3.7.6.8 1.6 1.3 2.8 1.3s2.2-.4 2.8-1.3c.6-.8 1-2.1 1-3.7s-.3-2.8-1-3.6c-.6-.8-1.6-1.2-2.9-1.2-1.2 0-2.2.4-2.8 1.2s-.9 1.9-.9 3.6z"/><path d="m91.9 16.3c.6 0 1.1 0 1.5.1l-.3 1.8c-.5-.1-1-.2-1.4-.2-1 0-1.9.4-2.6 1.2s-1.1 1.9-1.1 3.1v6.7h-1.9v-12.5h1.6l.2 2.3h.1c.5-.8 1-1.4 1.7-1.9.6-.4 1.4-.6 2.2-.6z"/></g><path d="m99.8 21.3 16.2-15.7 16.2 15.7h-10.3v16.7h-11.9v-16.7z" fill="#c62828"/><path d="m99.8 21.3 16.2-15.7 16.2 15.7h-10.3v16.7h-11.9v-16.7z" fill="none" stroke="#c62828"/><path d="m149.7 21.6h4.7v1.6h-4.7v4.8h-1.6v-4.9h-4.7v-1.6h4.7v-4.9h1.6z" fill="#c62828"/></svg>