<svg enable-background="new 0 0 247.9 326.8" viewBox="0 0 247.9 326.8" xmlns="http://www.w3.org/2000/svg"><path d="m216.1 71.2-184.3 184.3" fill="none" stroke="#c62828" stroke-width="10"/><path d="m31.8 71.2 184.3 184.3" fill="none" stroke="#c62828" stroke-width="10"/><g fill="#c62828"><path d="m37.7 190.6h-7.5v-47.9c0-4 .1-7.8.4-11.3-.6.6-1.4 1.3-2.2 2s-4.4 3.7-10.9 9l-4-5.2 17.8-13.8h6.4z"/><path d="m145.8 282.8h-44.2v-6.6l17.7-17.8c5.4-5.5 9-9.4 10.7-11.7s3-4.6 3.9-6.8 1.3-4.6 1.3-7.1c0-3.6-1.1-6.4-3.3-8.5s-5.2-3.2-9.1-3.2c-2.8 0-5.4.5-7.9 1.4s-5.3 2.6-8.3 5l-4-5.2c6.2-5.2 12.9-7.7 20.2-7.7 6.3 0 11.3 1.6 14.9 4.9 3.6 3.2 5.4 7.6 5.4 13 0 4.3-1.2 8.5-3.6 12.6-2.4 4.2-6.9 9.4-13.4 15.8l-14.7 14.4v.4h34.6v7.1z"/><path d="m235.5 139.2c0 4.3-1.2 7.8-3.6 10.5s-5.8 4.6-10.2 5.5v.4c5.4.7 9.4 2.4 12 5.2s3.9 6.4 3.9 10.9c0 6.4-2.2 11.3-6.7 14.8-4.4 3.4-10.8 5.2-19 5.2-3.6 0-6.8-.3-9.8-.8s-5.8-1.5-8.6-2.8v-7.3c2.9 1.4 6 2.5 9.3 3.3s6.4 1.1 9.4 1.1c11.6 0 17.4-4.6 17.4-13.7 0-8.2-6.4-12.2-19.2-12.2h-6.6v-6.6h6.7c5.2 0 9.4-1.2 12.5-3.5s4.6-5.5 4.6-9.6c0-3.3-1.1-5.9-3.4-7.7-2.3-1.9-5.3-2.8-9.2-2.8-2.9 0-5.7.4-8.3 1.2s-5.6 2.3-8.9 4.4l-3.9-5.2c2.8-2.2 5.9-3.9 9.5-5.1s7.4-1.9 11.4-1.9c6.5 0 11.6 1.5 15.2 4.5 3.7 2.9 5.5 7 5.5 12.2z"/><path d="m148.9 83h-10v15.5h-7.3v-15.5h-32.7v-6.7l31.9-45.5h8.1v45.2h10zm-17.3-6.9v-22.4c0-4.4.2-9.3.5-14.9h-.4c-1.5 2.9-2.9 5.4-4.1 7.3l-21 29.9h25z"/></g></svg>