<svg enable-background="new 0 0 49.8 16" viewBox="0 0 49.8 16" xmlns="http://www.w3.org/2000/svg"><g enable-background="new" fill="#c62828"><path d="m11.9 12.3h-2.4v3.7h-1.7v-3.7h-7.8v-1.6l7.6-10.7h1.9v10.7h2.4zm-4.1-1.6v-5.3c0-1 0-2.2.1-3.5h-.1c-.3.7-.7 1.3-1 1.7l-5 7.1z"/><path d="m22.9 9.9-4.2-5.8h2.1l3.2 4.5 3.1-4.6h2l-4.1 5.9 4.4 6.1h-2.1l-3.3-4.8-3.4 4.8h-2.1z"/><path d="m47.8 16-2-5.1h-6.4l-2 5.1h-1.9l6.3-16h1.6l6.3 16zm-2.5-6.7-1.9-4.9c-.2-.6-.5-1.4-.7-2.3-.2.7-.4 1.5-.7 2.3l-1.9 4.9z"/></g></svg>