<svg enable-background="new 0 0 255.2 249.2" viewBox="0 0 255.2 249.2" xmlns="http://www.w3.org/2000/svg"><path d="m198.7 231.8h4.9c2.3 0 4 .3 5 1s1.5 1.8 1.5 3.3c0 1-.3 1.9-.9 2.5s-1.4 1.1-2.5 1.3v.1c2.6.5 3.9 1.8 3.9 4.1 0 1.5-.5 2.8-1.6 3.6-1 .9-2.5 1.3-4.4 1.3h-6v-17.2zm2.1 7.5h3.3c1.4 0 2.4-.2 3.1-.7.6-.4.9-1.2.9-2.3 0-1-.3-1.7-1-2.1s-1.8-.6-3.3-.6h-3zm0 1.7v6.5h3.6c1.4 0 2.4-.3 3.2-.8.7-.5 1.1-1.4 1.1-2.5s-.4-1.9-1.1-2.4-1.8-.8-3.3-.8z" fill="#c62828"/><path d="m7 92.7 111.3-85 111.3 85.1-42.5 137.6h-137.6z" fill="none" stroke="#c62828" stroke-width="10"/><g fill="#c62828"><path d="m252.3 97-2.2-5.5h-6.9l-2.1 5.5h-2l6.8-17.4h1.7l6.8 17.4zm-2.7-7.3-2-5.4c-.3-.7-.5-1.5-.8-2.5-.2.8-.4 1.6-.7 2.5l-2 5.4z"/><g enable-background="new"><path d="m116.4 156.5-2.2-5.5h-6.9l-2.1 5.5h-2l6.8-17.4h1.7l6.8 17.4zm-2.7-7.3-2-5.4c-.3-.7-.5-1.5-.8-2.5-.2.8-.4 1.6-.7 2.5l-2 5.4z"/><path d="m130 149.8-4.5-6.3h2.2l3.4 5 3.4-5h2.2l-4.5 6.3 4.7 6.6h-2.2l-3.6-5.3-3.7 5.3h-2.2z"/><path d="m146.2 139.2h4.9c2.3 0 4 .3 5 1s1.5 1.8 1.5 3.3c0 1-.3 1.9-.9 2.5s-1.4 1.1-2.5 1.3v.1c2.6.5 3.9 1.8 3.9 4.1 0 1.5-.5 2.8-1.6 3.6-1 .9-2.5 1.3-4.4 1.3h-6v-17.2zm2 7.4h3.3c1.4 0 2.4-.2 3.1-.7.6-.4.9-1.2.9-2.3 0-1-.3-1.7-1-2.1s-1.8-.6-3.3-.6h-3zm0 1.7v6.5h3.6c1.4 0 2.4-.3 3.2-.8.7-.5 1.1-1.4 1.1-2.5s-.4-1.9-1.1-2.4-1.8-.8-3.3-.8z"/><path d="m173.5 147.1h4.9v1.6h-4.9v5h-1.6v-5h-4.9v-1.6h4.9v-5.1h1.6z"/><path d="m189.4 151.7v-.6c0-.9.1-1.7.4-2.3s.8-1.2 1.6-1.9c1.1-.9 1.8-1.6 2-2 .3-.5.4-1 .4-1.7 0-.8-.3-1.4-.8-1.9-.5-.4-1.3-.7-2.2-.7-.6 0-1.2.1-1.8.2s-1.3.4-2 .8l-.7-1.6c1.5-.8 3-1.2 4.7-1.2 1.5 0 2.7.4 3.5 1.1s1.3 1.8 1.3 3.1c0 .6-.1 1.1-.2 1.5-.2.4-.4.9-.7 1.2s-.9 1-1.9 1.9c-.8.7-1.3 1.2-1.6 1.7-.3.4-.4 1-.4 1.8v.4h-1.6zm-.6 3.5c0-1.1.5-1.6 1.4-1.6.5 0 .8.1 1.1.4.2.3.4.7.4 1.2s-.1.9-.4 1.2-.6.4-1.1.4c-.4 0-.8-.1-1-.4-.3-.2-.4-.6-.4-1.2z"/></g></g></svg>