<svg enable-background="new 0 0 56.9 116.1" viewBox="0 0 56.9 116.1" xmlns="http://www.w3.org/2000/svg"><g fill="#c62828"><g enable-background="new"><path d="m12.8 16.8-2.1-5.3h-6.7l-2 5.3h-2l6.6-16.8h1.6l6.6 16.8zm-2.7-7.1-1.9-5.2c-.3-.6-.5-1.4-.8-2.4-.2.8-.4 1.6-.7 2.4l-2 5.2z"/><path d="m22.3 7v-1.6h10.7v1.6zm0 4.7v-1.6h10.7v1.6z"/></g><g enable-background="new"><path d="m2.3 33.4h4.7c2.2 0 3.8.3 4.8 1s1.5 1.7 1.5 3.2c0 1-.3 1.8-.8 2.5s-1.4 1.1-2.4 1.3v.1c2.5.4 3.8 1.8 3.8 4 0 1.5-.5 2.7-1.5 3.5s-2.4 1.3-4.2 1.3h-5.9zm2 7.2h3.2c1.4 0 2.4-.2 3-.6s.9-1.2.9-2.2c0-.9-.3-1.6-1-2s-1.7-.6-3.2-.6h-2.9zm0 1.7v6.3h3.5c1.4 0 2.4-.3 3.1-.8s1-1.3 1-2.5c0-1-.3-1.8-1-2.3s-1.8-.7-3.2-.7z"/><path d="m22.7 40.4v-1.6h10.7v1.6zm0 4.7v-1.6h10.7v1.6z"/></g><g enable-background="new"><path d="m24.6 74.7v-1.6h10.7v1.6zm0 4.7v-1.6h10.7v1.6z"/><path d="m52.3 69.3c-1.8 0-3.3.6-4.4 1.8s-1.6 2.9-1.6 5c0 2.2.5 3.9 1.5 5.1s2.5 1.8 4.4 1.8c1.2 0 2.5-.2 4-.6v1.7c-1.2.4-2.6.7-4.3.7-2.5 0-4.4-.7-5.7-2.2s-2-3.6-2-6.4c0-1.7.3-3.2 1-4.5s1.6-2.3 2.8-3 2.7-1.1 4.3-1.1c1.8 0 3.3.3 4.6 1l-.8 1.7c-1.3-.7-2.6-1-3.8-1z"/></g><g enable-background="new"><path d="m15.7 107.6c0 2.8-.8 4.9-2.3 6.3-1.5 1.5-3.7 2.2-6.5 2.2h-4.6v-16.7h5.1c2.6 0 4.6.7 6.1 2.2 1.5 1.4 2.2 3.4 2.2 6zm-2.1.1c0-2.2-.5-3.8-1.6-4.9s-2.7-1.7-4.9-1.7h-2.8v13.4h2.4c2.3 0 4.1-.6 5.2-1.7 1.1-1.2 1.7-2.9 1.7-5.1z"/><path d="m24.6 106.3v-1.6h10.7v1.6zm0 4.7v-1.6h10.7v1.6z"/></g></g></svg>