<svg enable-background="new 0 0 126 151.2" viewBox="0 0 126 151.2" xmlns="http://www.w3.org/2000/svg"><path d="m58.2 147.9-33.3-57.8" fill="none" stroke="#c62828" stroke-width="5"/><path d="m31.6 90.1c0 3.7-3 6.7-6.7 6.7s-6.7-3-6.7-6.7 3-6.7 6.7-6.7 6.7 3 6.7 6.7z" fill="#c62828"/><path d="m63.4 37.4c0 3.7-3 6.7-6.7 6.7s-6.7-3-6.7-6.7 3-6.7 6.7-6.7c3.7.1 6.7 3 6.7 6.7z" fill="#c62828"/><path d="m123.1 37.4h-66.7" fill="none" stroke="#c62828" stroke-width="5"/><path d="m23 93.1 33.4-57.8" fill="none" stroke="#c62828" stroke-width="5"/><g fill="#c62828"><path d="m16.5 97.7h-11.3v-1.7l4.6-4.6c1.4-1.4 2.3-2.4 2.7-3s.8-1.2 1-1.8.3-1.2.3-1.8c0-.9-.3-1.7-.8-2.2-.6-.5-1.3-.8-2.3-.8-.7 0-1.4.1-2 .4-.6.2-1.4.7-2.1 1.3l-1-1.3c1.6-1.3 3.3-2 5.2-2 1.6 0 2.9.4 3.8 1.2s1.4 2 1.4 3.4c0 1.1-.3 2.2-.9 3.3s-1.8 2.4-3.5 4.1l-3.8 3.7v.1h8.9v1.7z"/><path d="m55.3 27.4h-11.4v-1.7l4.6-4.6c1.4-1.4 2.3-2.4 2.7-3s.8-1.2 1-1.8.3-1.2.3-1.8c0-.9-.3-1.7-.8-2.2-.6-.5-1.3-.8-2.3-.8-.7 0-1.4.1-2 .4-.6.2-1.4.7-2.1 1.3l-1-1.3c1.6-1.3 3.3-2 5.2-2 1.6 0 2.9.4 3.8 1.2s1.4 2 1.4 3.4c0 1.1-.3 2.2-.9 3.3s-1.8 2.4-3.5 4.1l-3.8 3.7v.1h8.9v1.7z"/><path d="m31.3 54.6-4.5-6.3h2.2l3.4 5 3.4-5h2.2l-4.5 6.3 4.7 6.6h-2.2l-3.6-5.2-3.7 5.3h-2.2z"/></g></svg>