<svg enable-background="new 0 0 146.7 110.2" viewBox="0 0 146.7 110.2" xmlns="http://www.w3.org/2000/svg"><path d="m48.9 76 12.7 21.9h-25.4-25.3l12.7-21.9 12.7-21.9z" fill="none" stroke="#c62828" stroke-width="5"/><path d="m74.2 32.2 12.7 21.9h-25.4-25.3l12.7-21.9 12.7-21.9z" fill="none" stroke="#c62828" stroke-width="5"/><path d="m99.5 76 12.7 21.9h-25.4-25.3l12.7-21.9 12.7-21.9z" fill="none" stroke="#c62828" stroke-width="5"/><g fill="#c62828"><path d="m70.9 10.3c0-5.1-4.2-9.3-9.3-9.3s-9.3 4.2-9.3 9.3 4.2 9.3 9.3 9.3 9.3-4.2 9.3-9.3z"/><path d="m45.5 54.1c0-5.1-4.2-9.3-9.3-9.3s-9.3 4.2-9.3 9.3 4.2 9.3 9.3 9.3c5.2 0 9.3-4.1 9.3-9.3z"/><path d="m96.2 54.1c0-5.1-4.2-9.3-9.3-9.3s-9.3 4.2-9.3 9.3 4.2 9.3 9.3 9.3 9.3-4.1 9.3-9.3z"/><path d="m20.2 97.9c0-5.1-4.2-9.3-9.3-9.3s-9.3 4.2-9.3 9.3 4.2 9.3 9.3 9.3c5.2.1 9.3-4.1 9.3-9.3z"/><path d="m121.5 97.9c0-5.1-4.2-9.3-9.3-9.3s-9.3 4.2-9.3 9.3 4.2 9.3 9.3 9.3c5.1.1 9.3-4.1 9.3-9.3z"/><path d="m69 97.9c0-5.1-4.2-9.3-9.3-9.3s-9.3 4.2-9.3 9.3 4.2 9.3 9.3 9.3c5.1.1 9.3-4.1 9.3-9.3z"/><g enable-background="new"><path d="m110.8 51.8v-1.6h11v1.6zm0 4.8v-1.6h11v1.6z"/><path d="m136 51.4c1.8 0 3.2.4 4.3 1.3 1 .9 1.6 2.1 1.6 3.7 0 1.8-.6 3.2-1.7 4.2s-2.7 1.5-4.7 1.5c-1.9 0-3.4-.3-4.4-.9v-1.9c.5.4 1.2.6 2 .8s1.6.3 2.4.3c1.4 0 2.5-.3 3.2-1 .8-.7 1.1-1.6 1.1-2.8 0-2.4-1.5-3.6-4.4-3.6-.7 0-1.7.1-3 .3l-1-.6.6-8.1h8.6v1.8h-6.9l-.4 5.2c.9-.1 1.8-.2 2.7-.2z"/></g></g></svg>