<svg enable-background="new 0 0 249 112.7" viewBox="0 0 249 112.7" xmlns="http://www.w3.org/2000/svg"><path d="m18.7 9.3c0 5.2-4.2 9.3-9.3 9.3s-9.4-4.1-9.4-9.3 4.2-9.3 9.3-9.3 9.4 4.2 9.4 9.3z" fill="#c62828"/><path d="m18.7 56.3c0 5.2-4.2 9.3-9.3 9.3s-9.4-4.1-9.4-9.3 4.2-9.3 9.3-9.3 9.4 4.2 9.4 9.3z" fill="#c62828"/><path d="m9.3 9.3v47" fill="none" stroke="#c62828" stroke-width="5"/><path d="m9.3 56.3v47" fill="none" stroke="#c62828" stroke-width="5"/><path d="m56.3 9.3h-47" fill="none" stroke="#c62828" stroke-width="5"/><path d="m68.3 9.3c0 5.2-4.2 9.3-9.3 9.3-5.2 0-9.3-4.2-9.3-9.3s4.2-9.3 9.3-9.3c5.2 0 9.3 4.2 9.3 9.3z" fill="#c62828"/><path d="m68.3 56.3c0 5.2-4.2 9.3-9.3 9.3-5.2 0-9.3-4.2-9.3-9.3s4.2-9.3 9.3-9.3c5.2 0 9.3 4.2 9.3 9.3z" fill="#c62828"/><path d="m106 9.3h-47" fill="none" stroke="#c62828" stroke-width="5"/><path d="m115.3 103.4c0-5.2-4.2-9.3-9.3-9.3-5.2 0-9.3 4.2-9.3 9.3s4.2 9.3 9.3 9.3c5.2 0 9.3-4.2 9.3-9.3z" fill="#c62828"/><path d="m115.3 56.3c0-5.2-4.2-9.3-9.3-9.3-5.2 0-9.3 4.2-9.3 9.3s4.2 9.3 9.3 9.3c5.2.1 9.3-4.1 9.3-9.3z" fill="#c62828"/><path d="m106 103.4v-47" fill="none" stroke="#c62828" stroke-width="5"/><path d="m106 56.3v-47" fill="none" stroke="#c62828" stroke-width="5"/><path d="m115.3 9.3c0 5.2-4.2 9.3-9.3 9.3-5.2 0-9.3-4.2-9.3-9.3s4.2-9.3 9.3-9.3c5.2 0 9.3 4.2 9.3 9.3z" fill="#c62828"/><path d="m56.3 103.4h-47" fill="none" stroke="#c62828" stroke-width="5"/><path d="m106 103.4h-47" fill="none" stroke="#c62828" stroke-width="5"/><path d="m68.3 103.4c0-5.2-4.2-9.3-9.3-9.3-5.2 0-9.3 4.2-9.3 9.3s4.2 9.3 9.3 9.3c5.2 0 9.3-4.2 9.3-9.3z" fill="#c62828"/><path d="m18.7 103.4c0-5.2-4.2-9.3-9.3-9.3s-9.4 4.1-9.4 9.3 4.2 9.3 9.3 9.3 9.4-4.2 9.4-9.3z" fill="#c62828"/><g fill="none" stroke="#c62828" stroke-width="5"><path d="m59 103.4-49.7-47"/><path d="m9.3 9.3 49.7 47-49.7 47"/><path d="m59 103.4 47-47-47-47-49.7 47"/><path d="m204.7 56.3 12.7 22h-25.4-25.3l12.7-22 12.7-22z"/></g><g enable-background="new" fill="#c62828"><path d="m221.7 55.9v-1.5h12.5v1.5zm0 4.7v-1.5h12.5v1.5z"/><path d="m243.6 59.4v-.6c-.1-1.3.3-2.7 1.5-4.2 1.1-1.3 1.7-2.2 1.7-3.3 0-1.2-.8-2.1-2.3-2.1-.9 0-1.8.3-2.4.7l-.6-1.5c.8-.6 2.2-1 3.5-1 2.8 0 4 1.7 4 3.6 0 1.6-.9 2.8-2.1 4.2-1.1 1.3-1.5 2.3-1.4 3.6v.6zm-.5 3.4c0-.9.6-1.5 1.5-1.5.8 0 1.4.6 1.4 1.5 0 .8-.6 1.5-1.5 1.5-.8 0-1.4-.7-1.4-1.5z"/></g></svg>