<svg enable-background="new 0 0 331 172.2" viewBox="0 0 331 172.2" xmlns="http://www.w3.org/2000/svg"><path d="m106.3 77.5 32.6 65.3h-65.3-65.3l32.7-65.3 32.7-65.3z" fill="none" stroke="#c62828" stroke-width="10"/><path d="m108.6 81.4h-67.9" fill="none" stroke="#c62828" stroke-width="10"/><path d="m72.6 77.5 1 65.3" fill="none" stroke="#c62828" stroke-width="10"/><g fill="#c62828"><g enable-background="new"><path d="m71.4 67.8h-11.3v-1.7l4.5-4.5c1.4-1.4 2.3-2.4 2.7-3s.8-1.2 1-1.7c.2-.6.3-1.2.3-1.8 0-.9-.3-1.6-.8-2.2-.6-.5-1.3-.8-2.3-.8-.7 0-1.4.1-2 .4-.6.2-1.3.7-2.1 1.3l-1-1.3c1.6-1.3 3.3-2 5.1-2 1.6 0 2.9.4 3.8 1.2s1.4 1.9 1.4 3.3c0 1.1-.3 2.2-.9 3.2-.6 1.1-1.7 2.4-3.4 4l-3.7 3.7v.1h8.8v1.8z"/><path d="m79.5 50.5c1.6 0 2.8.4 3.7 1.1s1.4 1.7 1.4 3c0 .8-.3 1.6-.8 2.3s-1.4 1.3-2.5 1.9c1.4.7 2.4 1.4 3 2.1s.9 1.6.9 2.5c0 1.4-.5 2.5-1.5 3.4-1 .8-2.3 1.3-4.1 1.3s-3.2-.4-4.2-1.2-1.5-1.9-1.5-3.4c0-2 1.2-3.5 3.6-4.6-1.1-.6-1.8-1.3-2.3-2s-.7-1.5-.7-2.4c0-1.2.5-2.2 1.4-3 .8-.7 2-1 3.6-1zm-3.7 13c0 .9.3 1.7 1 2.2.6.5 1.6.8 2.7.8 1.2 0 2.1-.3 2.7-.8s1-1.3 1-2.2c0-.8-.3-1.4-.9-2s-1.7-1.2-3.2-1.7c-1.2.5-2 1-2.5 1.7-.6.4-.8 1.1-.8 2zm3.6-11.5c-1 0-1.7.2-2.3.7s-.8 1.1-.8 1.9c0 .7.2 1.3.7 1.8s1.3 1 2.5 1.5c1.1-.5 1.9-1 2.4-1.5s.7-1.2.7-1.9c0-.8-.3-1.4-.8-1.9s-1.4-.6-2.4-.6z"/></g><g enable-background="new"><path d="m124.2 56.2c1.6 0 2.8.4 3.7 1.1s1.4 1.7 1.4 3c0 .8-.3 1.6-.8 2.3s-1.4 1.3-2.5 1.9c1.4.7 2.4 1.4 3 2.1s.9 1.6.9 2.5c0 1.4-.5 2.5-1.5 3.4-1 .8-2.3 1.3-4.1 1.3s-3.2-.4-4.2-1.2-1.5-1.9-1.5-3.4c0-2 1.2-3.5 3.6-4.6-1.1-.6-1.8-1.3-2.3-2s-.7-1.5-.7-2.4c0-1.2.5-2.2 1.4-3 .8-.6 2-1 3.6-1zm-3.7 13c0 .9.3 1.7 1 2.2.6.5 1.6.8 2.7.8 1.2 0 2.1-.3 2.7-.8s1-1.3 1-2.2c0-.8-.3-1.4-.9-2s-1.7-1.2-3.2-1.7c-1.2.5-2 1-2.5 1.7-.6.4-.8 1.2-.8 2zm3.6-11.4c-1 0-1.7.2-2.3.7s-.8 1.1-.8 1.9c0 .7.2 1.3.7 1.8s1.3 1 2.5 1.5c1.1-.5 1.9-1 2.4-1.5s.7-1.2.7-1.9c0-.8-.3-1.4-.8-1.9s-1.4-.6-2.4-.6z"/><path d="m144.2 69.6h-2.5v3.9h-1.9v-3.9h-8.3v-1.7l8.1-11.5h2.1v11.5h2.5zm-4.4-1.8v-5.7c0-1.1 0-2.4.1-3.8h-.1c-.4.7-.7 1.4-1.1 1.9l-5.3 7.6z"/></g><path d="m97 117.2v-.6c0-.9.1-1.7.4-2.2.3-.6.8-1.2 1.6-1.9 1.1-.9 1.7-1.6 2-2 .3-.5.4-1 .4-1.6 0-.8-.3-1.4-.8-1.8s-1.2-.6-2.2-.6c-.6 0-1.2.1-1.8.2s-1.3.4-2 .8l-.7-1.6c1.5-.8 3-1.2 4.6-1.2 1.5 0 2.6.4 3.5 1.1.8.7 1.2 1.8 1.2 3.1 0 .6-.1 1.1-.2 1.5s-.4.8-.7 1.2-.9 1-1.9 1.9c-.8.7-1.3 1.2-1.6 1.7-.3.4-.4 1-.4 1.8v.4h-1.4zm-.6 3.4c0-1.1.5-1.6 1.4-1.6.5 0 .8.1 1 .4s.4.7.4 1.2-.1.9-.4 1.2-.6.4-1 .4-.7-.1-1-.4-.4-.6-.4-1.2z"/><path d="m53.8 117.9h-2.5v3.9h-1.9v-3.9h-8.3v-1.7l8.1-11.5h2.1v11.5h2.5zm-4.4-1.7v-5.7c0-1.1 0-2.4.1-3.8h-.1c-.4.7-.7 1.4-1.1 1.9l-5.3 7.6z"/><g enable-background="new"><path d="m69.3 172h-1.9v-12.2c0-1 0-2 .1-2.9-.2.2-.3.3-.5.5s-1.1.9-2.8 2.3l-1-1.3 4.5-3.5h1.6z"/><path d="m87.1 163.4c0 3-.5 5.2-1.4 6.6s-2.4 2.2-4.3 2.2c-1.8 0-3.2-.7-4.2-2.2s-1.4-3.7-1.4-6.6c0-3 .5-5.2 1.4-6.6s2.3-2.2 4.2-2.2 3.3.8 4.2 2.3c1 1.5 1.5 3.7 1.5 6.5zm-9.3 0c0 2.5.3 4.3.9 5.4s1.5 1.7 2.8 1.7 2.2-.6 2.8-1.7.9-2.9.9-5.4-.3-4.2-.9-5.4c-.6-1.1-1.5-1.7-2.8-1.7s-2.2.6-2.8 1.7-.9 3-.9 5.4z"/></g><path d="m11.7 73.5 7.1-15.3h-9.4v-1.8h11.4v1.6l-7 15.5z"/></g><path d="m279.4 77.5 32.7 65.3h-65.3-65.3l32.6-65.3 32.7-65.3z" fill="none" stroke="#c62828" stroke-width="10"/><path d="m281.7 81.4h-67.9" fill="none" stroke="#c62828" stroke-width="10"/><path d="m245.8 77.5 1 65.3" fill="none" stroke="#c62828" stroke-width="10"/><g enable-background="new" fill="#c62828"><path d="m244.8 54.7c0 1.1-.3 2-.9 2.7s-1.5 1.2-2.6 1.4v.1c1.4.2 2.4.6 3 1.3.7.7 1 1.6 1 2.8 0 1.6-.6 2.9-1.7 3.8s-2.7 1.3-4.8 1.3c-.9 0-1.7-.1-2.5-.2s-1.5-.4-2.2-.7v-1.8c.7.4 1.5.6 2.4.8.8.2 1.6.3 2.4.3 3 0 4.4-1.2 4.4-3.5 0-2.1-1.6-3.1-4.9-3.1h-1.7v-1.7h1.7c1.3 0 2.4-.3 3.2-.9s1.2-1.4 1.2-2.4c0-.8-.3-1.5-.9-2s-1.3-.7-2.3-.7c-.7 0-1.5.1-2.1.3-.7.2-1.4.6-2.3 1.1l-1-1.3c.7-.6 1.5-1 2.4-1.3s1.9-.5 2.9-.5c1.7 0 2.9.4 3.9 1.1 1 .8 1.4 1.8 1.4 3.1z"/><path d="m248.1 60.5c0-3.4.7-5.9 2-7.5s3.2-2.5 5.8-2.5c.9 0 1.6.1 2.1.2v1.7c-.6-.2-1.3-.3-2.1-.3-1.8 0-3.2.6-4.2 1.7s-1.5 2.9-1.6 5.4h.1c.9-1.3 2.2-2 4.1-2 1.5 0 2.7.5 3.6 1.4s1.3 2.2 1.3 3.8c0 1.8-.5 3.2-1.5 4.2s-2.3 1.5-3.9 1.5c-1.8 0-3.2-.7-4.2-2-1-1.4-1.5-3.3-1.5-5.6zm5.8 5.9c1.1 0 2-.3 2.6-1s.9-1.7.9-3c0-1.1-.3-2-.9-2.7s-1.4-1-2.5-1c-.7 0-1.3.1-1.9.4s-1 .7-1.4 1.2-.5 1-.5 1.6c0 .8.2 1.5.5 2.2s.8 1.2 1.3 1.6 1.1.7 1.9.7z"/></g><g enable-background="new" fill="#c62828"><path d="m298.8 73.5h-1.9v-12.1c0-1 0-2 .1-2.9-.2.2-.3.3-.5.5s-1.1.9-2.8 2.3l-1-1.3 4.5-3.5h1.6z"/><path d="m317.3 69.6h-2.5v3.9h-1.8v-3.9h-8.3v-1.7l8.1-11.5h2.1v11.5h2.5v1.7zm-4.3-1.8v-5.7c0-1.1 0-2.4.1-3.8h-.1c-.4.7-.7 1.4-1.1 1.9l-5.3 7.6z"/><path d="m331 69.6h-2.5v3.9h-1.9v-3.9h-8.3v-1.7l8.1-11.5h2.1v11.5h2.5zm-4.4-1.8v-5.7c0-1.1 0-2.4.1-3.8h-.1c-.4.7-.7 1.4-1.1 1.9l-5.3 7.6z"/></g><path d="m279.3 117.9h-2.5v3.9h-1.9v-3.9h-8.3v-1.7l8.1-11.5h2.1v11.5h2.5zm-4.4-1.7v-5.7c0-1.1 0-2.4.1-3.8h-.1c-.4.7-.7 1.4-1.1 1.9l-5.3 7.6z" fill="#c62828"/><path d="m226.2 112.1c0 6.7-2.6 10-7.8 10-.9 0-1.6-.1-2.1-.2v-1.7c.6.2 1.3.3 2.1.3 1.9 0 3.3-.6 4.2-1.7 1-1.2 1.5-2.9 1.6-5.3h-.2c-.4.6-1 1.1-1.7 1.5-.7.3-1.5.5-2.4.5-1.5 0-2.7-.5-3.6-1.4s-1.3-2.2-1.3-3.8c0-1.8.5-3.2 1.5-4.2s2.3-1.5 3.9-1.5c1.2 0 2.2.3 3 .9.9.6 1.5 1.5 2 2.6s.8 2.4.8 4zm-5.8-5.9c-1.1 0-2 .4-2.6 1.1s-.9 1.7-.9 3c0 1.1.3 2 .8 2.6.6.6 1.4 1 2.6 1 .7 0 1.4-.1 2-.4s1.1-.7 1.4-1.2.5-1 .5-1.6c0-.8-.2-1.6-.5-2.3s-.8-1.2-1.3-1.6c-.6-.4-1.2-.6-2-.6z" fill="#c62828"/><g enable-background="new" fill="#c62828"><path d="m241.4 172h-1.9v-12.2c0-1 0-2 .1-2.9-.2.2-.3.3-.5.5s-1.1.9-2.8 2.3l-1-1.3 4.5-3.5h1.6z"/><path d="m250.1 172 7.1-15.3h-9.3v-1.8h11.4v1.6l-7 15.5z"/></g><path d="m194.7 69.6h-2.5v3.9h-1.9v-3.9h-8.3v-1.7l8.1-11.5h2.1v11.5h2.5zm-4.4-1.8v-5.7c0-1.1 0-2.4.1-3.8h-.1c-.4.7-.7 1.4-1.1 1.9l-5.3 7.6z" fill="#c62828"/></svg>