<svg enable-background="new 0 0 323 157.5" viewBox="0 0 323 157.5" xmlns="http://www.w3.org/2000/svg"><path d="m317 78.8c0 40.5-32.8 73.3-73.3 73.3s-73.3-32.8-73.3-73.3 32.8-73.3 73.3-73.3 73.3 32.8 73.3 73.3z" fill="none" stroke="#c62828" stroke-width="10"/><path d="m272.4 78.8c0 15.8-12.8 28.7-28.7 28.7s-28.7-12.8-28.7-28.7c0-15.8 12.8-28.7 28.7-28.7s28.7 12.9 28.7 28.7z" fill="none" stroke="#c62828" stroke-width="10"/><path d="m213.2 35.8c0 1.1-.3 1.9-.9 2.6s-1.5 1.1-2.6 1.4v.1c1.3.2 2.3.6 3 1.3.6.7 1 1.6 1 2.7 0 1.6-.6 2.8-1.7 3.7s-2.7 1.3-4.7 1.3c-.9 0-1.7-.1-2.4-.2s-1.5-.4-2.2-.7v-1.8c.7.4 1.5.6 2.3.8s1.6.3 2.3.3c2.9 0 4.3-1.1 4.3-3.4 0-2-1.6-3.1-4.8-3.1h-1.7v-1.6h1.7c1.3 0 2.3-.3 3.1-.9s1.1-1.4 1.1-2.4c0-.8-.3-1.5-.8-1.9-.6-.5-1.3-.7-2.3-.7-.7 0-1.4.1-2.1.3s-1.4.6-2.2 1.1l-1-1.3c.7-.5 1.5-1 2.4-1.3s1.8-.5 2.8-.5c1.6 0 2.9.4 3.8 1.1 1.1.8 1.6 1.8 1.6 3.1z" fill="#c62828"/><path d="m283.9 35.8c0 1.1-.3 1.9-.9 2.6s-1.5 1.1-2.6 1.4v.1c1.3.2 2.3.6 3 1.3s1 1.6 1 2.7c0 1.6-.6 2.8-1.7 3.7s-2.7 1.3-4.7 1.3c-.9 0-1.7-.1-2.4-.2s-1.5-.4-2.2-.7v-1.8c.7.4 1.5.6 2.3.8s1.6.3 2.3.3c2.9 0 4.3-1.1 4.3-3.4 0-2-1.6-3.1-4.8-3.1h-1.5v-1.6h1.7c1.3 0 2.3-.3 3.1-.9s1.1-1.4 1.1-2.4c0-.8-.3-1.5-.8-1.9-.6-.5-1.3-.7-2.3-.7-.7 0-1.4.1-2.1.3s-1.4.6-2.2 1.1l-1-1.3c.7-.5 1.5-1 2.4-1.3s1.8-.5 2.8-.5c1.6 0 2.9.4 3.8 1.1s1.4 1.8 1.4 3.1z" fill="#c62828"/><path d="m214.6 118.1h-2.5v3.9h-1.8v-3.9h-8.2v-1.7l8-11.3h2v11.3h2.5zm-4.3-1.7v-5.6c0-1.1 0-2.3.1-3.7h-.1c-.4.7-.7 1.3-1 1.8l-5.2 7.5z" fill="#c62828"/><path d="m284.6 122h-11v-1.6l4.4-4.4c1.3-1.4 2.2-2.3 2.7-2.9.4-.6.8-1.1 1-1.7s.3-1.1.3-1.8c0-.9-.3-1.6-.8-2.1s-1.3-.8-2.3-.8c-.7 0-1.4.1-2 .3s-1.3.6-2.1 1.3l-1-1.3c1.5-1.3 3.2-1.9 5-1.9 1.6 0 2.8.4 3.7 1.2s1.3 1.9 1.3 3.3c0 1.1-.3 2.1-.9 3.2s-1.7 2.4-3.3 3.9l-3.7 3.6v.1h8.6v1.6z" fill="#c62828"/><g enable-background="new" fill="#c62828"><path d="m238.5 87.2h-1.9v-12c0-1 0-1.9.1-2.8-.2.2-.3.3-.5.5s-1.1.9-2.7 2.2l-1-1.3 4.4-3.4h1.6z"/><path d="m247 87.2 7-15h-9.1v-1.8h11.1v1.5l-6.9 15.2h-2.1z"/></g><path d="m152.6 78.8c0 40.5-32.8 73.3-73.3 73.3s-73.3-32.9-73.3-73.3 32.8-73.3 73.3-73.3 73.3 32.8 73.3 73.3z" fill="none" stroke="#c62828" stroke-width="10"/><path d="m107.9 78.8c0 15.8-12.8 28.7-28.7 28.7s-28.6-12.9-28.6-28.7 12.8-28.7 28.7-28.7 28.6 12.9 28.6 28.7z" fill="none" stroke="#c62828" stroke-width="10"/><path d="m43.6 38.4c1.8 0 3.2.4 4.2 1.3s1.5 2.1 1.5 3.6c0 1.7-.6 3.1-1.7 4.1s-2.6 1.5-4.6 1.5c-1.9 0-3.3-.3-4.3-.9v-1.8c.5.3 1.2.6 2 .8s1.6.3 2.4.3c1.3 0 2.4-.3 3.1-1 .7-.6 1.1-1.6 1.1-2.8 0-2.3-1.4-3.5-4.3-3.5-.7 0-1.7.1-2.9.3l-1-.6.6-7.8h8.3v1.8h-6.7l-.4 5c.9-.2 1.8-.3 2.7-.3z" fill="#c62828"/><path d="m114.3 38.4c1.8 0 3.2.4 4.2 1.3s1.5 2.1 1.5 3.6c0 1.7-.6 3.1-1.7 4.1s-2.6 1.5-4.6 1.5c-1.9 0-3.3-.3-4.3-.9v-1.8c.5.3 1.2.6 2 .8s1.6.3 2.4.3c1.3 0 2.4-.3 3.1-1 .7-.6 1.1-1.6 1.1-2.8 0-2.3-1.4-3.5-4.3-3.5-.7 0-1.7.1-2.9.3l-1-.6.6-7.8h8.3v1.8h-6.7l-.4 5c1-.2 1.9-.3 2.7-.3z" fill="#c62828"/><path d="m49.4 122h-11v-1.6l4.4-4.4c1.3-1.4 2.2-2.3 2.7-2.9s.7-1.1 1-1.7c.2-.6.3-1.1.3-1.8 0-.9-.3-1.6-.8-2.1s-1.3-.8-2.3-.8c-.7 0-1.4.1-2 .3s-1.3.6-2.1 1.3l-1-1.3c1.5-1.3 3.2-1.9 5-1.9 1.6 0 2.8.4 3.7 1.2s1.3 1.9 1.3 3.3c0 1.1-.3 2.1-.9 3.2s-1.7 2.4-3.3 3.9l-3.7 3.6v.1h8.6v1.6z" fill="#c62828"/><path d="m112.9 117.3v-.6c0-.9.1-1.6.4-2.2s.8-1.2 1.5-1.8c1-.9 1.7-1.5 2-2s.4-1 .4-1.6c0-.8-.3-1.4-.8-1.8s-1.2-.6-2.2-.6c-.6 0-1.2.1-1.8.2s-1.2.4-2 .8l-.7-1.5c1.4-.8 3-1.1 4.5-1.1s2.6.4 3.4 1.1 1.2 1.7 1.2 3c0 .6-.1 1-.2 1.5-.1.4-.4.8-.7 1.2s-.9 1-1.9 1.8c-.8.7-1.3 1.2-1.5 1.6s-.4 1-.4 1.7v.4h-1.2zm-.5 3.4c0-1 .5-1.6 1.4-1.6.4 0 .8.1 1 .4s.4.7.4 1.2-.1.9-.4 1.1c-.2.3-.6.4-1 .4s-.7-.1-1-.4c-.3-.1-.4-.5-.4-1.1z" fill="#c62828"/><g enable-background="new" fill="#c62828"><path d="m72.2 76.9c1.8 0 3.2.4 4.2 1.3s1.5 2.1 1.5 3.6c0 1.7-.6 3.1-1.7 4.1s-2.6 1.5-4.6 1.5c-1.9 0-3.3-.3-4.3-.9v-1.8c.5.3 1.2.6 2 .8s1.6.3 2.4.3c1.3 0 2.4-.3 3.1-1 .7-.6 1.1-1.6 1.1-2.8 0-2.3-1.4-3.5-4.3-3.5-.7 0-1.7.1-2.9.3l-1-.6.6-7.8h8.3v1.8h-6.6l-.4 5c.9-.2 1.8-.3 2.6-.3z"/><path d="m87.5 87.2h-1.9v-12c0-1 0-1.9.1-2.8-.2.2-.3.3-.5.5s-1.1.9-2.7 2.2l-1-1.3 4.4-3.4h1.6z"/></g><g fill="none" stroke="#c62828" stroke-width="10"><path d="m50.6 78.8h-44.6"/><path d="m152.6 78.8h-44.6"/><path d="m79.3 50.1v-44.6"/><path d="m79.3 152.1v-42.3"/><path d="m215.1 78.8h-44.6"/><path d="m243.7 5.5v44.6"/><path d="m243.7 107.4v44.6"/><path d="m317 78.8h-44.6"/></g></svg>