<svg enable-background="new 0 0 126.6 108.1" viewBox="0 0 126.6 108.1" xmlns="http://www.w3.org/2000/svg"><g fill="#c62828"><g enable-background="new"><path d="m33.5 96.4c1.7 0 3 .5 4 1.4s1.5 2.2 1.5 3.9c0 1.9-.6 3.4-1.8 4.5-1.2 1-2.9 1.6-5.1 1.6-1.9 0-3.5-.3-4.7-.9v-3.2c.6.3 1.3.6 2.2.8.8.2 1.6.3 2.4.3 2.2 0 3.3-.9 3.3-2.7 0-1.7-1.2-2.6-3.5-2.6-.4 0-.9 0-1.4.1s-.9.2-1.2.3l-1.4-.9.7-8.8h9.4v3.1h-6.2l-.3 3.4.4-.1c.4-.1 1-.2 1.7-.2z"/><path d="m47.7 96c0-.7.2-1.2.5-1.5.4-.3.9-.5 1.5-.5.7 0 1.2.2 1.5.5.4.3.5.8.5 1.5 0 .6-.2 1.1-.6 1.5-.1.3-.6.5-1.3.5s-1.2-.2-1.5-.5c-.4-.4-.6-.9-.6-1.5zm0 9.8c0-.7.2-1.2.5-1.5.4-.3.9-.5 1.5-.5.7 0 1.2.2 1.5.5.4.3.5.8.5 1.5 0 .6-.2 1.1-.5 1.5-.4.4-.9.5-1.5.5-.7 0-1.2-.2-1.5-.5-.3-.4-.5-.9-.5-1.5z"/><path d="m60.4 100.1c0-3.4.7-6 2.2-7.6 1.4-1.7 3.6-2.5 6.5-2.5 1 0 1.8.1 2.3.2v2.9c-.7-.2-1.4-.2-2.1-.2-1.3 0-2.3.2-3.1.6s-1.4.9-1.8 1.7c-.4.7-.6 1.8-.7 3.2h.2c.8-1.3 2-2 3.8-2 1.5 0 2.8.5 3.6 1.5.9 1 1.3 2.3 1.3 4 0 1.8-.5 3.3-1.6 4.4-1 1.1-2.5 1.6-4.3 1.6-1.3 0-2.4-.3-3.3-.9-1-.6-1.7-1.5-2.2-2.6s-.8-2.7-.8-4.3zm6.3 4.7c.8 0 1.4-.3 1.8-.8s.6-1.3.6-2.2c0-.8-.2-1.5-.6-2s-1-.7-1.8-.7c-.7 0-1.4.2-1.9.7s-.8 1-.8 1.7c0 .9.2 1.7.7 2.4.6.6 1.2.9 2 .9z"/><path d="m80.7 97.9v-2.6h11.8v2.6zm0 4.6v-2.6h11.8v2.6z"/><path d="m109.8 107.5h-3.7v-10-1.6l.1-1.8c-.6.6-1 1-1.3 1.2l-2 1.6-1.8-2.2 5.6-4.4h3v17.2z"/><path d="m126.6 98.8c0 3-.5 5.3-1.5 6.7-1 1.5-2.5 2.2-4.6 2.2-2 0-3.5-.7-4.5-2.2s-1.5-3.7-1.5-6.6c0-3.1.5-5.3 1.5-6.8 1-1.4 2.5-2.2 4.6-2.2 2 0 3.5.8 4.5 2.3s1.5 3.7 1.5 6.6zm-8.4 0c0 2.1.2 3.6.5 4.6.4.9 1 1.4 1.9 1.4s1.5-.5 1.8-1.4c.4-.9.6-2.4.6-4.5s-.2-3.6-.6-4.6c-.4-.9-1-1.4-1.8-1.4-.9 0-1.5.5-1.8 1.4s-.6 2.4-.6 4.5z"/></g><g enable-background="new"><path d="m40.2 75.9h-2.1v3.6h-3.6v-3.6h-7.4v-2.5l7.6-11.2h3.4v10.9h2.1zm-5.6-2.8v-2.9c0-.5 0-1.2.1-2.1 0-.9.1-1.5.1-1.6h-.1c-.3.6-.6 1.3-1.1 1.9l-3.2 4.8h4.2z"/><path d="m48.3 68.1c0-.7.2-1.2.5-1.5s.9-.5 1.5-.5c.7 0 1.2.2 1.5.5.4.3.5.8.5 1.5 0 .6-.2 1.1-.6 1.5s-.9.5-1.5.5c-.7 0-1.2-.2-1.5-.5s-.4-.9-.4-1.5zm0 9.7c0-.7.2-1.2.5-1.5s.9-.5 1.5-.5c.7 0 1.2.2 1.5.5.4.3.5.8.5 1.5 0 .6-.2 1.1-.5 1.5s-.9.5-1.5.5c-.7 0-1.2-.2-1.5-.5s-.5-.8-.5-1.5z"/><path d="m73.6 75.9h-2.1v3.6h-3.6v-3.6h-7.4v-2.5l7.6-11.2h3.4v10.9h2.1zm-5.7-2.8v-2.9c0-.5 0-1.2.1-2.1 0-.9.1-1.5.1-1.6h-.1c-.3.6-.6 1.3-1.1 1.9l-3.2 4.8h4.2z"/><path d="m81.3 70v-2.6h11.7v2.6zm0 4.6v-2.6h11.7v2.6z"/><path d="m103.1 79.5 6.5-14.2h-8.6v-3.1h12.4v2.3l-6.5 15z"/></g><g enable-background="new"><path d="m8.6 17.9h-3.7v-10-1.6l.1-1.9c-.6.6-1 1-1.2 1.2l-2 1.6-1.8-2.2 5.6-4.4h3z"/><path d="m25.4 9.2c0 3-.5 5.3-1.5 6.7-1 1.5-2.5 2.2-4.6 2.2-2 0-3.5-.7-4.5-2.2s-1.5-3.7-1.5-6.6c0-3.1.5-5.3 1.5-6.8 1-1.4 2.5-2.2 4.6-2.2 2 0 3.5.8 4.5 2.3s1.5 3.7 1.5 6.6zm-8.5 0c0 2.1.2 3.6.6 4.6.4.9 1 1.4 1.9 1.4s1.5-.5 1.8-1.4c.4-.9.6-2.4.6-4.5s-.2-3.6-.6-4.6c-.4-.9-1-1.4-1.8-1.4-.9 0-1.5.5-1.8 1.4-.5.9-.7 2.4-.7 4.5z"/><path d="m33.9 6.4c0-.7.2-1.2.5-1.5s.9-.5 1.5-.5c.7 0 1.2.2 1.5.5.4.3.5.8.5 1.5 0 .6-.2 1.1-.6 1.5s-.9.5-1.5.5c-.7 0-1.2-.2-1.5-.5s-.4-.9-.4-1.5zm0 9.8c0-.7.2-1.2.5-1.5s.9-.5 1.5-.5c.7 0 1.2.2 1.5.5.4.3.5.8.5 1.5 0 .6-.2 1.1-.5 1.5s-.9.5-1.5.5c-.7 0-1.2-.2-1.5-.5s-.5-.9-.5-1.5z"/><path d="m55.7 17.9h-3.7v-10-1.6l.1-1.8c-.6.6-1 1-1.3 1.2l-2 1.6-1.6-2.3 5.6-4.4h3z"/><path d="m72.5 9.2c0 3-.5 5.3-1.5 6.7-1 1.5-2.5 2.2-4.6 2.2-2 0-3.5-.7-4.5-2.2s-1.5-3.7-1.5-6.6c0-3.1.5-5.3 1.5-6.8 1-1.4 2.5-2.2 4.6-2.2 2 0 3.5.8 4.5 2.3s1.5 3.7 1.5 6.6zm-8.4 0c0 2.1.2 3.6.6 4.6.4.9 1 1.4 1.9 1.4s1.5-.5 1.8-1.4.6-2.4.6-4.5-.2-3.6-.6-4.6-1-1.4-1.8-1.4c-.9 0-1.5.5-1.8 1.4-.5.9-.7 2.4-.7 4.5z"/><path d="m80.7 8.3v-2.6h11.8v2.6zm0 4.6v-2.6h11.8v2.6z"/><path d="m109.8 17.9h-3.7v-10-1.6l.1-1.8c-.6.6-1 1-1.3 1.2l-2 1.6-1.6-2.3 5.6-4.4h3z"/><path d="m126.6 7.9c0 3.4-.7 6-2.2 7.6-1.4 1.7-3.6 2.5-6.5 2.5-1 0-1.8-.1-2.3-.2v-2.8c.7.2 1.4.2 2.1.2 1.2 0 2.2-.2 3-.5.8-.4 1.4-.9 1.8-1.7s.7-1.8.7-3.2h-.1c-.5.7-1 1.3-1.6 1.6s-1.3.4-2.2.4c-1.5 0-2.7-.5-3.6-1.4-.9-1-1.3-2.3-1.3-4 0-1.9.5-3.3 1.6-4.4s2.5-1.6 4.3-1.6c1.3 0 2.4.3 3.4.9s1.7 1.5 2.2 2.6.7 2.5.7 4zm-6.2-4.6c-.8 0-1.3.3-1.8.8-.4.5-.6 1.3-.6 2.2 0 .8.2 1.5.6 2s1 .7 1.8.7c.7 0 1.4-.2 1.9-.7s.8-1 .8-1.7c0-.9-.2-1.7-.7-2.4-.6-.6-1.2-.9-2-.9z"/></g><g enable-background="new"><path d="m40.9 34.5c0 1.1-.3 2-1 2.8s-1.6 1.3-2.8 1.6v.1c1.4.2 2.5.6 3.2 1.3s1.1 1.6 1.1 2.7c0 1.7-.6 3-1.8 3.9s-2.9 1.4-5.2 1.4c-1.9 0-3.5-.3-5-.9v-3.1c.7.3 1.4.6 2.2.8s1.6.3 2.4.3c1.2 0 2.1-.2 2.7-.6s.9-1.1.9-2c0-.8-.3-1.4-1-1.7s-1.7-.5-3.2-.5h-1.3v-2.8h1.3c1.3 0 2.3-.2 2.9-.5.6-.4.9-1 .9-1.8 0-1.3-.8-2-2.5-2-.6 0-1.1.1-1.7.3s-1.2.5-2 1l-1.7-2.5c1.6-1.1 3.5-1.7 5.6-1.7 1.8 0 3.2.4 4.2 1.1 1.3.5 1.8 1.5 1.8 2.8z"/><path d="m50 36.4c0-.7.2-1.2.5-1.5s.9-.5 1.5-.5c.7 0 1.2.2 1.5.5.4.3.5.8.5 1.5 0 .6-.2 1.1-.6 1.5s-.9.5-1.5.5c-.7 0-1.2-.2-1.5-.5s-.4-.8-.4-1.5zm0 9.8c0-.7.2-1.2.5-1.5s.9-.5 1.5-.5c.7 0 1.2.2 1.5.5.4.3.5.8.5 1.5 0 .6-.2 1.1-.5 1.5s-.9.5-1.5.5c-.7 0-1.2-.2-1.5-.5s-.5-.9-.5-1.5z"/><path d="m65.1 42.2v-.9c0-.8.2-1.4.5-2s.9-1.2 1.8-1.8c.8-.6 1.4-1.1 1.6-1.4.3-.4.4-.8.4-1.2 0-.5-.2-.9-.6-1.2s-.9-.4-1.6-.4c-1.2 0-2.5.4-4 1.2l-1.3-2.6c1.8-1 3.6-1.5 5.6-1.5 1.6 0 2.9.4 3.9 1.2s1.4 1.8 1.4 3.1c0 .9-.2 1.6-.6 2.2s-1.1 1.3-2.2 2.1c-.8.6-1.2 1-1.4 1.3s-.3.7-.3 1.1v.7h-3.2zm-.4 4c0-.7.2-1.2.5-1.5.4-.3.9-.5 1.5-.5.7 0 1.2.2 1.5.5.4.3.5.8.5 1.5 0 .6-.2 1.1-.5 1.5-.4.4-.9.5-1.5.5-.7 0-1.2-.2-1.5-.5s-.5-.9-.5-1.5z"/><path d="m80.7 38.4v-2.6h11.8v2.6zm0 4.6v-2.6h11.8v2.6z"/><path d="m109.8 47.9h-3.7v-10-1.6l.1-1.8c-.6.6-1 1-1.3 1.2l-2 1.6-1.8-2.2 5.6-4.4h3v17.2z"/><path d="m126.6 39.3c0 3-.5 5.3-1.5 6.7-1 1.5-2.5 2.2-4.6 2.2-2 0-3.5-.7-4.5-2.2s-1.5-3.7-1.5-6.6c0-3.1.5-5.3 1.5-6.8 1-1.4 2.5-2.2 4.6-2.2 2 0 3.5.8 4.5 2.3s1.5 3.6 1.5 6.6zm-8.4 0c0 2.1.2 3.6.5 4.6.4.9 1 1.4 1.9 1.4s1.5-.5 1.8-1.4c.4-.9.6-2.4.6-4.5s-.2-3.6-.6-4.6c-.4-.9-1-1.4-1.8-1.4-.9 0-1.5.5-1.8 1.4s-.6 2.3-.6 4.5z"/></g></g></svg>