<svg enable-background="new 0 0 217.2 150.6" viewBox="0 0 217.2 150.6" xmlns="http://www.w3.org/2000/svg"><path d="m68.3 71-62-62.1" fill="none" stroke="#c62828" stroke-width="10"/><path d="m6.3 71 62-62.1" fill="none" stroke="#c62828" stroke-width="10"/><path d="m137.7 114.7v-.7c0-.9.1-1.6.4-2.2s.8-1.2 1.5-1.8c1-.9 1.7-1.6 2-2s.4-1 .4-1.6c0-.8-.3-1.4-.8-1.8s-1.2-.6-2.2-.6c-.6 0-1.2.1-1.8.2s-1.2.4-2 .8l-.7-1.6c1.5-.8 3-1.1 4.6-1.1 1.5 0 2.6.4 3.4 1.1s1.2 1.7 1.2 3.1c0 .6-.1 1.1-.2 1.5s-.4.8-.7 1.2-.9 1-1.9 1.8c-.8.7-1.3 1.2-1.5 1.7-.3.4-.4 1-.4 1.8v.4h-1.3zm-.6 3.4c0-1 .5-1.6 1.4-1.6.4 0 .8.1 1 .4s.4.7.4 1.2-.1.9-.4 1.1c-.2.3-.6.4-1 .4s-.7-.1-1-.4c-.3-.2-.4-.6-.4-1.1z" fill="#c62828"/><path d="m149.7 71 62.1-62.1" fill="none" stroke="#c62828" stroke-width="10"/><path d="m211.8 71-62.1-62.1" fill="none" stroke="#c62828" stroke-width="10"/><path d="m139.4 142.3-62.1-62.1" fill="none" stroke="#c62828" stroke-width="10"/><path d="m77.3 142.3 62.1-62.1" fill="none" stroke="#c62828" stroke-width="10"/><g fill="#c62828"><path d="m12.5 44.1h-2.5v3.9h-1.8v-3.9h-8.2v-1.7l8-11.4h2v11.3h2.5zm-4.3-1.7v-5.6c0-1.1 0-2.3.1-3.7h-.1c-.4.7-.7 1.4-1 1.8l-5.3 7.5z"/><g enable-background="new"><path d="m63.1 48h-1.9v-12c0-1 0-1.9.1-2.8-.2.2-.3.3-.5.5s-1.1.9-2.7 2.3l-1-1.3 4.5-3.5h1.6v16.8z"/><path d="m80 35.1c0 1.1-.3 2-.9 2.6-.6.7-1.5 1.1-2.6 1.4v.1c1.4.2 2.4.6 3 1.3.7.7 1 1.6 1 2.7 0 1.6-.6 2.8-1.7 3.7s-2.7 1.3-4.8 1.3c-.9 0-1.7-.1-2.5-.2s-1.5-.4-2.2-.7v-1.8c.7.4 1.5.6 2.3.8s1.6.3 2.3.3c2.9 0 4.4-1.1 4.4-3.4 0-2-1.6-3.1-4.8-3.1h-1.5v-1.7h1.7c1.3 0 2.4-.3 3.1-.9.8-.6 1.2-1.4 1.2-2.4 0-.8-.3-1.5-.8-1.9-.6-.5-1.3-.7-2.3-.7-.7 0-1.4.1-2.1.3s-1.4.6-2.2 1.1l-1-1.3c.7-.5 1.5-1 2.4-1.3s1.9-.5 2.9-.5c1.6 0 2.9.4 3.8 1.1s1.3 1.9 1.3 3.2z"/></g><g enable-background="new"><path d="m32 79.1h-1.9v-12.1c0-1 0-1.9.1-2.8-.2.2-.3.3-.5.5s-1.1.9-2.7 2.3l-1-1.3 4.5-3.5h1.5z"/><path d="m49.6 79.1h-11.1v-1.7l4.4-4.5c1.4-1.4 2.2-2.3 2.7-2.9.4-.6.8-1.2 1-1.7s.3-1.2.3-1.8c0-.9-.3-1.6-.8-2.1s-1.3-.8-2.3-.8c-.7 0-1.4.1-2 .3s-1.3.7-2.1 1.3l-1-1.3c1.6-1.3 3.2-1.9 5.1-1.9 1.6 0 2.8.4 3.7 1.2s1.4 1.9 1.4 3.3c0 1.1-.3 2.1-.9 3.2-.6 1-1.7 2.4-3.4 4l-3.7 3.6v.1h8.7z"/></g><path d="m37 6.7c1.8 0 3.2.4 4.2 1.3s1.5 2.1 1.5 3.6c0 1.7-.6 3.1-1.7 4.1s-2.6 1.5-4.6 1.5c-1.9 0-3.4-.3-4.4-.9v-1.8c.5.3 1.2.6 2 .8s1.6.3 2.4.3c1.4 0 2.4-.3 3.2-1 .8-.6 1.1-1.6 1.1-2.8 0-2.4-1.4-3.5-4.3-3.5-.7 0-1.7.1-2.9.3l-1-.6.6-7.9h8.4v1.8h-6.8l-.4 5.1c.9-.2 1.8-.3 2.7-.3z"/><g enable-background="new"><path d="m103.1 88.3h-1.9v-12c0-1 0-1.9.1-2.8-.2.2-.3.3-.5.5s-1.1.9-2.7 2.3l-1-1.3 4.5-3.5h1.6v16.8z"/><path d="m115.1 71.1c1.5 0 2.8.4 3.7 1.1s1.4 1.7 1.4 3c0 .8-.3 1.6-.8 2.3s-1.3 1.3-2.5 1.9c1.4.7 2.3 1.3 2.9 2.1.6.7.9 1.6.9 2.5 0 1.4-.5 2.5-1.5 3.4-1 .8-2.3 1.3-4 1.3-1.8 0-3.2-.4-4.2-1.2s-1.5-1.9-1.5-3.4c0-1.9 1.2-3.4 3.5-4.5-1.1-.6-1.8-1.2-2.3-1.9s-.7-1.5-.7-2.3c0-1.2.5-2.2 1.4-2.9 1-1 2.2-1.4 3.7-1.4zm-3.6 12.9c0 .9.3 1.6 1 2.2.6.5 1.5.8 2.7.8 1.1 0 2-.3 2.7-.8.6-.5 1-1.3 1-2.2 0-.7-.3-1.4-.9-2s-1.6-1.1-3.1-1.7c-1.1.5-2 1-2.5 1.6-.7.6-.9 1.3-.9 2.1zm3.6-11.3c-1 0-1.7.2-2.3.7-.5.5-.8 1.1-.8 1.8s.2 1.3.7 1.8 1.3 1 2.5 1.5c1.1-.5 1.9-1 2.3-1.5s.7-1.2.7-1.9c0-.8-.3-1.4-.8-1.9-.6-.3-1.3-.5-2.3-.5z"/></g><g enable-background="new"><path d="m72.1 119.3h-1.9v-12c0-1 0-1.9.1-2.8-.2.2-.3.3-.5.5s-1.1.9-2.7 2.3l-1-1.3 4.5-3.5h1.6v16.8z"/><path d="m78.7 112.1c0-3.3.6-5.8 1.9-7.4s3.2-2.5 5.7-2.5c.9 0 1.6.1 2.1.2v1.7c-.6-.2-1.3-.3-2-.3-1.8 0-3.2.6-4.1 1.7-1 1.1-1.5 2.9-1.6 5.3h.1c.8-1.3 2.2-2 4-2 1.5 0 2.7.5 3.6 1.4s1.3 2.2 1.3 3.7c0 1.8-.5 3.1-1.4 4.1-1 1-2.3 1.5-3.9 1.5-1.7 0-3.1-.7-4.2-2-1-1.2-1.5-3.1-1.5-5.4zm5.6 5.8c1.1 0 1.9-.3 2.5-1s.9-1.7.9-3c0-1.1-.3-2-.8-2.6s-1.4-1-2.5-1c-.7 0-1.3.1-1.9.4s-1 .7-1.4 1.2c-.3.5-.5 1-.5 1.6 0 .8.2 1.5.5 2.2s.7 1.2 1.3 1.6 1.2.6 1.9.6z"/></g><path d="m188.6 13.1h-2.5v3.9h-1.8v-3.9h-8.2v-1.7l8-11.4h2v11.3h2.5zm-4.3-1.8v-5.6c0-1.1 0-2.3.1-3.7h-.1c-.4.7-.7 1.4-1 1.8l-5.3 7.5z"/><g enable-background="new"><path d="m103.1 150.4h-1.9v-12c0-1 0-1.9.1-2.8-.2.2-.3.3-.5.5s-1.1.9-2.7 2.3l-1-1.3 4.5-3.5h1.6v16.8z"/><path d="m115.1 133.2c1.5 0 2.8.4 3.7 1.1s1.4 1.7 1.4 3c0 .8-.3 1.6-.8 2.3s-1.3 1.3-2.5 1.9c1.4.7 2.3 1.3 2.9 2.1.6.7.9 1.6.9 2.5 0 1.4-.5 2.5-1.5 3.4s-2.3 1.3-4 1.3c-1.8 0-3.2-.4-4.2-1.2s-1.5-1.9-1.5-3.4c0-1.9 1.2-3.4 3.5-4.5-1.1-.6-1.8-1.2-2.3-1.9s-.7-1.5-.7-2.3c0-1.2.5-2.2 1.4-2.9 1-1 2.2-1.4 3.7-1.4zm-3.6 12.9c0 .9.3 1.6 1 2.2.6.5 1.5.8 2.7.8 1.1 0 2-.3 2.7-.8s1-1.3 1-2.2c0-.7-.3-1.4-.9-2s-1.6-1.1-3.1-1.7c-1.1.5-2 1-2.5 1.6-.7.5-.9 1.3-.9 2.1zm3.6-11.3c-1 0-1.7.2-2.3.7-.5.5-.8 1.1-.8 1.8s.2 1.3.7 1.8 1.3 1 2.5 1.5c1.1-.5 1.9-1 2.3-1.5s.7-1.2.7-1.9c0-.8-.3-1.4-.8-1.9-.6-.3-1.3-.5-2.3-.5z"/></g><path d="m216.7 34.4c0 1.1-.3 2-.9 2.6-.6.7-1.5 1.1-2.6 1.4v.1c1.4.2 2.4.6 3 1.3.7.7 1 1.6 1 2.7 0 1.6-.6 2.8-1.7 3.7s-2.7 1.3-4.8 1.3c-.9 0-1.7-.1-2.5-.2s-1.5-.4-2.2-.7v-1.8c.7.4 1.5.6 2.3.8s1.6.3 2.3.3c2.9 0 4.4-1.1 4.4-3.4 0-2-1.6-3.1-4.8-3.1h-1.7v-1.7h1.7c1.3 0 2.4-.3 3.1-.9s1.2-1.4 1.2-2.4c0-.8-.3-1.5-.8-1.9s-1.3-.7-2.3-.7c-.7 0-1.4.1-2.1.3s-1.4.6-2.2 1.1l-1-1.3c.7-.5 1.5-1 2.4-1.3s1.9-.5 2.9-.5c1.6 0 2.9.4 3.8 1.1 1 .8 1.5 1.9 1.5 3.2z"/><g enable-background="new"><path d="m175.5 79.1h-1.9v-12.1c0-1 0-1.9.1-2.8-.2.2-.3.3-.5.5s-1.1.9-2.7 2.3l-1-1.3 4.5-3.5h1.6v16.9z"/><path d="m193.8 75.2h-2.5v3.9h-1.8v-3.9h-8.2v-1.7l8-11.4h2v11.3h2.5zm-4.3-1.8v-5.6c0-1.1 0-2.3.1-3.7h-.1c-.4.7-.7 1.4-1 1.8l-5.3 7.5z"/></g><g enable-background="new"><path d="m144.4 48.8h-1.9v-12c0-1 0-1.9.1-2.8-.2.2-.3.3-.5.5s-1.1.9-2.7 2.3l-1-1.3 4.5-3.5h1.6v16.8z"/><path d="m156.1 38.4c1.8 0 3.2.4 4.2 1.3s1.5 2.1 1.5 3.6c0 1.7-.6 3.1-1.7 4.1s-2.6 1.5-4.6 1.5c-1.9 0-3.4-.3-4.4-.9v-1.8c.5.3 1.2.6 2 .8s1.6.3 2.4.3c1.4 0 2.4-.3 3.2-1 .8-.6 1.1-1.6 1.1-2.8 0-2.4-1.4-3.5-4.3-3.5-.7 0-1.7.1-2.9.3l-1-.6.6-7.9h8.4v1.8h-6.8l-.4 5.1c1-.2 1.9-.3 2.7-.3z"/></g></g></svg>