<svg enable-background="new 0 0 276.4 286.8" viewBox="0 0 276.4 286.8" xmlns="http://www.w3.org/2000/svg"><path d="m21.5 117.6 113.2-86.5 113.2 86.5-43.2 139.9h-139.9z" fill="none" stroke="#c62828" stroke-width="10"/><g fill="#c62828"><path d="m5.1 107.9c1.9 0 3.3.5 4.4 1.4s1.6 2.2 1.6 3.8c0 1.8-.6 3.3-1.7 4.3-1.2 1-2.8 1.6-4.8 1.6s-3.5-.3-4.5-1v-2c.6.4 1.3.6 2.1.8s1.7.3 2.5.3c1.4 0 2.5-.3 3.3-1s1.2-1.6 1.2-2.9c0-2.5-1.5-3.7-4.5-3.7-.8 0-1.8.1-3.1.3l-1-.7.7-8.2h8.7v1.8h-7l-.4 5.3c.7 0 1.6-.1 2.5-.1z"/><g enable-background="new"><path d="m70.1 185.1h-2.6v4h-1.9v-4h-8.6v-1.7l8.4-11.9h2.1v11.8h2.6zm-4.5-1.8v-5.8c0-1.1 0-2.4.1-3.9h-.1c-.4.8-.7 1.4-1.1 1.9l-5.5 7.8z"/><path d="m74.1 189.1 7.3-15.8h-9.6v-1.8h11.7v1.6l-7.2 16z"/></g><g enable-background="new"><path d="m90 101.9h-11.5v-1.7l4.6-4.7c1.4-1.4 2.3-2.4 2.8-3.1.4-.6.8-1.2 1-1.8s.3-1.2.3-1.9c0-.9-.3-1.7-.9-2.2-.5-.5-1.3-.7-2.3-.7-.7 0-1.4.1-2.1.4s-1.4.7-2.2 1.3l-1.1-1.4c1.6-1.3 3.4-2 5.3-2 1.7 0 2.9.4 3.9 1.3.9.8 1.4 2 1.4 3.4 0 1.1-.3 2.2-.9 3.3s-1.8 2.5-3.5 4.1l-3.8 3.8v.1h9z"/><path d="m104.1 91.8c0 6.9-2.7 10.3-8 10.3-.9 0-1.7-.1-2.2-.2v-1.7c.6.2 1.4.3 2.2.3 1.9 0 3.4-.6 4.4-1.8s1.5-3 1.6-5.5h-.1c-.4.7-1 1.2-1.8 1.5-.7.3-1.6.5-2.5.5-1.6 0-2.8-.5-3.7-1.4s-1.4-2.2-1.4-3.9c0-1.8.5-3.3 1.5-4.3 1-1.1 2.4-1.6 4-1.6 1.2 0 2.2.3 3.1.9s1.6 1.5 2.1 2.7c.6 1.2.8 2.6.8 4.2zm-5.9-6c-1.1 0-2 .4-2.7 1.1-.6.7-.9 1.8-.9 3.1 0 1.2.3 2.1.9 2.7.6.7 1.5 1 2.6 1 .7 0 1.4-.1 2-.4s1.1-.7 1.5-1.2.5-1.1.5-1.6c0-.8-.2-1.6-.5-2.3s-.8-1.3-1.4-1.7c-.5-.5-1.2-.7-2-.7z"/></g><path d="m141.3 13.6h-2.6v4h-1.9v-4h-8.6v-1.7l8.4-11.9h2.1v11.8h2.6zm-4.5-1.8v-5.8c0-1.1 0-2.4.1-3.9h-.1c-.4.8-.7 1.4-1.1 1.9l-5.5 7.8z"/><path d="m267.9 100.8c1.6 0 2.9.4 3.8 1.1s1.4 1.8 1.4 3.1c0 .9-.3 1.7-.8 2.4s-1.4 1.4-2.6 1.9c1.4.7 2.4 1.4 3 2.1.6.8.9 1.6.9 2.6 0 1.5-.5 2.6-1.5 3.5s-2.4 1.3-4.2 1.3c-1.9 0-3.3-.4-4.3-1.2s-1.5-2-1.5-3.5c0-2 1.2-3.6 3.7-4.7-1.1-.6-1.9-1.3-2.4-2s-.7-1.5-.7-2.4c0-1.3.5-2.3 1.4-3.1 1-.7 2.2-1.1 3.8-1.1zm-3.8 13.4c0 1 .3 1.7 1 2.3s1.6.8 2.8.8 2.1-.3 2.8-.8 1-1.3 1-2.3c0-.8-.3-1.5-.9-2.1s-1.7-1.2-3.3-1.8c-1.2.5-2.1 1.1-2.6 1.7s-.8 1.4-.8 2.2zm3.8-11.8c-1 0-1.8.2-2.4.7s-.9 1.1-.9 1.9c0 .7.2 1.4.7 1.9s1.3 1.1 2.6 1.6c1.1-.5 2-1 2.4-1.6.5-.6.7-1.2.7-1.9 0-.8-.3-1.5-.9-1.9-.4-.4-1.2-.7-2.2-.7z"/><path d="m53 281.6v-.6c0-.9.1-1.7.4-2.3s.8-1.2 1.6-1.9c1.1-.9 1.8-1.6 2.1-2.1s.4-1 .4-1.7c0-.8-.3-1.5-.8-1.9s-1.3-.7-2.3-.7c-.6 0-1.3.1-1.9.2s-1.3.4-2.1.8l-.7-1.6c1.5-.8 3.1-1.2 4.8-1.2 1.5 0 2.7.4 3.6 1.1s1.3 1.8 1.3 3.2c0 .6-.1 1.1-.2 1.5-.2.4-.4.9-.7 1.3s-1 1-2 1.9c-.8.7-1.3 1.3-1.6 1.7-.3.5-.4 1.1-.4 1.8v.4h-1.5zm-.6 3.6c0-1.1.5-1.6 1.4-1.6.5 0 .8.1 1.1.4s.4.7.4 1.2-.1.9-.4 1.2-.6.4-1.1.4c-.4 0-.8-.1-1-.4-.3-.2-.4-.6-.4-1.2z"/><path d="m218.8 271c0 1.1-.3 2-.9 2.8s-1.5 1.2-2.7 1.4v.1c1.4.2 2.5.6 3.1 1.3.7.7 1 1.7 1 2.8 0 1.7-.6 3-1.7 3.9-1.2.9-2.8 1.4-5 1.4-.9 0-1.8-.1-2.6-.2s-1.5-.4-2.3-.7v-1.9c.8.4 1.6.7 2.4.9s1.7.3 2.4.3c3 0 4.6-1.2 4.6-3.6 0-2.1-1.7-3.2-5-3.2h-1.7v-1.7h1.8c1.4 0 2.5-.3 3.3-.9s1.2-1.4 1.2-2.5c0-.9-.3-1.5-.9-2s-1.4-.7-2.4-.7c-.8 0-1.5.1-2.2.3s-1.5.6-2.3 1.2l-1-1.3c.7-.6 1.6-1 2.5-1.3s1.9-.5 3-.5c1.7 0 3 .4 4 1.2.9.4 1.4 1.5 1.4 2.9z"/><g enable-background="new"><path d="m134.4 237.5c0 1.1-.3 2-.9 2.8-.6.7-1.5 1.2-2.7 1.4v.1c1.4.2 2.5.6 3.1 1.3.7.7 1 1.7 1 2.8 0 1.7-.6 3-1.7 3.9-1.2.9-2.8 1.4-5 1.4-.9 0-1.8-.1-2.6-.2s-1.5-.4-2.3-.7v-1.9c.8.4 1.6.7 2.4.9.9.2 1.7.3 2.4.3 3 0 4.6-1.2 4.6-3.6 0-2.1-1.7-3.2-5-3.2h-1.7v-1.8h1.8c1.4 0 2.5-.3 3.3-.9s1.2-1.4 1.2-2.5c0-.9-.3-1.5-.9-2s-1.4-.7-2.4-.7c-.8 0-1.5.1-2.2.3s-1.5.6-2.3 1.2l-1-1.3c.7-.6 1.6-1 2.5-1.3s1.9-.5 3-.5c1.7 0 3 .4 4 1.2s1.4 1.6 1.4 3z"/><path d="m145 250.9h-2v-12.5c0-1 0-2 .1-3-.2.2-.4.3-.6.5s-1.2 1-2.9 2.3l-1.1-1.4 4.7-3.6h1.7v17.7z"/></g><g enable-background="new"><path d="m202.9 175.7c0 1.1-.3 2-.9 2.8-.6.7-1.5 1.2-2.7 1.4v.1c1.4.2 2.5.6 3.1 1.3.7.7 1 1.7 1 2.8 0 1.7-.6 3-1.7 3.9-1.2.9-2.8 1.4-5 1.4-.9 0-1.8-.1-2.6-.2s-1.5-.4-2.3-.7v-1.9c.8.4 1.6.7 2.4.9.9.2 1.7.3 2.4.3 3 0 4.6-1.2 4.6-3.6 0-2.1-1.7-3.2-5-3.2h-1.7v-1.7h1.8c1.4 0 2.5-.3 3.3-.9s1.2-1.4 1.2-2.5c0-.9-.3-1.5-.9-2s-1.4-.7-2.4-.7c-.8 0-1.5.1-2.2.3s-1.5.6-2.3 1.2l-1-1.3c.7-.6 1.6-1 2.5-1.3s1.9-.5 3-.5c1.7 0 3 .4 4 1.2.9.5 1.4 1.5 1.4 2.9z"/><path d="m211.6 178.4c1.9 0 3.3.5 4.4 1.4s1.6 2.2 1.6 3.8c0 1.8-.6 3.3-1.7 4.3-1.2 1-2.8 1.6-4.8 1.6s-3.5-.3-4.5-1v-1.9c.6.4 1.3.6 2.1.8s1.7.3 2.5.3c1.4 0 2.5-.3 3.3-1s1.2-1.6 1.2-2.9c0-2.5-1.5-3.7-4.5-3.7-.8 0-1.8.1-3.1.3l-1-.7.7-8.2h8.8v1.8h-7l-.4 5.3c.6-.1 1.5-.2 2.4-.2z"/></g><g enable-background="new"><path d="m176.2 97.9h-2.6v4h-1.9v-4h-8.6v-1.7l8.4-11.9h2.1v11.7h2.6zm-4.5-1.9v-5.8c0-1.1 0-2.4.1-3.9h-.1c-.4.8-.7 1.4-1.1 1.9l-5.5 7.8z"/><path d="m190.3 97.9h-2.6v4h-1.9v-4h-8.6v-1.7l8.4-11.9h2.1v11.7h2.6zm-4.5-1.9v-5.8c0-1.1 0-2.4.1-3.9h-.1c-.4.8-.7 1.4-1.1 1.9l-5.5 7.8z"/></g></g></svg>