<svg enable-background="new 0 0 238.2 262.7" viewBox="0 0 238.2 262.7" xmlns="http://www.w3.org/2000/svg"><path d="m215.1 41.9-191.7 191.8" fill="none" stroke="#c62828" stroke-width="10"/><path d="m23.4 41.9 191.7 191.7" fill="none" stroke="#c62828" stroke-width="10"/><g fill="#c62828"><path d="m46 166.8h-46v-6.8l18.4-18.5c5.6-5.7 9.3-9.7 11.1-12.2 1.8-2.4 3.1-4.8 4-7.1s1.3-4.8 1.3-7.4c0-3.7-1.1-6.7-3.4-8.9s-5.4-3.3-9.4-3.3c-2.9 0-5.7.5-8.3 1.4-2.6 1-5.5 2.7-8.7 5.2l-4.2-5.4c6.4-5.4 13.5-8 21.1-8 6.6 0 11.7 1.7 15.5 5 3.7 3.4 5.6 7.9 5.6 13.6 0 4.4-1.2 8.8-3.7 13.2-2.5 4.3-7.1 9.8-14 16.5l-15.3 15v.4h36z"/><path d="m145.1 246.6h-10.4v16.1h-7.6v-16.1h-34v-6.9l33.2-47.3h8.4v47h10.4zm-17.9-7.2v-23.3c0-4.6.2-9.7.5-15.5h-.4c-1.5 3.1-3 5.6-4.3 7.6l-21.9 31.1h26.1z"/><path d="m192.5 136.9c0-13.7 2.7-24 8-30.8s13.2-10.2 23.7-10.2c3.6 0 6.4.3 8.5.9v6.8c-2.5-.8-5.3-1.2-8.4-1.2-7.5 0-13.2 2.3-17.2 7s-6.1 12-6.5 22h.6c3.5-5.5 9.1-8.2 16.7-8.2 6.3 0 11.2 1.9 14.9 5.7 3.6 3.8 5.4 8.9 5.4 15.5 0 7.3-2 13-6 17.2s-9.3 6.2-16.1 6.2c-7.2 0-13-2.7-17.2-8.2-4.2-5.4-6.4-13-6.4-22.7zm23.5 24.1c4.5 0 8-1.4 10.6-4.3 2.5-2.9 3.8-7 3.8-12.4 0-4.6-1.2-8.3-3.5-10.9s-5.8-4-10.4-4c-2.9 0-5.5.6-7.9 1.8s-4.3 2.8-5.7 4.9-2.1 4.2-2.1 6.5c0 3.3.6 6.3 1.9 9.2 1.3 2.8 3.1 5.1 5.4 6.7 2.3 1.7 4.9 2.5 7.9 2.5z"/><path d="m118.4 51.7v-2.6c0-3.7.6-6.8 1.7-9.2s3.3-5 6.4-7.6c4.3-3.7 7.1-6.4 8.2-8.3 1.1-1.8 1.7-4.1 1.7-6.7 0-3.3-1-5.8-3.1-7.5-2.1-1.8-5.1-2.7-9-2.7-2.5 0-5 .3-7.4.9s-5.1 1.7-8.2 3.2l-2.8-6.5c6-3.2 12.3-4.7 18.9-4.7 6.1 0 10.8 1.5 14.2 4.5s5.1 7.2 5.1 12.7c0 2.3-.3 4.4-.9 6.1-.6 1.8-1.5 3.4-2.8 5-1.2 1.6-3.8 4.1-7.8 7.6-3.2 2.7-5.4 5-6.4 6.8s-1.6 4.2-1.6 7.3v1.6h-6.2zm-2.3 14.2c0-4.3 1.9-6.5 5.7-6.5 1.8 0 3.3.6 4.3 1.7s1.5 2.7 1.5 4.8c0 2-.5 3.6-1.5 4.8-1 1.1-2.4 1.7-4.3 1.7-1.7 0-3-.5-4.1-1.5-1.1-1.1-1.6-2.7-1.6-5z"/></g></svg>