<svg enable-background="new 0 0 330.5 354.4" viewBox="0 0 330.5 354.4" xmlns="http://www.w3.org/2000/svg"><path d="m163.1 80.6-86.5 48.5v97.1l86.5 48.5 86.5-48.5v-97.1z" fill="none" stroke="#c62828" stroke-width="10"/><path d="m249.6 129.1 78.2-42.7" fill="#bb3f37"/><path d="m249.6 129.1 78.2-42.7" fill="none" stroke="#c62828" stroke-width="10"/><path d="m249.6 225.3 78.2 42.7" fill="#bb3f37"/><path d="m249.6 225.3 78.2 42.7" fill="none" stroke="#c62828" stroke-width="10"/><path d="m81 225.3-78.1 42.7" fill="#bb3f37"/><path d="m81 225.3-78.1 42.7" fill="none" stroke="#c62828" stroke-width="10"/><path d="m2.9 86.4 78.1 42.7" fill="#bb3f37"/><path d="m2.9 86.4 78.1 42.7" fill="none" stroke="#c62828" stroke-width="10"/><path d="m71.6 110.6 10.1-21.7h-13.3v-2.5h16.1v2.2l-9.9 22.1h-3z" fill="#c62828"/><path d="m163.1 0v82.5" fill="none" stroke="#c62828" stroke-width="10"/><path d="m163.1 271.9v82.5" fill="none" stroke="#c62828" stroke-width="10"/><g fill="#c62828"><path d="m258.6 113.5h-3.6v5.6h-2.6v-5.6h-11.8v-2.4l11.5-16.4h2.9v16.3h3.6zm-6.2-2.5v-8.1c0-1.6.1-3.4.2-5.4h-.1c-.5 1.1-1 1.9-1.5 2.6l-7.6 10.8h9z"/><path d="m84.4 272.1h-15.9v-2.4l6.4-6.4c1.9-2 3.2-3.4 3.8-4.2s1.1-1.7 1.4-2.5.5-1.7.5-2.6c0-1.3-.4-2.3-1.2-3.1s-1.9-1.1-3.3-1.1c-1 0-2 .2-2.9.5s-1.9.9-3 1.8l-1.5-1.9c2.2-1.9 4.7-2.8 7.3-2.8 2.3 0 4.1.6 5.4 1.8s1.9 2.7 1.9 4.7c0 1.5-.4 3.1-1.3 4.6s-2.5 3.4-4.8 5.7l-5.3 5.2v.1h12.5z"/><path d="m241.8 261.4c0-4.8.9-8.3 2.8-10.7s4.6-3.5 8.2-3.5c1.3 0 2.2.1 3 .3v2.4c-.9-.3-1.8-.4-2.9-.4-2.6 0-4.6.8-6 2.4s-2.1 4.2-2.3 7.6h.2c1.2-1.9 3.1-2.9 5.8-2.9 2.2 0 3.9.7 5.2 2s1.9 3.1 1.9 5.4c0 2.5-.7 4.5-2.1 5.9s-3.2 2.2-5.6 2.2c-2.5 0-4.5-.9-6-2.8s-2.2-4.5-2.2-7.9zm8.2 8.4c1.6 0 2.8-.5 3.7-1.5s1.3-2.4 1.3-4.3c0-1.6-.4-2.9-1.2-3.8s-2-1.4-3.6-1.4c-1 0-1.9.2-2.7.6s-1.5 1-2 1.7-.7 1.5-.7 2.2c0 1.1.2 2.2.7 3.2s1.1 1.8 1.9 2.3 1.5 1 2.6 1z"/><path d="m269 143c2.2 0 4 .5 5.3 1.5s1.9 2.5 1.9 4.3c0 1.2-.4 2.3-1.1 3.3s-1.9 1.9-3.6 2.7c2 .9 3.4 1.9 4.2 3 .8 1 1.2 2.2 1.2 3.6 0 2-.7 3.6-2.1 4.8s-3.3 1.8-5.8 1.8c-2.6 0-4.6-.6-6-1.7s-2.1-2.7-2.1-4.8c0-2.8 1.7-4.9 5.1-6.5-1.5-.9-2.6-1.8-3.3-2.8s-1-2.1-1-3.4c0-1.8.6-3.2 1.9-4.2s3.2-1.6 5.4-1.6zm-5.3 18.5c0 1.3.5 2.4 1.4 3.1s2.2 1.1 3.9 1.1c1.6 0 2.9-.4 3.8-1.2s1.4-1.8 1.4-3.2c0-1.1-.4-2-1.3-2.9-.9-.8-2.4-1.6-4.5-2.4-1.6.7-2.8 1.5-3.6 2.3s-1.1 2-1.1 3.2zm5.2-16.2c-1.4 0-2.5.3-3.3 1s-1.2 1.5-1.2 2.7c0 1 .3 1.9 1 2.6s1.9 1.5 3.6 2.2c1.6-.7 2.7-1.4 3.4-2.1.7-.8 1-1.7 1-2.7 0-1.1-.4-2-1.2-2.7s-1.8-1-3.3-1z"/><path d="m276.9 216.2h-15.9v-2.4l6.4-6.4c1.9-2 3.2-3.4 3.8-4.2s1.1-1.7 1.4-2.5.5-1.7.5-2.6c0-1.3-.4-2.3-1.2-3.1s-1.9-1.1-3.3-1.1c-1 0-2 .2-2.9.5s-1.9.9-3 1.8l-1.5-1.9c2.2-1.9 4.7-2.8 7.3-2.8 2.3 0 4.1.6 5.4 1.8s1.9 2.7 1.9 4.7c0 1.5-.4 3.1-1.3 4.6s-2.5 3.4-4.8 5.7l-5.3 5.2v.1h12.5z"/><path d="m191.2 78.8h-15.9v-2.4l6.4-6.4c1.9-2 3.2-3.4 3.8-4.2s1.1-1.7 1.4-2.5.5-1.7.5-2.6c0-1.3-.4-2.3-1.2-3.1s-1.9-1.1-3.3-1.1c-1 0-2 .2-2.9.5s-1.9.9-3 1.8l-1.5-1.9c2.2-1.9 4.7-2.8 7.3-2.8 2.3 0 4.1.6 5.4 1.8s1.9 2.7 1.9 4.7c0 1.5-.4 3.1-1.3 4.6s-2.5 3.4-4.8 5.7l-5.3 5.2v.1h12.5z"/><path d="m150.7 73.2h-3.6v5.6h-2.6v-5.6h-11.8v-2.4l11.5-16.4h2.9v16.3h3.6zm-6.2-2.5v-8.1c0-1.6.1-3.4.2-5.4h-.1c-.5 1.1-1 1.9-1.5 2.6l-7.6 10.8h9z"/><path d="m148.7 294.7c0 1.5-.4 2.8-1.3 3.8s-2.1 1.6-3.7 2v.1c1.9.2 3.4.9 4.3 1.9s1.4 2.3 1.4 3.9c0 2.3-.8 4.1-2.4 5.3s-3.9 1.9-6.8 1.9c-1.3 0-2.5-.1-3.5-.3-1.1-.2-2.1-.5-3.1-1v-2.6c1.1.5 2.2.9 3.4 1.2s2.3.4 3.4.4c4.2 0 6.3-1.6 6.3-4.9 0-2.9-2.3-4.4-6.9-4.4h-2.4v-2.4h2.4c1.9 0 3.4-.4 4.5-1.3 1.1-.8 1.7-2 1.7-3.5 0-1.2-.4-2.1-1.2-2.8s-1.9-1-3.3-1c-1.1 0-2.1.1-3 .4s-2 .8-3.2 1.6l-1.4-1.9c1-.8 2.1-1.4 3.4-1.9 1.3-.4 2.7-.7 4.1-.7 2.4 0 4.2.5 5.5 1.6 1.1 1.3 1.8 2.8 1.8 4.6z"/><path d="m182.9 298.5c2.6 0 4.6.6 6 1.9s2.2 3 2.2 5.2c0 2.5-.8 4.5-2.4 5.9s-3.8 2.1-6.6 2.1c-2.7 0-4.8-.4-6.3-1.3v-2.7c.8.5 1.7.9 2.9 1.2s2.3.4 3.4.4c1.9 0 3.5-.5 4.5-1.4 1.1-.9 1.6-2.2 1.6-4 0-3.4-2.1-5.1-6.2-5.1-1.1 0-2.5.2-4.2.5l-1.4-.9.9-11.4h12.1v2.5h-9.7l-.6 7.3c1.3-.1 2.5-.2 3.8-.2z"/><path d="m65 153.7c0 9.5-3.7 14.2-11 14.2-1.3 0-2.3-.1-3.1-.3v-2.4c.9.3 1.9.4 3 .4 2.7 0 4.7-.8 6-2.5 1.4-1.6 2.1-4.2 2.2-7.6h-.1c-.6.9-1.4 1.6-2.4 2.1s-2.1.7-3.4.7c-2.1 0-3.8-.6-5.1-1.9s-1.9-3.1-1.9-5.4c0-2.5.7-4.5 2.1-6s3.3-2.2 5.6-2.2c1.6 0 3.1.4 4.3 1.3 1.2.8 2.2 2.1 2.8 3.7.7 1.8 1 3.7 1 5.9zm-8.1-8.3c-1.6 0-2.8.5-3.7 1.5s-1.3 2.4-1.3 4.2c0 1.6.4 2.8 1.2 3.8.8.9 2 1.4 3.6 1.4 1 0 1.9-.2 2.8-.6s1.5-1 2-1.7.7-1.4.7-2.2c0-1.2-.2-2.2-.7-3.2s-1.1-1.8-1.9-2.3c-.8-.6-1.7-.9-2.7-.9z"/><path d="m56.7 201.4c2.6 0 4.6.6 6 1.9s2.2 3 2.2 5.2c0 2.5-.8 4.5-2.4 5.9s-3.8 2.1-6.6 2.1c-2.7 0-4.8-.4-6.3-1.3v-2.7c.8.5 1.7.9 2.9 1.2s2.3.4 3.4.4c1.9 0 3.5-.5 4.5-1.4 1.1-.9 1.6-2.2 1.6-4 0-3.4-2.1-5.1-6.2-5.1-1.1 0-2.5.2-4.2.5l-1.4-.9.9-11.4h12.1v2.5h-9.7l-.6 7.3c1.2-.1 2.5-.2 3.8-.2z"/><g enable-background="new"><path d="m122.2 120c2.2 0 4 .5 5.3 1.5s1.9 2.5 1.9 4.3c0 1.2-.4 2.3-1.1 3.3s-1.9 1.9-3.6 2.7c2 .9 3.4 1.9 4.2 3 .8 1 1.2 2.2 1.2 3.6 0 2-.7 3.6-2.1 4.8s-3.3 1.8-5.8 1.8c-2.6 0-4.6-.6-6-1.7s-2.1-2.7-2.1-4.8c0-2.8 1.7-4.9 5.1-6.5-1.5-.9-2.6-1.8-3.3-2.8s-1-2.1-1-3.4c0-1.8.6-3.2 1.9-4.2 1.5-1.1 3.3-1.6 5.4-1.6zm-5.2 18.5c0 1.3.5 2.4 1.4 3.1s2.2 1.1 3.9 1.1c1.6 0 2.9-.4 3.8-1.2s1.4-1.8 1.4-3.2c0-1.1-.4-2-1.3-2.9-.9-.8-2.4-1.6-4.5-2.4-1.6.7-2.8 1.5-3.6 2.3-.7.9-1.1 2-1.1 3.2zm5.2-16.3c-1.4 0-2.5.3-3.3 1s-1.2 1.5-1.2 2.7c0 1 .3 1.9 1 2.6s1.9 1.5 3.6 2.2c1.6-.7 2.7-1.4 3.4-2.1.7-.8 1-1.7 1-2.7 0-1.1-.4-2-1.2-2.7s-1.9-1-3.3-1z"/><path d="m141.2 129.8c2.6 0 4.6.6 6 1.9s2.2 3 2.2 5.2c0 2.5-.8 4.5-2.4 5.9s-3.8 2.1-6.6 2.1c-2.7 0-4.8-.4-6.3-1.3v-2.7c.8.5 1.7.9 2.9 1.2s2.3.4 3.4.4c1.9 0 3.5-.5 4.5-1.4 1.1-.9 1.6-2.2 1.6-4 0-3.4-2.1-5.1-6.2-5.1-1.1 0-2.5.2-4.2.5l-1.4-.9.9-11.4h12.1v2.5h-9.7l-.6 7.3c1.3-.1 2.6-.2 3.8-.2z"/></g><g enable-background="new"><path d="m95.5 175.9c2.6 0 4.6.6 6 1.9s2.2 3 2.2 5.2c0 2.5-.8 4.5-2.4 5.9s-3.8 2.1-6.6 2.1c-2.7 0-4.8-.4-6.3-1.3v-2.7c.8.5 1.7.9 2.9 1.2s2.3.4 3.4.4c1.9 0 3.5-.5 4.5-1.4 1.1-.9 1.6-2.2 1.6-4 0-3.4-2.1-5.1-6.2-5.1-1.1 0-2.5.2-4.2.5l-1.4-.9.9-11.4h12.1v2.5h-9.7l-.6 7.3c1.3-.1 2.5-.2 3.8-.2z"/><path d="m122.4 172.1c0 1.5-.4 2.8-1.3 3.8s-2.1 1.6-3.7 2v.1c1.9.2 3.4.9 4.3 1.9s1.4 2.3 1.4 3.9c0 2.3-.8 4.1-2.4 5.3s-3.9 1.9-6.8 1.9c-1.3 0-2.5-.1-3.5-.3-1.1-.2-2.1-.5-3.1-1v-2.6c1.1.5 2.2.9 3.4 1.2s2.3.4 3.4.4c4.2 0 6.3-1.6 6.3-4.9 0-2.9-2.3-4.4-6.9-4.4h-2.4v-2.4h2.4c1.9 0 3.4-.4 4.5-1.3 1.1-.8 1.7-2 1.7-3.5 0-1.2-.4-2.1-1.2-2.8s-1.9-1-3.3-1c-1.1 0-2.1.1-3 .4s-2 .8-3.2 1.6l-1.4-1.9c1-.8 2.1-1.4 3.4-1.9 1.3-.4 2.7-.7 4.1-.7 2.4 0 4.2.5 5.5 1.6 1.1 1.3 1.8 2.8 1.8 4.6z"/></g><path d="m127.1 234v-.9c0-1.3.2-2.4.6-3.2s1.1-1.7 2.2-2.6c1.5-1.3 2.5-2.2 2.8-2.9.4-.6.6-1.4.6-2.3 0-1.1-.4-2-1.1-2.6s-1.8-.9-3.1-.9c-.9 0-1.7.1-2.6.3s-1.8.6-2.9 1.1l-1-2.2c2.1-1.1 4.3-1.6 6.6-1.6 2.1 0 3.8.5 4.9 1.6 1.2 1 1.8 2.5 1.8 4.4 0 .8-.1 1.5-.3 2.1s-.5 1.2-1 1.7c-.4.5-1.3 1.4-2.7 2.6-1.1 1-1.9 1.7-2.2 2.4-.4.6-.5 1.5-.5 2.5v.5zm-.9 5c0-1.5.7-2.3 2-2.3.6 0 1.1.2 1.5.6.3.4.5.9.5 1.7 0 .7-.2 1.3-.5 1.7-.4.4-.8.6-1.5.6-.6 0-1.1-.2-1.4-.5-.4-.5-.6-1.1-.6-1.8z"/><g enable-background="new"><path d="m188.1 240.7h-2.7v-17.3c0-1.4 0-2.8.1-4.1-.2.2-.5.5-.8.7-.3.3-1.6 1.3-3.9 3.2l-1.5-1.9 6.4-5h2.3v24.4z"/><path d="m212.4 222.2c0 1.5-.4 2.8-1.3 3.8s-2.1 1.6-3.7 2v.1c1.9.2 3.4.9 4.3 1.9s1.4 2.3 1.4 3.9c0 2.3-.8 4.1-2.4 5.3s-3.9 1.9-6.8 1.9c-1.3 0-2.5-.1-3.5-.3s-2.1-.5-3.1-1v-2.6c1.1.5 2.2.9 3.4 1.2s2.3.4 3.4.4c4.2 0 6.3-1.6 6.3-4.9 0-2.9-2.3-4.4-6.9-4.4h-2.5v-2.5h2.4c1.9 0 3.4-.4 4.5-1.3 1.1-.8 1.7-2 1.7-3.5 0-1.2-.4-2.1-1.2-2.8s-1.9-1-3.3-1c-1.1 0-2.1.1-3 .4s-2 .8-3.2 1.6l-1.4-1.9c1-.8 2.1-1.4 3.4-1.9 1.3-.4 2.7-.7 4.1-.7 2.4 0 4.2.5 5.5 1.6 1.2 1.3 1.9 2.8 1.9 4.7z"/></g><g enable-background="new"><path d="m187.4 120c2.2 0 4 .5 5.3 1.5s1.9 2.5 1.9 4.3c0 1.2-.4 2.3-1.1 3.3s-1.9 1.9-3.6 2.7c2 .9 3.4 1.9 4.2 3 .8 1 1.2 2.2 1.2 3.6 0 2-.7 3.6-2.1 4.8s-3.3 1.8-5.8 1.8c-2.6 0-4.6-.6-6-1.7s-2.1-2.7-2.1-4.8c0-2.8 1.7-4.9 5.1-6.5-1.5-.9-2.6-1.8-3.3-2.8s-1-2.1-1-3.4c0-1.8.6-3.2 1.9-4.2s3.3-1.6 5.4-1.6zm-5.2 18.5c0 1.3.5 2.4 1.4 3.1s2.2 1.1 3.9 1.1c1.6 0 2.9-.4 3.8-1.2s1.4-1.8 1.4-3.2c0-1.1-.4-2-1.3-2.9-.9-.8-2.4-1.6-4.5-2.4-1.6.7-2.8 1.5-3.6 2.3s-1.1 2-1.1 3.2zm5.2-16.3c-1.4 0-2.5.3-3.3 1s-1.2 1.5-1.2 2.7c0 1 .3 1.9 1 2.6s1.9 1.5 3.6 2.2c1.6-.7 2.7-1.4 3.4-2.1.7-.8 1-1.7 1-2.7 0-1.1-.4-2-1.2-2.7s-1.9-1-3.3-1z"/><path d="m214.9 132.4c0 4.2-.7 7.3-2 9.4s-3.3 3.1-6.1 3.1c-2.6 0-4.6-1.1-6-3.2s-2-5.2-2-9.3c0-4.2.7-7.4 2-9.4s3.3-3.1 6-3.1c2.6 0 4.6 1.1 6 3.2 1.4 2.2 2.1 5.3 2.1 9.3zm-13.2 0c0 3.5.4 6.1 1.2 7.7s2.2 2.4 4 2.4 3.2-.8 4-2.4 1.2-4.2 1.2-7.7-.4-6-1.2-7.7c-.8-1.6-2.2-2.4-4-2.4s-3.1.8-4 2.4c-.8 1.6-1.2 4.2-1.2 7.7z"/></g><g enable-background="new"><path d="m210.3 175.9c2.6 0 4.6.6 6 1.9s2.2 3 2.2 5.2c0 2.5-.8 4.5-2.4 5.9s-3.8 2.1-6.6 2.1c-2.7 0-4.8-.4-6.3-1.3v-2.7c.8.5 1.7.9 2.9 1.2s2.3.4 3.4.4c1.9 0 3.5-.5 4.5-1.4 1.1-.9 1.6-2.2 1.6-4 0-3.4-2.1-5.1-6.2-5.1-1.1 0-2.5.2-4.2.5l-1.4-.9.9-11.4h12.1v2.5h-9.7l-.6 7.3c1.2-.1 2.5-.2 3.8-.2z"/><path d="m238.1 190.7h-15.9v-2.4l6.4-6.4c1.9-2 3.2-3.4 3.8-4.2s1.1-1.7 1.4-2.5.5-1.7.5-2.6c0-1.3-.4-2.3-1.2-3.1s-1.9-1.1-3.3-1.1c-1 0-2 .2-2.9.5s-1.9.9-3 1.8l-1.5-1.9c2.2-1.9 4.7-2.8 7.3-2.8 2.3 0 4.1.6 5.4 1.8s1.9 2.7 1.9 4.7c0 1.5-.4 3.1-1.3 4.6s-2.5 3.4-4.8 5.7l-5.3 5.2v.1h12.5z"/></g></g></svg>