<svg enable-background="new 0 0 471.4 345.3" viewBox="0 0 471.4 345.3" xmlns="http://www.w3.org/2000/svg"><g fill="none" stroke="#c62828" stroke-width="10"><path d="m270.9 40.7c0 19.2-15.6 34.9-34.8 34.9s-34.9-15.6-34.9-34.9c0-19.2 15.6-34.8 34.8-34.8s34.9 15.6 34.9 34.8z"/><path d="m201.2 40.7-79.7 79.7"/><path d="m156.3 155.3c0 19.2-15.6 34.9-34.8 34.9s-34.8-15.6-34.8-34.9c0-19.2 15.6-34.8 34.8-34.8s34.8 15.6 34.8 34.8z"/><path d="m121.4 190.2 79.7 79.7"/><path d="m121.4 190.2-79.7 79.7"/><path d="m232.7 304.8c0 19.2-15.6 34.8-34.8 34.8s-34.9-15.6-34.9-34.8 15.6-34.8 34.8-34.8 34.9 15.6 34.9 34.8z"/><path d="m76.5 304.8c0 19.2-15.6 34.8-34.8 34.8s-34.9-15.6-34.9-34.8 15.6-34.8 34.8-34.8 34.9 15.6 34.9 34.8z"/><path d="m270.5 40.7 79.7 79.7"/><path d="m315.4 155.3c0 19.2 15.6 34.9 34.9 34.9 19.2 0 34.8-15.6 34.8-34.9 0-19.2-15.6-34.8-34.8-34.8-19.3 0-34.9 15.6-34.9 34.8z"/><path d="m350.3 190.2-79.7 79.7"/><path d="m350.3 190.2 79.7 79.7"/><path d="m239 304.8c0 19.2 15.6 34.8 34.9 34.8 19.2 0 34.8-15.6 34.8-34.8s-15.6-34.8-34.8-34.8c-19.3-.1-34.9 15.6-34.9 34.8z"/><path d="m395.2 304.8c0 19.2 15.6 34.8 34.9 34.8 19.2 0 34.8-15.6 34.8-34.8s-15.6-34.8-34.8-34.8c-19.3-.1-34.9 15.6-34.9 34.8z"/></g><path d="m235.5 36.3c2.1 0 3.8.5 5 1.6s1.8 2.5 1.8 4.3c0 2.1-.7 3.7-2 4.9s-3.2 1.8-5.5 1.8-4-.4-5.2-1.1v-2.2c.6.4 1.4.7 2.4 1 1 .2 1.9.4 2.8.4 1.6 0 2.9-.4 3.8-1.1.9-.8 1.3-1.9 1.3-3.3 0-2.8-1.7-4.2-5.2-4.2-.9 0-2 .1-3.5.4l-1.2-.8.8-9.4h10v2.1h-8l-.5 6c1.1-.3 2.1-.4 3.2-.4z" fill="#c62828"/><g enable-background="new" fill="#c62828"><path d="m348.6 165.2h-13.2v-2l5.3-5.3c1.6-1.6 2.7-2.8 3.2-3.5s.9-1.4 1.2-2c.3-.7.4-1.4.4-2.1 0-1.1-.3-1.9-1-2.6-.7-.6-1.6-.9-2.7-.9-.8 0-1.6.1-2.4.4-.7.3-1.6.8-2.5 1.5l-1.2-1.6c1.9-1.5 3.9-2.3 6.1-2.3 1.9 0 3.4.5 4.4 1.5s1.6 2.3 1.6 3.9c0 1.3-.4 2.5-1.1 3.8-.7 1.2-2.1 2.8-4 4.7l-4.4 4.3v.1h10.3z"/><path d="m364.8 155.1c0 3.5-.5 6.1-1.6 7.8s-2.8 2.6-5 2.6-3.8-.9-4.9-2.6c-1.1-1.8-1.7-4.3-1.7-7.7 0-3.5.5-6.1 1.6-7.8s2.8-2.5 5-2.5 3.8.9 5 2.7 1.6 4.2 1.6 7.5zm-11 0c0 2.9.3 5.1 1 6.4s1.8 2 3.3 2 2.6-.7 3.3-2c.7-1.4 1-3.5 1-6.4s-.3-5-1-6.4c-.7-1.3-1.8-2-3.3-2s-2.6.7-3.3 2c-.6 1.4-1 3.5-1 6.4z"/></g><g enable-background="new" fill="#c62828"><path d="m119.7 165.2h-13.2v-2l5.3-5.3c1.6-1.6 2.7-2.8 3.2-3.5s.9-1.4 1.2-2c.3-.7.4-1.4.4-2.1 0-1.1-.3-1.9-1-2.6-.7-.6-1.6-.9-2.7-.9-.8 0-1.6.1-2.4.4-.7.3-1.6.8-2.5 1.5l-1.2-1.6c1.9-1.5 3.9-2.3 6.1-2.3 1.9 0 3.4.5 4.4 1.5s1.6 2.3 1.6 3.9c0 1.3-.4 2.5-1.1 3.8-.7 1.2-2.1 2.8-4 4.7l-4.4 4.3v.1h10.3z"/><path d="m136 155.1c0 3.5-.5 6.1-1.6 7.8s-2.8 2.6-5 2.6-3.8-.9-4.9-2.6c-1.1-1.8-1.7-4.3-1.7-7.7 0-3.5.5-6.1 1.6-7.8s2.8-2.5 5-2.5 3.8.9 5 2.7c1 1.6 1.6 4.2 1.6 7.5zm-11 0c0 2.9.3 5.1 1 6.4s1.8 2 3.3 2 2.6-.7 3.3-2c.7-1.4 1-3.5 1-6.4s-.3-5-1-6.4c-.7-1.3-1.8-2-3.3-2s-2.6.7-3.3 2c-.7 1.4-1 3.5-1 6.4z"/></g><path d="m271.7 309.1v-.7c0-1.1.2-2 .5-2.6s.9-1.4 1.8-2.2c1.2-1.1 2-1.8 2.4-2.4.3-.5.5-1.2.5-1.9 0-.9-.3-1.7-.9-2.2s-1.5-.8-2.6-.8c-.7 0-1.4.1-2.1.3s-1.5.5-2.4.9l-.8-1.9c1.7-.9 3.5-1.4 5.4-1.4 1.8 0 3.1.4 4.1 1.3s1.5 2.1 1.5 3.6c0 .7-.1 1.3-.3 1.8s-.4 1-.8 1.4-1.1 1.2-2.3 2.2c-.9.8-1.5 1.4-1.8 2-.3.5-.4 1.2-.4 2.1v.5zm-.7 4.1c0-1.2.5-1.9 1.7-1.9.5 0 .9.2 1.2.5s.4.8.4 1.4-.1 1-.4 1.4c-.3.3-.7.5-1.2.5s-.9-.1-1.2-.4c-.4-.4-.5-.9-.5-1.5z" fill="#c62828"/><g enable-background="new" fill="#c62828"><path d="m427.6 299.3c0 1.3-.4 2.3-1.1 3.2-.7.8-1.7 1.4-3.1 1.6v.1c1.6.2 2.8.7 3.6 1.5s1.2 1.9 1.2 3.2c0 1.9-.7 3.4-2 4.4s-3.2 1.5-5.7 1.5c-1.1 0-2-.1-2.9-.2-.9-.2-1.7-.4-2.6-.8v-2.2c.9.4 1.8.8 2.8 1s1.9.3 2.8.3c3.5 0 5.2-1.4 5.2-4.1 0-2.4-1.9-3.7-5.8-3.7h-2v-2h2c1.6 0 2.8-.3 3.7-1s1.4-1.7 1.4-2.9c0-1-.3-1.8-1-2.3-.7-.6-1.6-.8-2.7-.8-.9 0-1.7.1-2.5.4s-1.7.7-2.7 1.3l-1.2-1.5c.8-.7 1.8-1.2 2.9-1.5 1.1-.4 2.2-.6 3.4-.6 2 0 3.5.4 4.6 1.3 1.1 1 1.7 2.2 1.7 3.8z"/><path d="m444.5 314.6h-13.2v-2l5.3-5.3c1.6-1.6 2.7-2.8 3.2-3.5s.9-1.4 1.2-2c.3-.7.4-1.4.4-2.1 0-1.1-.3-1.9-1-2.6-.7-.6-1.6-.9-2.7-.9-.8 0-1.6.1-2.4.4-.7.3-1.6.8-2.5 1.5l-1.2-1.6c1.9-1.5 3.9-2.3 6.1-2.3 1.9 0 3.4.5 4.4 1.5s1.6 2.3 1.6 3.9c0 1.3-.4 2.5-1.1 3.8-.7 1.2-2.1 2.8-4 4.7l-4.4 4.3v.1h10.3z"/></g><g enable-background="new" fill="#c62828"><path d="m191.4 314.6h-2.2v-14.3c0-1.2 0-2.3.1-3.4-.2.2-.4.4-.6.6s-1.3 1.1-3.3 2.7l-1.2-1.6 5.3-4.1h1.9z"/><path d="m213.2 310h-3v4.6h-2.2v-4.6h-9.8v-2l9.5-13.6h2.4v13.5h3v2.1zm-5.2-2.1v-6.7c0-1.3 0-2.8.1-4.4h-.1c-.4.9-.9 1.6-1.2 2.2l-6.3 8.9z"/></g><g enable-background="new" fill="#c62828"><path d="m40 314.6h-13.2v-2l5.3-5.3c1.6-1.6 2.7-2.8 3.2-3.5s.9-1.4 1.2-2c.3-.7.4-1.4.4-2.1 0-1.1-.3-1.9-1-2.6-.7-.6-1.6-.9-2.7-.9-.8 0-1.6.1-2.4.4-.7.3-1.6.8-2.5 1.5l-1.2-1.6c1.9-1.5 3.9-2.3 6.1-2.3 1.9 0 3.4.5 4.4 1.5s1.6 2.3 1.6 3.9c0 1.3-.4 2.5-1.1 3.8-.7 1.2-2.1 2.8-4 4.7l-4.4 4.3v.1h10.3z"/><path d="m56.1 303.1c0 7.9-3 11.8-9.1 11.8-1.1 0-1.9-.1-2.5-.3v-2c.7.2 1.6.4 2.5.4 2.2 0 3.9-.7 5-2s1.7-3.5 1.8-6.3h-.2c-.5.8-1.2 1.3-2 1.7s-1.8.6-2.8.6c-1.8 0-3.2-.5-4.2-1.6s-1.6-2.5-1.6-4.5c0-2.1.6-3.7 1.8-5s2.7-1.8 4.6-1.8c1.4 0 2.6.4 3.6 1.1s1.8 1.7 2.4 3.1.7 3 .7 4.8zm-6.8-6.9c-1.3 0-2.3.4-3 1.3-.7.8-1.1 2-1.1 3.5 0 1.3.3 2.4 1 3.1.7.8 1.7 1.1 3 1.1.8 0 1.6-.2 2.3-.5s1.3-.8 1.7-1.4.6-1.2.6-1.8c0-1-.2-1.9-.6-2.7s-.9-1.5-1.6-1.9c-.6-.5-1.4-.7-2.3-.7z"/></g></svg>