<svg enable-background="new 0 0 218.7 151" viewBox="0 0 218.7 151" xmlns="http://www.w3.org/2000/svg"><path d="m59.1 111.7 16.7 33.4h-33.4-33.4l16.7-33.4 16.7-33.4z" fill="none" stroke="#c62828" stroke-width="10"/><g enable-background="new" fill="#c62828"><path d="m41.1 130.3h-11v-1.6l4.4-4.4c1.3-1.4 2.2-2.3 2.6-2.9s.7-1.1 1-1.7c.2-.5.3-1.1.3-1.8 0-.9-.3-1.6-.8-2.1s-1.3-.8-2.2-.8c-.7 0-1.3.1-2 .3-.6.2-1.3.6-2.1 1.2l-1-1.3c1.5-1.3 3.2-1.9 5-1.9 1.6 0 2.8.4 3.7 1.2s1.3 1.9 1.3 3.2c0 1.1-.3 2.1-.9 3.1s-1.7 2.3-3.3 3.9l-3.7 3.6v.1h8.6v1.9z"/><path d="m49 113.4c1.5 0 2.7.4 3.6 1.1s1.3 1.7 1.3 2.9c0 .8-.3 1.6-.8 2.2s-1.3 1.3-2.4 1.8c1.4.6 2.3 1.3 2.9 2s.9 1.5.9 2.5c0 1.4-.5 2.5-1.4 3.3-1 .8-2.3 1.2-4 1.2-1.8 0-3.1-.4-4.1-1.2s-1.4-1.9-1.4-3.3c0-1.9 1.2-3.4 3.5-4.5-1-.6-1.8-1.2-2.3-1.9s-.7-1.5-.7-2.3c0-1.2.4-2.2 1.3-2.9.9-.6 2.1-.9 3.6-.9zm-3.6 12.7c0 .9.3 1.6 1 2.1.6.5 1.5.8 2.7.8 1.1 0 2-.3 2.6-.8s.9-1.3.9-2.2c0-.7-.3-1.4-.9-2s-1.6-1.1-3.1-1.7c-1.1.5-2 1-2.5 1.6-.4.6-.7 1.3-.7 2.2zm3.6-11.2c-1 0-1.7.2-2.2.7s-.8 1.1-.8 1.8.2 1.3.7 1.8 1.3 1 2.5 1.5c1.1-.5 1.9-.9 2.3-1.5.5-.5.7-1.1.7-1.8 0-.8-.3-1.4-.8-1.8-.7-.5-1.4-.7-2.4-.7z"/></g><path d="m125.8 111.7 16.7 33.4h-33.4-33.4l16.7-33.4 16.7-33.4z" fill="none" stroke="#c62828" stroke-width="10"/><path d="m192.5 111.7 16.7 33.4h-33.4-33.4l16.7-33.4 16.7-33.4z" fill="none" stroke="#c62828" stroke-width="10"/><path d="m159.2 45 16.7 33.4h-33.4-33.4l16.7-33.4 16.7-33.4z" fill="none" stroke="#c62828" stroke-width="10"/><g fill="#c62828"><path d="m174.1 125.7v-.6c0-.9.1-1.6.4-2.2s.8-1.2 1.5-1.8c1-.9 1.7-1.5 2-2 .3-.4.4-1 .4-1.6 0-.8-.2-1.4-.7-1.8s-1.2-.6-2.2-.6c-.6 0-1.2.1-1.8.2s-1.2.4-2 .8l-.7-1.5c1.4-.8 2.9-1.1 4.5-1.1 1.5 0 2.6.4 3.4 1.1s1.2 1.7 1.2 3c0 .6-.1 1-.2 1.5s-.4.8-.7 1.2-.9 1-1.9 1.8c-.8.7-1.3 1.2-1.5 1.6s-.4 1-.4 1.7v.4h-1.3zm-.5 3.4c0-1 .5-1.6 1.4-1.6.4 0 .8.1 1 .4s.4.7.4 1.2-.1.9-.4 1.1c-.2.3-.6.4-1 .4s-.7-.1-1-.4-.4-.6-.4-1.1z"/><g enable-background="new"><path d="m141.2 67.2h-11v-1.6l4.4-4.4c1.3-1.4 2.2-2.3 2.6-2.9s.7-1.1 1-1.7c.2-.5.3-1.1.3-1.8 0-.9-.3-1.6-.8-2.1s-1.3-.8-2.2-.8c-.7 0-1.3.1-2 .3-.6.2-1.3.6-2.1 1.2l-1-1.3c1.5-1.3 3.2-1.9 5-1.9 1.6 0 2.8.4 3.7 1.2s1.3 1.9 1.3 3.2c0 1.1-.3 2.1-.9 3.1s-1.7 2.3-3.3 3.9l-3.7 3.6v.1h8.6v1.9z"/><path d="m155.4 63.4h-2.5v3.8h-1.8v-3.8h-8.1v-1.7l7.9-11.3h2v11.2h2.5zm-4.3-1.7v-5.5c0-1.1 0-2.3.1-3.7h-.1c-.4.7-.7 1.3-1 1.8l-5.2 7.4z"/></g><path d="m144 111.7h-1.8v-11.9c0-1 0-1.9.1-2.8-.2.2-.3.3-.5.5s-1.1.9-2.7 2.2l-1-1.3 4.4-3.4h1.6v16.7z"/><g enable-background="new"><path d="m103.9 130.3h-1.8v-11.9c0-1 0-1.9.1-2.8-.2.2-.3.3-.5.5s-1.1.9-2.7 2.2l-1-1.3 4.4-3.4h1.6v16.7z"/><path d="m122 126.4h-2.5v3.8h-1.8v-3.8h-8.1v-1.7l7.9-11.3h2v11.2h2.5zm-4.3-1.7v-5.5c0-1.1 0-2.3.1-3.7h-.1c-.4.7-.7 1.3-1 1.8l-5.2 7.4z"/></g></g><path d="m92.4 45 16.7 33.4h-33.4-33.3l16.7-33.4 16.7-33.4z" fill="none" stroke="#c62828" stroke-width="10"/><g enable-background="new" fill="#c62828"><path d="m68.7 57c1.8 0 3.1.4 4.1 1.3s1.5 2.1 1.5 3.6c0 1.7-.5 3.1-1.6 4.1s-2.6 1.5-4.5 1.5-3.3-.3-4.3-.9v-1.8c.5.3 1.2.6 2 .8s1.6.3 2.3.3c1.3 0 2.4-.3 3.1-.9s1.1-1.5 1.1-2.7c0-2.3-1.4-3.5-4.3-3.5-.7 0-1.7.1-2.9.3l-1-.6.6-7.8h8.3v1.7h-6.7l-.4 5c1-.3 1.9-.4 2.7-.4z"/><path d="m87.2 54.5c0 1.1-.3 1.9-.9 2.6s-1.4 1.1-2.5 1.4v.1c1.3.2 2.3.6 3 1.3s1 1.6 1 2.7c0 1.6-.6 2.8-1.7 3.7s-2.7 1.3-4.7 1.3c-.9 0-1.7-.1-2.4-.2s-1.4-.4-2.1-.7v-1.8c.7.4 1.5.6 2.3.8s1.6.3 2.3.3c2.9 0 4.3-1.1 4.3-3.4 0-2-1.6-3-4.8-3h-1.6v-1.6h1.6c1.3 0 2.3-.3 3.1-.9s1.1-1.4 1.1-2.4c0-.8-.3-1.5-.8-1.9-.6-.5-1.3-.7-2.3-.7-.7 0-1.4.1-2.1.3-.6.2-1.4.6-2.2 1.1l-1-1.3c.7-.5 1.5-1 2.4-1.3s1.8-.5 2.8-.5c1.6 0 2.9.4 3.8 1.1 1 .7 1.4 1.7 1.4 3z"/></g><g enable-background="new" fill="#c62828"><path d="m70.5 111.7h-1.8v-11.9c0-1 0-1.9.1-2.8-.2.2-.3.3-.5.5s-1.1.9-2.7 2.2l-1-1.3 4.4-3.4h1.6v16.7z"/><path d="m83.9 111.7h-1.8v-11.9c0-1 0-1.9.1-2.8-.2.2-.3.3-.5.5s-1.1.9-2.7 2.2l-1-1.3 4.4-3.4h1.6v16.7z"/></g></svg>