<svg enable-background="new 0 0 125.6 79.4" viewBox="0 0 125.6 79.4" xmlns="http://www.w3.org/2000/svg"><g fill="#c62828"><g enable-background="new"><path d="m20.8 17.9h-1.9v-12.2c0-1 0-2 .1-2.9-.2.2-.3.3-.6.5-.2.2-1.1.9-2.8 2.3l-1-1.3 4.5-3.5h1.6v17.1z"/><path d="m29.4 17.9 7.1-15.3h-9.3v-1.9h11.4v1.6l-7 15.6z"/><path d="m47.8 6.3c0-1.1.5-1.6 1.4-1.6 1 0 1.4.5 1.4 1.6 0 .5-.1.9-.4 1.2s-.6.4-1.1.4c-.4 0-.7-.1-1-.4s-.3-.7-.3-1.2zm0 10.3c0-.5.1-.9.4-1.2.2-.3.6-.4 1-.4.5 0 .8.1 1.1.4s.4.7.4 1.2-.1.9-.4 1.2-.6.4-1.1.4c-.4 0-.7-.1-1-.4s-.4-.6-.4-1.2z"/><path d="m71.1 8.1c0 6.7-2.6 10.1-7.8 10.1-.9 0-1.6-.1-2.2-.2v-1.7c.6.2 1.3.3 2.1.3 1.9 0 3.3-.6 4.2-1.7 1-1.2 1.5-2.9 1.6-5.3-.4.6-1 1.1-1.7 1.5-.7.3-1.5.5-2.4.5-1.5 0-2.7-.5-3.6-1.4s-1.3-2.2-1.3-3.8c0-1.8.5-3.2 1.5-4.2s2.3-1.5 3.9-1.5c1.2 0 2.2.3 3.1.9.8.4 1.5 1.3 1.9 2.4s.7 2.5.7 4.1zm-5.7-5.9c-1.1 0-2 .4-2.6 1.1s-.9 1.7-.9 3c0 1.1.3 2 .8 2.7.6.6 1.4 1 2.6 1 .7 0 1.4-.1 2-.4s1.1-.7 1.4-1.2.5-1 .5-1.6c0-.8-.2-1.6-.5-2.3s-.8-1.2-1.3-1.6c-.6-.5-1.3-.7-2-.7z"/><path d="m80.1 7.8v-1.6h10.9v1.6zm0 4.8v-1.6h10.9v1.6z"/><path d="m100 10.6c0-3.4.7-5.9 2-7.6s3.2-2.5 5.8-2.5c.9 0 1.6.1 2.1.2v1.7c-.6-.2-1.3-.3-2.1-.3-1.8 0-3.2.6-4.2 1.7s-1.5 2.9-1.6 5.4h.1c.9-1.3 2.2-2 4.1-2 1.5 0 2.8.5 3.6 1.4.9.9 1.3 2.2 1.3 3.8 0 1.8-.5 3.2-1.5 4.2s-2.3 1.5-3.9 1.5c-1.8 0-3.2-.7-4.2-2s-1.5-3.2-1.5-5.5zm5.8 5.9c1.1 0 2-.3 2.6-1s.9-1.7.9-3c0-1.1-.3-2-.9-2.7-.6-.6-1.4-1-2.6-1-.7 0-1.3.1-1.9.4s-1.1.7-1.4 1.2-.5 1-.5 1.6c0 .8.2 1.6.5 2.3s.8 1.2 1.3 1.7c.6.3 1.2.5 2 .5z"/><path d="m125.6 13.9h-2.5v3.9h-1.9v-3.9h-8.3v-1.7l8.1-11.6h2.1v11.5h2.5zm-4.4-1.7v-5.7c0-1.1 0-2.4.1-3.8h-.1c-.4.8-.7 1.4-1.1 1.9l-5.4 7.6z"/></g><g enable-background="new"><path d="m20.8 79.1h-1.9v-12.2c0-1 0-2 .1-2.9-.2.2-.3.3-.6.5-.2.2-1.1.9-2.8 2.3l-1-1.3 4.5-3.5h1.6v17.1z"/><path d="m39.3 75.2h-2.5v3.9h-1.9v-3.9h-8.3v-1.7l8.1-11.6h2.1v11.5h2.5zm-4.4-1.8v-5.7c0-1.1 0-2.4.1-3.8-.4.8-.7 1.4-1.1 1.9l-5.4 7.6z"/><path d="m47.8 67.5c0-1.1.5-1.6 1.4-1.6 1 0 1.4.5 1.4 1.6 0 .5-.1.9-.4 1.2s-.6.4-1.1.4c-.4 0-.7-.1-1-.4s-.3-.6-.3-1.2zm0 10.4c0-.5.1-.9.4-1.2.2-.3.6-.4 1-.4.5 0 .8.1 1.1.4s.4.7.4 1.2-.1.9-.4 1.2-.6.4-1.1.4c-.4 0-.7-.1-1-.4s-.4-.7-.4-1.2z"/><path d="m62 79.1 7.1-15.3h-9.3v-1.8h11.4v1.6l-7 15.6h-2.2z"/><path d="m80.1 69v-1.6h10.9v1.6zm0 4.8v-1.6h10.9v1.6z"/><path d="m111.9 75.2h-2.5v3.9h-1.9v-3.9h-8.3v-1.7l8.1-11.6h2.1v11.5h2.5zm-4.4-1.8v-5.7c0-1.1 0-2.4.1-3.8h-.1c-.4.8-.7 1.4-1.1 1.9l-5.4 7.6z"/><path d="m124.8 69.3c0 6.7-2.6 10.1-7.8 10.1-.9 0-1.6-.1-2.2-.2v-1.7c.6.2 1.3.3 2.1.3 1.9 0 3.3-.6 4.3-1.7 1-1.2 1.5-2.9 1.6-5.3h-.1c-.4.6-1 1.1-1.7 1.5-.7.3-1.5.5-2.4.5-1.5 0-2.7-.5-3.6-1.4s-1.3-2.2-1.3-3.8c0-1.8.5-3.2 1.5-4.2s2.3-1.5 3.9-1.5c1.2 0 2.2.3 3.1.9s1.5 1.5 2 2.6.6 2.3.6 3.9zm-5.8-5.9c-1.1 0-2 .4-2.6 1.1s-.9 1.7-.9 3c0 1.1.3 2 .8 2.7.6.6 1.4 1 2.6 1 .7 0 1.4-.1 2-.4s1.1-.7 1.4-1.2.5-1 .5-1.6c0-.8-.2-1.6-.5-2.3s-.8-1.2-1.3-1.6c-.6-.5-1.2-.7-2-.7z"/></g><g enable-background="new"><path d="m11.3 48.6h-11.3v-1.7l4.5-4.5c1.4-1.4 2.3-2.4 2.7-3s.8-1.2 1-1.7c.2-.6.3-1.2.3-1.8 0-.9-.3-1.6-.8-2.2s-1.3-.8-2.3-.8c-.7 0-1.4.1-2 .4-.6.2-1.3.7-2.1 1.3l-1-1.3c1.6-1.3 3.3-2 5.2-2 1.6 0 2.9.4 3.8 1.2s1.4 1.9 1.4 3.3c0 1.1-.3 2.2-.9 3.2-.8 1-1.9 2.4-3.6 4l-3.8 3.7v.1h8.8v1.8z"/><path d="m25.8 44.6h-2.5v3.9h-1.9v-3.9h-8.3v-1.7l8.1-11.6h2.1v11.5h2.5zm-4.4-1.7v-5.7c0-1.1 0-2.4.1-3.8h-.1c-.4.8-.7 1.4-1.1 1.9l-5.3 7.6z"/><path d="m34.3 37c0-1.1.5-1.6 1.4-1.6 1 0 1.4.5 1.4 1.6 0 .5-.1.9-.4 1.2s-.6.4-1.1.4c-.4 0-.7-.1-1-.4s-.3-.7-.3-1.2zm0 10.3c0-.5.1-.9.4-1.2.2-.3.6-.4 1-.4.5 0 .8.1 1.1.4s.4.7.4 1.2-.1.9-.4 1.2-.6.4-1.1.4c-.4 0-.7-.1-1-.4s-.4-.6-.4-1.2z"/><path d="m53.5 48.6h-1.9v-12.3c0-1 0-2 .1-2.9-.2.2-.3.3-.6.5-.2.2-1.1.9-2.8 2.3l-1-1.3 4.5-3.5h1.6v17.2z"/><path d="m71.3 38.7c0 6.7-2.6 10.1-7.8 10.1-.9 0-1.6-.1-2.2-.2v-1.7c.6.2 1.3.3 2.1.3 1.9 0 3.3-.6 4.2-1.7 1-1.2 1.5-2.9 1.6-5.3h-.1c-.4.6-1 1.1-1.7 1.5-.7.3-1.5.5-2.4.5-1.5 0-2.7-.5-3.6-1.4s-1.3-2.2-1.3-3.8c0-1.8.5-3.2 1.5-4.2s2.3-1.5 3.9-1.5c1.2 0 2.2.3 3.1.9s1.5 1.5 2 2.6.7 2.4.7 3.9zm-5.7-5.9c-1.1 0-2 .4-2.6 1.1s-.9 1.7-.9 3c0 1.1.3 2 .8 2.7.6.6 1.4 1 2.6 1 .7 0 1.4-.1 2-.4s1.1-.7 1.4-1.2.5-1 .5-1.6c0-.8-.2-1.6-.5-2.3s-.8-1.2-1.3-1.6c-.6-.5-1.3-.7-2-.7z"/><path d="m80.2 38.5v-1.6h10.9v1.6zm0 4.8v-1.6h10.9v1.6z"/><path d="m102.2 43.8v-.6c0-.9.1-1.7.4-2.3s.8-1.2 1.6-1.9c1.1-.9 1.7-1.6 2-2 .3-.5.4-1 .4-1.6 0-.8-.3-1.4-.8-1.8s-1.2-.7-2.2-.7c-.6 0-1.2.1-1.8.2s-1.3.4-2 .8l-.7-1.6c1.5-.8 3-1.2 4.6-1.2 1.5 0 2.7.4 3.5 1.1s1.2 1.8 1.2 3.1c0 .6-.1 1.1-.2 1.5-.2.4-.4.8-.7 1.2s-.9 1-1.9 1.9c-.8.7-1.3 1.2-1.6 1.7-.3.4-.4 1-.4 1.8v.4zm-.6 3.5c0-1.1.5-1.6 1.4-1.6.5 0 .8.1 1 .4s.4.7.4 1.2-.1.9-.4 1.2-.6.4-1 .4-.7-.1-1-.4-.4-.6-.4-1.2z"/></g></g></svg>