<svg enable-background="new 0 0 284.2 255.3" viewBox="0 0 284.2 255.3" xmlns="http://www.w3.org/2000/svg"><path d="m208.1 40.6-185.7 185.6" fill="none" stroke="#c62828" stroke-width="10"/><path d="m22.4 40.6 185.6 185.6" fill="none" stroke="#c62828" stroke-width="10"/><g fill="#c62828"><path d="m22.2 92.8c6.2 0 11.1 1.4 14.7 4.3s5.4 6.8 5.4 11.9c0 3.3-1 6.4-3.1 9.1s-5.4 5.3-9.9 7.5c5.5 2.6 9.4 5.4 11.7 8.3s3.5 6.2 3.5 10c0 5.6-2 10.1-5.9 13.5s-9.3 5-16.1 5c-7.2 0-12.8-1.6-16.7-4.7-3.9-3.2-5.8-7.7-5.8-13.5 0-7.8 4.7-13.8 14.2-18.1-4.3-2.4-7.3-5-9.2-7.8s-2.8-5.9-2.8-9.4c0-4.9 1.8-8.8 5.4-11.7 3.7-2.9 8.6-4.4 14.6-4.4zm-14.6 51.6c0 3.7 1.3 6.6 3.9 8.7s6.2 3.1 10.9 3.1c4.6 0 8.2-1.1 10.7-3.2 2.6-2.2 3.8-5.1 3.8-8.9 0-3-1.2-5.7-3.6-8s-6.6-4.6-12.6-6.8c-4.6 2-7.9 4.2-10 6.6-2.1 2.3-3.1 5.2-3.1 8.5zm14.5-45.3c-3.9 0-6.9.9-9.1 2.8s-3.3 4.3-3.3 7.4c0 2.8.9 5.3 2.7 7.3s5.2 4.1 10.1 6.1c4.4-1.9 7.5-3.8 9.4-6 1.8-2.1 2.8-4.6 2.8-7.5 0-3.1-1.1-5.6-3.4-7.4-2.2-1.8-5.2-2.7-9.2-2.7z"/><g enable-background="new"><path d="m113.6 202.5c0 4.3-1.2 7.9-3.6 10.6s-5.9 4.6-10.3 5.5v.4c5.4.7 9.5 2.4 12.1 5.2s3.9 6.4 3.9 10.9c0 6.5-2.2 11.4-6.7 14.9s-10.8 5.2-19.1 5.2c-3.6 0-6.9-.3-9.8-.8-3-.5-5.9-1.5-8.7-2.8v-7.3c2.9 1.5 6.1 2.6 9.4 3.3 3.3.8 6.5 1.1 9.4 1.1 11.7 0 17.6-4.6 17.6-13.8 0-8.2-6.5-12.3-19.4-12.3h-6.7v-6.6h6.8c5.3 0 9.5-1.2 12.6-3.5s4.6-5.6 4.6-9.7c0-3.3-1.1-5.9-3.4-7.8s-5.4-2.8-9.2-2.8c-3 0-5.8.4-8.4 1.2s-5.6 2.3-9 4.4l-3.9-5.2c2.8-2.2 6-3.9 9.6-5.2s7.5-1.9 11.5-1.9c6.6 0 11.7 1.5 15.3 4.5 3.6 3.2 5.4 7.3 5.4 12.5z"/><path d="m170.4 254.3h-44.5v-6.6l17.8-17.9c5.4-5.5 9-9.4 10.7-11.8 1.7-2.3 3-4.6 3.9-6.9.9-2.2 1.3-4.6 1.3-7.2 0-3.6-1.1-6.5-3.3-8.6s-5.2-3.2-9.1-3.2c-2.8 0-5.5.5-8 1.4s-5.3 2.6-8.4 5.1l-4.1-5.2c6.2-5.2 13-7.8 20.4-7.8 6.4 0 11.4 1.6 15 4.9s5.4 7.6 5.4 13.1c0 4.3-1.2 8.5-3.6 12.7s-6.9 9.5-13.5 15.9l-14.8 14.5v.4h34.8z"/></g><g enable-background="new"><path d="m194 161.5 28.1-60.6h-36.9v-7.1h45.1v6.2l-27.7 61.6h-8.6z"/><path d="m284.2 161.5h-44.5v-6.6l17.8-17.9c5.4-5.5 9-9.4 10.7-11.8 1.7-2.3 3-4.6 3.9-6.9.9-2.2 1.3-4.6 1.3-7.2 0-3.6-1.1-6.5-3.3-8.6s-5.2-3.2-9.1-3.2c-2.8 0-5.5.5-8 1.4s-5.3 2.6-8.4 5.1l-4.1-5.2c6.2-5.2 13-7.8 20.4-7.8 6.4 0 11.4 1.6 15 4.9s5.4 7.6 5.4 13.1c0 4.3-1.2 8.5-3.6 12.7s-6.9 9.5-13.5 15.9l-14.8 14.6v.4h34.8z"/></g><path d="m114.5 50v-2.5c0-3.6.6-6.6 1.7-8.9s3.2-4.8 6.2-7.4c4.2-3.6 6.8-6.2 7.9-8s1.6-4 1.6-6.5c0-3.2-1-5.6-3-7.3s-4.9-2.6-8.7-2.6c-2.4 0-4.8.3-7.1.9s-5 1.6-8 3.1l-2.7-6.3c5.8-3.1 11.9-4.6 18.3-4.6 5.9 0 10.5 1.5 13.8 4.4s4.9 7 4.9 12.3c0 2.3-.3 4.2-.9 6s-1.5 3.3-2.7 4.9-3.7 4-7.6 7.4c-3.1 2.7-5.2 4.9-6.2 6.6-1 1.8-1.5 4.1-1.5 7v1.5zm-2.3 13.8c0-4.2 1.9-6.3 5.6-6.3 1.8 0 3.2.5 4.1 1.6 1 1.1 1.5 2.6 1.5 4.7 0 2-.5 3.5-1.5 4.6s-2.4 1.6-4.1 1.6c-1.6 0-2.9-.5-4-1.5-1.1-.9-1.6-2.5-1.6-4.7z"/></g></svg>