<svg enable-background="new 0 0 367.9 354.4" viewBox="0 0 367.9 354.4" xmlns="http://www.w3.org/2000/svg"><path d="m227.3 131.3 97.3 14.9-70.4 72.1 16.6 101.9-87-48.1-87 48.1 16.6-101.9-70.4-72.1 97.3-14.9 43.5-92.7z" fill="none" stroke="#c62828" stroke-width="10"/><g fill="#c62828"><path d="m131.5 117.5h-2.6v4.1h-1.9v-4.1h-8.6v-1.8l8.4-11.9h2.1v11.9h2.6zm-4.5-1.8v-5.9c0-1.2 0-2.5.1-3.9h-.1c-.4.8-.7 1.4-1.1 1.9l-5.5 7.9z"/><path d="m238.8 103.6c1.6 0 2.9.4 3.8 1.1s1.4 1.8 1.4 3.1c0 .9-.3 1.7-.8 2.4s-1.4 1.4-2.6 2c1.4.7 2.5 1.4 3.1 2.2s.9 1.6.9 2.6c0 1.5-.5 2.6-1.5 3.5s-2.4 1.3-4.2 1.3c-1.9 0-3.3-.4-4.3-1.2s-1.5-2-1.5-3.5c0-2 1.2-3.6 3.7-4.7-1.1-.6-1.9-1.3-2.4-2s-.7-1.5-.7-2.4c0-1.3.5-2.3 1.4-3.1s2.1-1.3 3.7-1.3zm-3.8 13.5c0 1 .3 1.7 1 2.3.7.5 1.6.8 2.8.8s2.1-.3 2.8-.8c.7-.6 1-1.3 1-2.3 0-.8-.3-1.5-.9-2.1s-1.7-1.2-3.3-1.8c-1.2.5-2.1 1.1-2.6 1.7s-.8 1.3-.8 2.2zm3.8-11.8c-1 0-1.8.2-2.4.7s-.9 1.1-.9 1.9c0 .7.2 1.4.7 1.9s1.4 1.1 2.6 1.6c1.2-.5 2-1 2.4-1.6s.7-1.2.7-1.9c0-.8-.3-1.5-.9-1.9-.4-.5-1.2-.7-2.2-.7z"/><g enable-background="new"><path d="m181.8 4.4c0 1.1-.3 2-.9 2.8-.6.7-1.5 1.2-2.7 1.4v.1c1.4.2 2.5.6 3.2 1.4s1 1.7 1 2.9c0 1.7-.6 3-1.8 3.9s-2.8 1.4-5 1.4c-.9 0-1.8-.1-2.6-.2s-1.5-.4-2.3-.7v-1.9c.8.4 1.6.7 2.4.9s1.7.3 2.5.3c3.1 0 4.6-1.2 4.6-3.6 0-2.1-1.7-3.2-5-3.2h-1.7v-2h1.8c1.4 0 2.5-.3 3.3-.9s1.2-1.5 1.2-2.5c0-.9-.3-1.5-.9-2s-1.4-.7-2.4-.7c-.8 0-1.5.1-2.2.3s-1.5.6-2.3 1.2l-1-1.4c.7-.6 1.6-1 2.5-1.3s1.9-.5 3-.5c1.7 0 3 .4 4 1.2.8.7 1.3 1.7 1.3 3.1z"/><path d="m196.6 17.9h-11.6v-1.7l4.6-4.7c1.4-1.4 2.4-2.5 2.8-3.1.5-.6.8-1.2 1-1.8s.3-1.2.3-1.9c0-.9-.3-1.7-.9-2.2-.6-.6-1.4-.8-2.4-.8-.7 0-1.4.1-2.1.4s-1.4.7-2.2 1.3l-.8-1.4c1.6-1.4 3.4-2 5.3-2 1.7 0 3 .4 3.9 1.3.9.8 1.4 2 1.4 3.4 0 1.1-.3 2.2-.9 3.3s-1.8 2.5-3.5 4.2l-3.9 3.8v.1h9.1v1.8z"/></g><g enable-background="new"><path d="m6.4 152.1h-2v-12.6c0-1 0-2 .1-3-.2.2-.4.3-.6.5s-1.2 1-2.9 2.4l-1-1.3 4.7-3.6h1.7z"/><path d="m24.7 152.1h-11.6v-1.7l4.6-4.7c1.4-1.4 2.4-2.5 2.8-3.1.5-.6.8-1.2 1-1.8s.3-1.2.3-1.9c0-.9-.3-1.7-.9-2.2-.6-.6-1.4-.8-2.4-.8-.7 0-1.4.1-2.1.4-.7.2-1.4.7-2.2 1.3l-1.1-1.4c1.6-1.4 3.4-2 5.3-2 1.7 0 3 .4 3.9 1.3.9.8 1.4 2 1.4 3.4 0 1.1-.3 2.2-.9 3.3s-1.8 2.5-3.5 4.2l-3.9 3.8v.1h9.1v1.8z"/></g><g enable-background="new"><path d="m271.9 236.7h-2v-12.6c0-1 0-2 .1-3-.2.2-.4.3-.6.5s-1.2 1-2.9 2.4l-1.1-1.4 4.7-3.6h1.7v17.7z"/><path d="m278.8 229.2c0-3.5.7-6.1 2-7.8s3.3-2.6 6-2.6c.9 0 1.6.1 2.1.2v1.7c-.6-.2-1.3-.3-2.1-.3-1.9 0-3.3.6-4.3 1.8s-1.5 3-1.6 5.6h.1c.9-1.4 2.3-2.1 4.2-2.1 1.6 0 2.8.5 3.8 1.4s1.4 2.3 1.4 3.9c0 1.8-.5 3.3-1.5 4.3-1 1.1-2.4 1.6-4.1 1.6-1.8 0-3.3-.7-4.3-2.1-1.2-1.3-1.7-3.2-1.7-5.6zm5.9 6.1c1.1 0 2-.4 2.7-1.1.6-.7.9-1.8.9-3.1 0-1.2-.3-2.1-.9-2.8s-1.5-1-2.6-1c-.7 0-1.4.1-2 .4s-1.1.7-1.4 1.2-.5 1.1-.5 1.6c0 .8.2 1.6.5 2.3s.8 1.3 1.4 1.7c.5.6 1.2.8 1.9.8z"/></g><g enable-background="new"><path d="m290.2 354.4h-11.6v-1.7l4.6-4.7c1.4-1.4 2.4-2.5 2.8-3.1.5-.6.8-1.2 1-1.8s.3-1.2.3-1.9c0-.9-.3-1.7-.9-2.2-.6-.6-1.4-.8-2.4-.8-.7 0-1.4.1-2.1.4s-1.4.7-2.2 1.3l-1.1-1.4c1.6-1.4 3.4-2 5.3-2 1.7 0 3 .4 3.9 1.3.9.8 1.4 2 1.4 3.4 0 1.1-.3 2.2-.9 3.3s-1.8 2.5-3.5 4.2l-3.9 3.8v.1h9.1v1.8z"/><path d="m304.4 345.6c0 3.1-.5 5.3-1.4 6.8-1 1.5-2.4 2.3-4.4 2.3-1.9 0-3.3-.8-4.3-2.3s-1.5-3.8-1.5-6.8c0-3.1.5-5.4 1.4-6.8s2.4-2.2 4.4-2.2c1.9 0 3.4.8 4.4 2.3.9 1.5 1.4 3.7 1.4 6.7zm-9.6 0c0 2.6.3 4.4.9 5.6s1.6 1.8 2.9 1.8 2.3-.6 2.9-1.8.9-3 .9-5.6c0-2.5-.3-4.4-.9-5.6s-1.6-1.8-2.9-1.8-2.3.6-2.9 1.7c-.6 1.3-.9 3.1-.9 5.7z"/></g><g enable-background="new"><path d="m352.9 150h-11.6v-1.7l4.6-4.7c1.4-1.4 2.4-2.5 2.8-3.1.5-.6.8-1.2 1-1.8s.3-1.2.3-1.9c0-.9-.3-1.7-.9-2.2-.6-.6-1.4-.8-2.4-.8-.7 0-1.4.1-2.1.4s-1.4.7-2.2 1.3l-1.1-1.4c1.6-1.4 3.4-2 5.3-2 1.7 0 3 .4 3.9 1.3.9.8 1.4 2 1.4 3.4 0 1.1-.3 2.2-.9 3.3s-1.8 2.5-3.5 4.2l-3.9 3.8v.1h9.1v1.8z"/><path d="m367.9 145.9h-2.6v4.1h-1.9v-4.1h-8.6v-1.8l8.4-11.9h2.1v11.9h2.6zm-4.6-1.8v-5.9c0-1.2 0-2.5.1-3.9h-.1c-.4.8-.7 1.4-1.1 1.9l-5.5 7.9z"/></g><g enable-background="new"><path d="m73.6 354.4h-11.6v-1.7l4.6-4.7c1.4-1.4 2.4-2.5 2.8-3.1.5-.6.8-1.2 1-1.8s.3-1.2.3-1.9c0-.9-.3-1.7-.9-2.2s-1.4-.8-2.4-.8c-.7 0-1.4.1-2.1.4-.7.2-1.4.7-2.2 1.3l-1.1-1.4c1.6-1.4 3.4-2 5.3-2 1.7 0 3 .4 3.9 1.3.9.8 1.4 2 1.4 3.4 0 1.1-.3 2.2-.9 3.3s-1.8 2.5-3.5 4.2l-3.9 3.8v.1h9.1v1.8z"/><path d="m82 336.5c1.6 0 2.9.4 3.8 1.1s1.4 1.8 1.4 3.1c0 .9-.3 1.7-.8 2.4s-1.4 1.4-2.6 2c1.4.7 2.5 1.4 3.1 2.2s.9 1.6.9 2.6c0 1.5-.5 2.6-1.5 3.5s-2.4 1.3-4.2 1.3c-1.9 0-3.3-.4-4.3-1.2s-1.5-2-1.5-3.5c0-2 1.2-3.6 3.7-4.7-1.1-.6-1.9-1.3-2.4-2s-.7-1.5-.7-2.4c0-1.3.5-2.3 1.4-3.1.9-.9 2.1-1.3 3.7-1.3zm-3.8 13.5c0 1 .3 1.7 1 2.3.7.5 1.6.8 2.8.8s2.1-.3 2.8-.8c.7-.6 1-1.3 1-2.3 0-.8-.3-1.5-.9-2.1s-1.7-1.2-3.3-1.8c-1.2.5-2.1 1.1-2.6 1.7s-.8 1.3-.8 2.2zm3.8-11.8c-1 0-1.8.2-2.4.7s-.9 1.1-.9 1.9c0 .7.2 1.4.7 1.9s1.4 1.1 2.6 1.6c1.2-.5 2-1 2.4-1.6.5-.6.7-1.2.7-1.9 0-.8-.3-1.5-.9-1.9-.4-.5-1.2-.7-2.2-.7z"/></g><path d="m182 305.2v-.7c0-.9.1-1.7.4-2.3s.8-1.3 1.6-1.9c1.1-.9 1.8-1.6 2.1-2.1s.4-1 .4-1.7c0-.8-.3-1.5-.8-1.9s-1.3-.7-2.3-.7c-.6 0-1.3.1-1.9.2s-1.3.4-2.1.8l-.7-1.6c1.5-.8 3.1-1.2 4.8-1.2 1.5 0 2.7.4 3.6 1.1s1.3 1.8 1.3 3.2c0 .6-.1 1.1-.2 1.6-.2.4-.4.9-.7 1.3s-1 1-2 1.9c-.8.7-1.4 1.3-1.6 1.7-.3.5-.4 1.1-.4 1.8v.4h-1.5zm-.6 3.6c0-1.1.5-1.6 1.4-1.6.5 0 .8.1 1.1.4s.4.7.4 1.2-.1.9-.4 1.2-.6.4-1.1.4c-.4 0-.8-.1-1-.4-.3-.2-.4-.7-.4-1.2z"/><g enable-background="new"><path d="m86.3 232.7h-2.6v4.1h-1.9v-4.1h-8.6v-1.8l8.4-11.9h2.1v11.9h2.6zm-4.6-1.9v-5.8c0-1.2 0-2.5.1-3.9h-.1c-.4.8-.7 1.4-1.1 1.9l-5.5 7.9h6.6z"/><path d="m99.7 227.9c0 3.1-.5 5.3-1.4 6.8-1 1.5-2.4 2.3-4.4 2.3-1.9 0-3.3-.8-4.3-2.3s-1.5-3.8-1.5-6.8c0-3.1.5-5.4 1.4-6.8 1-1.5 2.4-2.2 4.4-2.2 1.9 0 3.4.8 4.4 2.3.9 1.5 1.4 3.7 1.4 6.7zm-9.7 0c0 2.6.3 4.4.9 5.6s1.6 1.8 2.9 1.8 2.3-.6 2.9-1.8.9-3 .9-5.6-.3-4.4-.9-5.6-1.6-1.8-2.9-1.8-2.3.6-2.9 1.7c-.6 1.2-.9 3.1-.9 5.7z"/></g></g></svg>