<svg enable-background="new 0 0 222.1 274.7" viewBox="0 0 222.1 274.7" xmlns="http://www.w3.org/2000/svg"><path d="m58.4 163.7v-105.3" fill="none" stroke="#c62828" stroke-width="5"/><path d="m163.7 163.7v-75.2-22.6-7.5" fill="none" stroke="#c62828" stroke-width="5"/><path d="m111 163.7v-105.3" fill="none" stroke="#c62828" stroke-width="5"/><path d="m163.7 111h-105.3" fill="none" stroke="#c62828" stroke-width="5"/><path d="m163.7 163.7h-105.3" fill="none" stroke="#c62828" stroke-width="5"/><path d="m163.7 58.4h-105.3" fill="none" stroke="#c62828" stroke-width="5"/><path d="m111 216.3v-105.3" fill="none" stroke="#c62828" stroke-width="5"/><path d="m216.3 216.3v-105.3" fill="none" stroke="#c62828" stroke-width="5"/><path d="m163.7 216.3v-105.3" fill="none" stroke="#c62828" stroke-width="5"/><path d="m216.3 163.7h-105.3" fill="none" stroke="#c62828" stroke-width="5"/><path d="m216.3 216.3h-105.3" fill="none" stroke="#c62828" stroke-width="5"/><path d="m216.3 111h-105.3" fill="none" stroke="#c62828" stroke-width="5"/><path d="m58.4 269v-105.3" fill="none" stroke="#c62828" stroke-width="5"/><path d="m163.7 269v-105.3" fill="none" stroke="#c62828" stroke-width="5"/><path d="m111 269v-105.3" fill="none" stroke="#c62828" stroke-width="5"/><path d="m163.7 216.3h-105.3" fill="none" stroke="#c62828" stroke-width="5"/><path d="m163.7 269h-105.3" fill="none" stroke="#c62828" stroke-width="5"/><path d="m163.7 163.7h-105.3" fill="none" stroke="#c62828" stroke-width="5"/><path d="m5.7 111v-105.3" fill="none" stroke="#c62828" stroke-width="5"/><path d="m111 111v-105.3" fill="none" stroke="#c62828" stroke-width="5"/><path d="m58.4 111v-105.3" fill="none" stroke="#c62828" stroke-width="5"/><path d="m111 58.4h-105.3" fill="none" stroke="#c62828" stroke-width="5"/><path d="m111 111h-105.3" fill="none" stroke="#c62828" stroke-width="5"/><path d="m111 5.7h-105.3" fill="none" stroke="#c62828" stroke-width="5"/><g fill="#c62828"><path d="m11.5 5.7c0 3.2-2.6 5.7-5.7 5.7s-5.8-2.5-5.8-5.7 2.6-5.7 5.7-5.7 5.8 2.6 5.8 5.7z"/><path d="m11.5 58.4c0 3.2-2.6 5.7-5.7 5.7s-5.8-2.5-5.8-5.7 2.6-5.7 5.7-5.7 5.8 2.5 5.8 5.7z"/><path d="m11.5 109.4c0 3.2-2.6 5.7-5.7 5.7s-5.8-2.6-5.8-5.7c0-3.2 2.6-5.7 5.7-5.7s5.8 2.5 5.8 5.7z"/><path d="m64.1 5.7c0 3.2-2.6 5.7-5.7 5.7-3.2 0-5.7-2.6-5.7-5.7s2.5-5.7 5.7-5.7 5.7 2.6 5.7 5.7z"/><path d="m64.1 58.4c0 3.2-2.6 5.7-5.7 5.7-3.2 0-5.7-2.6-5.7-5.7 0-3.2 2.6-5.7 5.7-5.7 3.2-.1 5.7 2.5 5.7 5.7z"/><path d="m116.8 5.7c0 3.2-2.6 5.7-5.7 5.7-3.2 0-5.7-2.6-5.7-5.7s2.5-5.7 5.6-5.7c3.2 0 5.8 2.6 5.8 5.7z"/><path d="m64.1 111c0 3.2-2.6 5.7-5.7 5.7-3.2 0-5.7-2.6-5.7-5.7 0-3.2 2.6-5.7 5.7-5.7 3.2 0 5.7 2.6 5.7 5.7z"/><path d="m64.1 163.7c0 3.2-2.6 5.7-5.7 5.7-3.2 0-5.7-2.6-5.7-5.7 0-3.2 2.6-5.7 5.7-5.7 3.2-.1 5.7 2.5 5.7 5.7z"/><path d="m116.8 58.4c0 3.2-2.6 5.7-5.7 5.7-3.2 0-5.7-2.6-5.7-5.7 0-3.2 2.6-5.7 5.7-5.7 3.1-.1 5.7 2.5 5.7 5.7z"/><path d="m116.8 111c0 3.2-2.6 5.7-5.7 5.7-3.2 0-5.7-2.6-5.7-5.7 0-3.2 2.6-5.7 5.7-5.7s5.7 2.6 5.7 5.7z"/><path d="m169.4 58.4c0 3.2-2.6 5.7-5.7 5.7-3.2 0-5.7-2.6-5.7-5.7 0-3.2 2.6-5.7 5.7-5.7 3.1-.1 5.7 2.5 5.7 5.7z"/><path d="m116.8 163.7c0 3.2-2.6 5.7-5.7 5.7-3.2 0-5.7-2.6-5.7-5.7 0-3.2 2.6-5.7 5.7-5.7 3.1-.1 5.7 2.5 5.7 5.7z"/><path d="m169.4 163.7c0 3.2-2.6 5.7-5.7 5.7-3.2 0-5.7-2.6-5.7-5.7 0-3.2 2.6-5.7 5.7-5.7 3.1-.1 5.7 2.5 5.7 5.7z"/><path d="m64.1 216.3c0 3.2-2.6 5.7-5.7 5.7-3.2 0-5.7-2.6-5.7-5.7 0-3.2 2.6-5.7 5.7-5.7 3.2 0 5.7 2.5 5.7 5.7z"/><path d="m64.1 269c0 3.2-2.6 5.7-5.7 5.7-3.2 0-5.7-2.6-5.7-5.7s2.6-5.7 5.7-5.7c3.2-.1 5.7 2.5 5.7 5.7z"/><path d="m116.8 216.3c0 3.2-2.6 5.7-5.7 5.7-3.2 0-5.7-2.6-5.7-5.7 0-3.2 2.6-5.7 5.7-5.7s5.7 2.5 5.7 5.7z"/><path d="m116.8 269c0 3.2-2.6 5.7-5.7 5.7-3.2 0-5.7-2.6-5.7-5.7s2.6-5.7 5.7-5.7c3.1-.1 5.7 2.5 5.7 5.7z"/><path d="m169.4 269c0 3.2-2.6 5.7-5.7 5.7-3.2 0-5.7-2.6-5.7-5.7s2.6-5.7 5.7-5.7c3.1-.1 5.7 2.5 5.7 5.7z"/><path d="m169.4 216.3c0 3.2-2.6 5.7-5.7 5.7-3.2 0-5.7-2.6-5.7-5.7 0-3.2 2.6-5.7 5.7-5.7s5.7 2.5 5.7 5.7z"/><path d="m222.1 214.6c0 3.2-2.6 5.7-5.7 5.7-3.2 0-5.7-2.6-5.7-5.7 0-3.2 2.6-5.7 5.7-5.7s5.7 2.6 5.7 5.7z"/><path d="m222.1 111c0 3.2-2.6 5.7-5.7 5.7-3.2 0-5.7-2.6-5.7-5.7 0-3.2 2.6-5.7 5.7-5.7s5.7 2.6 5.7 5.7z"/><path d="m86.4 251.3h-1.9v-12.5c0-1 0-2 .1-3-.2.2-.4.3-.6.5s-1.2 1-2.9 2.3l-1.1-1.4 4.6-3.6h1.7v17.7z"/><path d="m169.4 111c0 3.2-2.6 5.7-5.7 5.7-3.2 0-5.7-2.6-5.7-5.7 0-3.2 2.6-5.7 5.7-5.7s5.7 2.6 5.7 5.7z"/><path d="m222.1 163.7c0 3.2-2.6 5.7-5.7 5.7-3.2 0-5.7-2.6-5.7-5.7 0-3.2 2.6-5.7 5.7-5.7 3.1-.1 5.7 2.5 5.7 5.7z"/><path d="m11.5 163.7c0 3.2-2.6 5.7-5.7 5.7s-5.8-2.6-5.8-5.7c0-3.2 2.6-5.7 5.7-5.7s5.8 2.5 5.8 5.7z"/><path d="m11.5 216.3c0 3.2-2.6 5.7-5.7 5.7s-5.8-2.5-5.8-5.7 2.6-5.7 5.7-5.7 5.8 2.5 5.8 5.7z"/><path d="m64.1 163.7c0 3.2-2.6 5.7-5.7 5.7-3.2 0-5.7-2.6-5.7-5.7 0-3.2 2.6-5.7 5.7-5.7 3.2-.1 5.7 2.5 5.7 5.7z"/><path d="m64.1 216.3c0 3.2-2.6 5.7-5.7 5.7-3.2 0-5.7-2.6-5.7-5.7 0-3.2 2.6-5.7 5.7-5.7 3.2 0 5.7 2.5 5.7 5.7z"/><path d="m37.9 198.7h-11.5v-1.7l4.6-4.6c1.4-1.4 2.3-2.4 2.8-3 .4-.6.8-1.2 1-1.8s.3-1.2.3-1.9c0-.9-.3-1.7-.9-2.2s-1.4-.8-2.4-.8c-.7 0-1.4.1-2.1.4s-1.4.7-2.2 1.3l-1.1-1.4c1.6-1.3 3.4-2 5.3-2 1.6 0 2.9.4 3.9 1.3s1.4 2 1.4 3.4c0 1.1-.3 2.2-.9 3.3s-1.8 2.5-3.5 4.1l-3.8 3.8v.1h9v1.7z"/></g><path d="m5.7 216.3h52.6v-52.6h-52.6z" fill="none" stroke="#c62828" stroke-width="5"/><path d="m91.9 198.7h-2.3l-4.7-7.7-4.8 7.7h-2.2l5.8-9.2-5.4-8.4h2.3l4.4 6.9 4.4-6.9h2.2l-5.4 8.3z" fill="#c62828"/><path d="m139 251.3h-2v-12.5c0-1 0-2 .1-3-.2.2-.4.3-.6.5s-1.2 1-2.9 2.3l-1.1-1.4 4.6-3.6h1.7v17.7z" fill="#c62828"/><path d="m142.5 185.3c0 1.1-.3 2-.9 2.7s-1.5 1.2-2.7 1.4v.1c1.4.2 2.5.6 3.1 1.3s1 1.7 1 2.8c0 1.7-.6 3-1.7 3.9-1.2.9-2.8 1.3-4.9 1.3-.9 0-1.8-.1-2.5-.2-.8-.1-1.5-.4-2.2-.7v-1.9c.8.4 1.6.7 2.4.9.9.2 1.7.3 2.4.3 3 0 4.5-1.2 4.5-3.6 0-2.1-1.7-3.2-5-3.2h-1.7v-1.7h1.8c1.4 0 2.5-.3 3.3-.9s1.2-1.4 1.2-2.5c0-.9-.3-1.5-.9-2s-1.4-.7-2.4-.7c-.8 0-1.5.1-2.2.3s-1.5.6-2.3 1.2l-1-1.3c.7-.6 1.5-1 2.5-1.3.9-.3 1.9-.5 3-.5 1.7 0 3 .4 4 1.2s1.2 1.7 1.2 3.1z" fill="#c62828"/><path d="m191.6 198.7h-1.9v-12.5c0-1 0-2 .1-3-.2.2-.4.3-.6.5s-1.2 1-2.9 2.3l-1.1-1.4 4.6-3.6h1.7v17.7z" fill="#c62828"/><path d="m197.1 148.7h-2.3l-4.7-7.7-4.8 7.7h-2.2l5.8-9.2-5.4-8.4h2.3l4.4 6.9 4.4-6.9h2.2l-5.4 8.3z" fill="#c62828"/><path d="m142.5 135.2c0 1.1-.3 2-.9 2.7s-1.5 1.2-2.7 1.4v.1c1.4.2 2.5.6 3.1 1.3s1 1.7 1 2.8c0 1.7-.6 3-1.7 3.9-1.2.9-2.8 1.3-4.9 1.3-.9 0-1.8-.1-2.5-.2-.8-.1-1.5-.4-2.2-.7v-1.8c.8.4 1.6.7 2.4.9s1.7.3 2.4.3c3 0 4.5-1.2 4.5-3.6 0-2.1-1.7-3.2-5-3.2h-1.7v-1.7h1.8c1.4 0 2.5-.3 3.3-.9s1.2-1.4 1.2-2.5c0-.9-.3-1.5-.9-2s-1.4-.7-2.4-.7c-.8 0-1.5.1-2.2.3s-1.5.6-2.3 1.2l-1-1.3c.7-.6 1.5-1 2.5-1.3.9-.3 1.9-.5 3-.5 1.7 0 3 .4 4 1.2.7.6 1.2 1.7 1.2 3z" fill="#c62828"/><path d="m91.9 148.7h-2.3l-4.7-7.7-4.8 7.7h-2.2l5.8-9.2-5.4-8.4h2.3l4.4 6.9 4.4-6.9h2.2l-5.4 8.3z" fill="#c62828"/><path d="m81.3 89.7v-.6c0-.9.1-1.7.4-2.3s.8-1.2 1.6-1.9c1.1-.9 1.8-1.6 2.1-2.1s.4-1 .4-1.7c0-.8-.3-1.4-.8-1.9s-1.3-.7-2.3-.7c-.6 0-1.2.1-1.8.2s-1.3.4-2.1.8l-.7-1.5c1.5-.8 3.1-1.2 4.7-1.2 1.5 0 2.7.4 3.6 1.1.8.8 1.3 1.8 1.3 3.2 0 .6-.1 1.1-.2 1.5s-.4.9-.7 1.3-1 1-2 1.9c-.8.7-1.3 1.3-1.6 1.7-.3.5-.4 1.1-.4 1.8v.4zm-.6 3.6c0-1.1.5-1.6 1.4-1.6.5 0 .8.1 1.1.4s.4.7.4 1.2-.1.9-.4 1.2-.6.4-1.1.4c-.4 0-.8-.1-1-.4-.3-.2-.4-.6-.4-1.2z" fill="#c62828"/><path d="m143.1 94.6h-11.5v-1.7l4.6-4.6c1.4-1.4 2.3-2.4 2.8-3 .4-.6.8-1.2 1-1.8s.3-1.2.3-1.9c0-.9-.3-1.7-.9-2.2s-1.4-.8-2.4-.8c-.7 0-1.4.1-2.1.4-.7.2-1.4.7-2.2 1.3l-1.1-1.4c1.6-1.3 3.4-2 5.3-2 1.6 0 2.9.4 3.9 1.3s1.4 2 1.4 3.4c0 1.1-.3 2.2-.9 3.3s-1.8 2.5-3.5 4.1l-3.8 3.8v.1h9v1.7z" fill="#c62828"/><path d="m33.7 94.6h-1.9v-12.5c0-1 0-2 .1-3-.2.2-.4.3-.6.5s-1.2 1-2.9 2.3l-1.1-1.4 4.6-3.6h1.7v17.7z" fill="#c62828"/><path d="m39.3 41.7h-2.3l-4.8-7.7-4.8 7.7h-2.2l5.8-9.2-5.4-8.4h2.3l4.4 6.9 4.4-6.9h2.2l-5.4 8.3z" fill="#c62828"/><path d="m86.4 41.7h-1.9v-12.5c0-1 0-2 .1-3-.2.2-.4.3-.6.5s-1.2 1-2.9 2.3l-1.1-1.4 4.6-3.6h1.7v17.7z" fill="#c62828"/></svg>