<svg enable-background="new 0 0 97.9 119.6" viewBox="0 0 97.9 119.6" xmlns="http://www.w3.org/2000/svg"><g fill="#c62828"><g enable-background="new"><path d="m7.2 51.7h-1.9v-12.3c0-1 0-2 .1-2.9-.2.2-.3.3-.6.5s-1.1 1-2.7 2.3l-1.1-1.3 4.5-3.5h1.6v17.2z"/><path d="m20.6 40c0-1.1.5-1.6 1.4-1.6 1 0 1.4.5 1.4 1.6 0 .5-.1.9-.4 1.2s-.6.4-1.1.4c-.4 0-.7-.1-1-.4-.1-.2-.3-.6-.3-1.2zm0 10.4c0-.5.1-.9.4-1.2.2-.3.6-.4 1-.4.5 0 .8.1 1.1.4s.4.7.4 1.2-.1.9-.4 1.2-.6.4-1.1.4c-.4 0-.7-.1-1-.4-.2-.2-.4-.6-.4-1.2z"/><path d="m43.3 38.5c0 1.1-.3 2-.9 2.7s-1.5 1.2-2.6 1.4v.1c1.4.2 2.4.6 3.1 1.3s1 1.6 1 2.8c0 1.6-.6 2.9-1.7 3.8s-2.8 1.3-4.8 1.3c-.9 0-1.7-.1-2.5-.2s-1.5-.4-2.2-.7v-1.9c.7.4 1.5.6 2.4.8.8.2 1.6.3 2.4.3 3 0 4.5-1.2 4.5-3.5 0-2.1-1.6-3.1-4.9-3.1h-1.7v-1.7h1.7c1.3 0 2.4-.3 3.2-.9s1.2-1.4 1.2-2.5c0-.8-.3-1.5-.9-2s-1.4-.7-2.3-.7c-.8 0-1.5.1-2.1.3-.7.2-1.4.6-2.3 1.1l-1-1.3c.7-.6 1.5-1 2.4-1.3s1.9-.5 2.9-.5c1.7 0 3 .4 3.9 1.1s1.2 2 1.2 3.3z"/><path d="m52.9 41.6v-1.6h10.9v1.6zm0 4.8v-1.6h10.9v1.6z"/><path d="m84 51.7h-11.3v-1.7l4.5-4.5c1.4-1.4 2.3-2.4 2.7-3s.8-1.2 1-1.7c.2-.6.3-1.2.3-1.8 0-.9-.3-1.6-.8-2.2-.6-.5-1.3-.8-2.3-.8-.7 0-1.4.1-2 .4-.6.2-1.4.7-2.1 1.3l-1-1.3c1.6-1.3 3.3-2 5.2-2 1.6 0 2.9.4 3.8 1.2s1.4 1.9 1.4 3.3c0 1.1-.3 2.2-.9 3.2-.6 1.1-1.8 2.4-3.4 4l-3.8 3.7v.1h8.7z"/><path d="m97.1 38.5c0 1.1-.3 2-.9 2.7s-1.5 1.2-2.6 1.4v.1c1.4.2 2.4.6 3.1 1.3s1 1.6 1 2.8c0 1.6-.6 2.9-1.7 3.8s-2.8 1.3-4.8 1.3c-.9 0-1.7-.1-2.5-.2s-1.5-.4-2.2-.7v-1.9c.7.4 1.5.6 2.4.8.8.2 1.6.3 2.4.3 3 0 4.5-1.2 4.5-3.5 0-2.1-1.6-3.1-4.9-3.1h-1.9v-1.7h1.7c1.3 0 2.4-.3 3.2-.9s1.2-1.4 1.2-2.5c0-.8-.3-1.5-.9-2s-1.4-.7-2.3-.7c-.8 0-1.5.1-2.1.3-.7.2-1.4.6-2.3 1.1l-1-1.3c.7-.6 1.5-1 2.4-1.3s1.9-.5 2.9-.5c1.7 0 3 .4 3.9 1.1s1.4 2 1.4 3.3z"/></g><g enable-background="new"><path d="m.2 10.1c0-3.4.7-5.9 2-7.6 1.3-1.7 3.2-2.5 5.8-2.5.9 0 1.6.1 2.1.2v1.7c-.6-.2-1.3-.3-2.1-.3-1.8 0-3.2.6-4.2 1.7s-1.5 3-1.6 5.4h.1c.9-1.3 2.2-2 4.1-2 1.5 0 2.8.5 3.7 1.4s1.3 2.2 1.3 3.8c0 1.8-.5 3.2-1.5 4.2s-2.3 1.5-4 1.5c-1.8 0-3.2-.7-4.2-2s-1.5-3.1-1.5-5.5zm5.8 5.9c1.1 0 2-.4 2.6-1.1s.9-1.7.9-3c0-1.1-.3-2-.9-2.7s-1.4-1-2.6-1c-.7 0-1.4.1-1.9.4-.6.4-1 .8-1.4 1.3s-.5 1-.5 1.6c0 .8.2 1.6.5 2.3.3.6.7 1.2 1.3 1.6s1.2.6 2 .6z"/><path d="m20.6 5.8c0-1.1.5-1.6 1.4-1.6 1 0 1.4.5 1.4 1.6 0 .5-.1.9-.4 1.2s-.6.4-1.1.4c-.4 0-.7-.1-1-.4-.1-.2-.3-.6-.3-1.2zm0 10.4c0-.5.1-.9.4-1.2.2-.3.6-.4 1-.4.5 0 .8.1 1.1.4s.4.7.4 1.2-.1.9-.4 1.2-.6.4-1.1.4c-.4 0-.7-.1-1-.4-.2-.2-.4-.6-.4-1.2z"/><path d="m44.8 13.5h-2.6v3.9h-1.9v-3.9h-8.3v-1.7l8.2-11.6h2.1v11.6h2.6v1.7zm-4.4-1.8v-5.7c0-1.1 0-2.4.1-3.8h-.1c-.4.8-.7 1.4-1.1 1.9l-5.3 7.6z"/><path d="m52.9 7.3v-1.6h10.9v1.6zm0 4.9v-1.6h10.9v1.6z"/><path d="m79.9 17.4h-1.9v-12.2c0-1 0-2 .1-2.9-.2.2-.3.3-.6.5s-1.1.9-2.8 2.3l-1-1.3 4.5-3.5h1.6v17.1z"/><path d="m88.7 17.4 7.1-15.4h-9.4v-1.8h11.4v1.6l-7 15.6z"/></g><g enable-background="new"><path d="m11.3 84h-11.3v-1.7l4.5-4.5c1.4-1.4 2.3-2.4 2.7-3s.8-1.2 1-1.7c.2-.6.3-1.2.3-1.8 0-.9-.3-1.6-.8-2.2-.6-.5-1.3-.8-2.3-.8-.7 0-1.4.1-2 .4-.6.2-1.4.7-2.1 1.3l-1-1.3c1.6-1.3 3.3-2 5.2-2 1.6 0 2.9.4 3.8 1.2s1.4 1.9 1.4 3.3c0 1.1-.3 2.2-.9 3.2-.6 1.1-1.8 2.4-3.4 4l-3.8 3.7v.1h8.8v1.8z"/><path d="m20.6 72.4c0-1.1.5-1.6 1.4-1.6 1 0 1.4.5 1.4 1.6 0 .5-.1.9-.4 1.2-.2.2-.5.4-1 .4-.4 0-.7-.1-1-.4-.2-.2-.4-.6-.4-1.2zm0 10.4c0-.5.1-.9.4-1.2.2-.3.6-.4 1-.4.5 0 .8.1 1.1.4s.4.7.4 1.2-.1.9-.4 1.2-.6.4-1.1.4c-.4 0-.7-.1-1-.4-.2-.3-.4-.7-.4-1.2z"/><path d="m44.8 80.1h-2.6v3.9h-1.9v-3.9h-8.3v-1.7l8.2-11.6h2.1v11.6h2.6v1.7zm-4.4-1.8v-5.7c0-1.1 0-2.4.1-3.8h-.1c-.4.8-.7 1.4-1.1 1.9l-5.3 7.6z"/><path d="m52.9 73.9v-1.6h10.9v1.6zm0 4.8v-1.6h10.9v1.6z"/><path d="m74.9 79.3v-.6c0-.9.1-1.7.4-2.3s.8-1.2 1.6-1.9c1.1-.9 1.7-1.6 2-2 .3-.5.4-1 .4-1.6 0-.8-.3-1.4-.8-1.9-.5-.4-1.3-.7-2.2-.7-.6 0-1.2.1-1.8.2s-1.3.4-2 .8l-.7-1.6c1.5-.8 3-1.2 4.6-1.2 1.5 0 2.7.4 3.5 1.1s1.2 1.8 1.2 3.1c0 .6-.1 1.1-.2 1.5-.2.4-.4.8-.7 1.2s-.9 1-1.9 1.9c-.8.7-1.3 1.2-1.6 1.7s-.4 1-.4 1.8v.4h-1.4zm-.5 3.5c0-1.1.5-1.6 1.4-1.6.5 0 .8.1 1.1.4.2.3.4.7.4 1.2s-.1.9-.4 1.2-.6.4-1 .4-.7-.1-1-.4c-.4-.3-.5-.7-.5-1.2z"/></g><g enable-background="new"><path d="m5.4 108.8c1.8 0 3.2.4 4.3 1.3 1 .9 1.6 2.1 1.6 3.7 0 1.8-.6 3.2-1.7 4.2s-2.7 1.5-4.7 1.5c-1.9 0-3.4-.3-4.4-.9v-1.9c.5.4 1.2.6 2 .8s1.6.3 2.4.3c1.4 0 2.5-.3 3.2-1 .8-.7 1.1-1.6 1.1-2.8 0-2.4-1.5-3.6-4.4-3.6-.7 0-1.7.1-3 .3l-1-.6.6-8h8.6v1.8h-6.9l-.4 5.2c.9-.2 1.8-.3 2.7-.3z"/><path d="m20.6 107.7c0-1.1.5-1.6 1.4-1.6 1 0 1.4.5 1.4 1.6 0 .5-.1.9-.4 1.2s-.6.4-1.1.4c-.4 0-.7-.1-1-.4s-.3-.7-.3-1.2zm0 10.3c0-.5.1-.9.4-1.2.2-.3.6-.4 1-.4.5 0 .8.1 1.1.4s.4.7.4 1.2-.1.9-.4 1.2-.6.4-1.1.4c-.4 0-.7-.1-1-.4s-.4-.6-.4-1.2z"/><path d="m44 119.3h-11.3v-1.7l4.5-4.5c1.4-1.4 2.3-2.4 2.7-3s.8-1.2 1-1.7c.2-.6.3-1.2.3-1.8 0-.9-.3-1.6-.8-2.2-.6-.5-1.3-.8-2.3-.8-.7 0-1.4.1-2 .4-.6.2-1.4.7-2.1 1.3l-1-1.3c1.6-1.3 3.3-2 5.2-2 1.6 0 2.9.4 3.8 1.2s1.4 1.9 1.4 3.3c0 1.1-.3 2.2-.9 3.2-.6 1.1-1.8 2.4-3.4 4l-3.8 3.7v.1h8.7z"/><path d="m52.9 109.2v-1.6h10.9v1.6zm0 4.8v-1.6h10.9v1.6z"/><path d="m84 119.3h-11.3v-1.7l4.5-4.5c1.4-1.4 2.3-2.4 2.7-3s.8-1.2 1-1.7c.2-.6.3-1.2.3-1.8 0-.9-.3-1.6-.8-2.2-.6-.5-1.3-.8-2.3-.8-.7 0-1.4.1-2 .4-.6.2-1.4.7-2.1 1.3l-1-1.3c1.6-1.3 3.3-2 5.2-2 1.6 0 2.9.4 3.8 1.2s1.4 1.9 1.4 3.3c0 1.1-.3 2.2-.9 3.2-.6 1.1-1.8 2.4-3.4 4l-3.8 3.7v.1h8.7z"/><path d="m97.9 110.7c0 3-.5 5.2-1.4 6.7s-2.4 2.2-4.3 2.2c-1.8 0-3.3-.8-4.2-2.3-1-1.5-1.4-3.7-1.4-6.6 0-3 .5-5.2 1.4-6.7s2.4-2.2 4.3-2.2 3.3.8 4.2 2.3 1.4 3.7 1.4 6.6zm-9.4 0c0 2.5.3 4.3.9 5.5.6 1.1 1.5 1.7 2.8 1.7s2.2-.6 2.8-1.7.9-3 .9-5.4-.3-4.3-.9-5.4-1.5-1.7-2.8-1.7-2.2.6-2.8 1.7c-.6 1-.9 2.8-.9 5.3z"/></g></g></svg>