<svg enable-background="new 0 0 125.1 82.6" viewBox="0 0 125.1 82.6" xmlns="http://www.w3.org/2000/svg"><g fill="#c62828"><g enable-background="new"><path d="m10.7 4.5c0 1.1-.3 2-.9 2.7s-1.5 1.1-2.6 1.4v.1c1.4.2 2.4.6 3.1 1.3s1 1.6 1 2.8c0 1.6-.6 2.9-1.7 3.8s-2.7 1.3-4.8 1.3c-.9 0-1.7-.1-2.5-.2s-1.6-.4-2.3-.8v-1.9c.7.4 1.5.6 2.4.8.8.2 1.6.3 2.4.3 3 0 4.4-1.2 4.4-3.5 0-2.1-1.6-3.1-4.9-3.1h-1.7v-1.6h1.7c1.3 0 2.4-.3 3.2-.9s1.2-1.4 1.2-2.5c0-.8-.3-1.5-.9-2-.5-.4-1.3-.6-2.3-.6-.8 0-1.5.1-2.1.3-.7.2-1.5.6-2.3 1.1l-1-1.3c.7-.6 1.5-1 2.4-1.3s1.9-.5 2.9-.5c1.7 0 3 .4 3.9 1.1.9.8 1.4 1.9 1.4 3.2z"/><path d="m14 10.3c0-3.4.7-5.9 2-7.6s3.3-2.5 5.8-2.5c.9 0 1.6.1 2.1.2v1.7c-.6-.2-1.3-.3-2.1-.3-1.8 0-3.2.6-4.2 1.7s-1.5 2.9-1.6 5.4h.1c.9-1.3 2.2-2 4.1-2 1.5 0 2.8.5 3.6 1.4.9.9 1.3 2.2 1.3 3.8 0 1.8-.5 3.2-1.5 4.2s-2.3 1.5-4 1.5c-1.8 0-3.2-.7-4.2-2s-1.4-3.1-1.4-5.5zm5.8 5.9c1.1 0 2-.4 2.6-1.1s.9-1.7.9-3c0-1.1-.3-2-.9-2.7-.6-.6-1.4-1-2.6-1-.7 0-1.4.1-1.9.4-.6.3-1.1.7-1.4 1.2s-.5 1-.5 1.6c0 .8.2 1.6.5 2.3s.8 1.2 1.3 1.7c.6.4 1.2.6 2 .6z"/><path d="m34.4 6c0-1.1.5-1.6 1.4-1.6 1 0 1.4.5 1.4 1.6 0 .5-.1.9-.4 1.2s-.6.4-1.1.4c-.4 0-.7-.1-1-.4s-.3-.6-.3-1.2zm0 10.4c0-.5.1-.9.4-1.2.2-.3.6-.4 1-.4.5 0 .8.1 1.1.4s.4.7.4 1.2-.1.9-.4 1.2-.6.4-1.1.4c-.4 0-.7-.1-1-.4s-.4-.7-.4-1.2z"/><path d="m53.7 17.6h-1.9v-12.2c0-1 0-2 .1-2.9-.2.2-.3.3-.6.5-.2.2-1.1.9-2.8 2.3l-1-1.3 4.5-3.6h1.6v17.2z"/><path d="m65.6 7.1c1.8 0 3.2.4 4.3 1.3 1 .9 1.6 2.1 1.6 3.7 0 1.8-.6 3.2-1.7 4.2s-2.8 1.5-4.8 1.5c-1.9 0-3.4-.3-4.4-.9v-1.9c.5.4 1.2.6 2 .8s1.6.3 2.4.3c1.4 0 2.4-.3 3.2-1 .8-.6 1.1-1.6 1.1-2.8 0-2.4-1.5-3.6-4.4-3.6-.7 0-1.7.1-3 .3l-1-.6.6-8h8.5v1.8h-6.9l-.4 5.2c1.1-.2 2-.3 2.9-.3z"/><path d="m80.4 7.5v-1.6h10.9v1.6zm0 4.8v-1.6h10.9v1.6z"/><path d="m111.5 7.8c0 6.7-2.6 10.1-7.8 10.1-.9 0-1.6-.1-2.2-.2v-1.7c.6.2 1.3.3 2.1.3 1.9 0 3.3-.6 4.3-1.7 1-1.2 1.5-2.9 1.6-5.3h-.1c-.4.6-1 1.1-1.7 1.5-.7.3-1.5.5-2.4.5-1.5 0-2.7-.5-3.6-1.4s-1.3-2.2-1.3-3.8c0-1.8.5-3.2 1.5-4.2s2.3-1.5 3.9-1.5c1.2 0 2.2.3 3.1.9s1.5 1.5 2 2.6.6 2.3.6 3.9zm-5.8-5.9c-1.1 0-2 .4-2.6 1.1s-.9 1.7-.9 3c0 1.1.3 2 .8 2.7.6.6 1.4 1 2.6 1 .7 0 1.4-.1 2-.4s1.1-.7 1.4-1.2.5-1 .5-1.6c0-.8-.2-1.6-.5-2.3s-.8-1.2-1.3-1.6c-.6-.5-1.3-.7-2-.7z"/></g><g enable-background="new"><path d="m14 42.6c0-3.4.7-5.9 2-7.6s3.3-2.5 5.8-2.5c.9 0 1.6.1 2.1.2v1.7c-.6-.2-1.3-.3-2.1-.3-1.8 0-3.2.6-4.2 1.7s-1.5 2.9-1.6 5.4h.1c.9-1.3 2.2-2 4.1-2 1.5 0 2.8.5 3.6 1.4.9.9 1.3 2.2 1.3 3.8 0 1.8-.5 3.2-1.5 4.2s-2.3 1.5-4 1.5c-1.8 0-3.2-.7-4.2-2s-1.4-3.1-1.4-5.5zm5.8 5.9c1.1 0 2-.4 2.6-1.1s.9-1.7.9-3c0-1.1-.3-2-.9-2.7-.6-.6-1.4-1-2.6-1-.7 0-1.4.1-1.9.4-.6.3-1.1.7-1.4 1.2s-.5 1.1-.5 1.7c0 .8.2 1.6.5 2.3s.8 1.2 1.3 1.7c.6.3 1.2.5 2 .5z"/><path d="m39.7 46h-2.5v3.9h-1.9v-3.9h-8.3v-1.7l8-11.6h2.1v11.5h2.5v1.8zm-4.5-1.8v-5.7c0-1.1 0-2.4.1-3.8h-.1c-.4.8-.7 1.4-1.1 1.9l-5.4 7.6z"/><path d="m48.2 38.3c0-1.1.5-1.6 1.4-1.6 1 0 1.4.5 1.4 1.6 0 .5-.1.9-.4 1.2s-.6.4-1.1.4c-.4 0-.7-.1-1-.4s-.3-.6-.3-1.2zm0 10.4c0-.5.1-.9.4-1.2.2-.3.6-.4 1-.4.5 0 .8.1 1.1.4s.4.7.4 1.2-.1.9-.4 1.2-.6.4-1.1.4c-.4 0-.7-.1-1-.4s-.4-.6-.4-1.2z"/><path d="m71.5 40.1c0 6.7-2.6 10.1-7.8 10.1-.9 0-1.6-.1-2.2-.2v-1.7c.6.2 1.3.3 2.1.3 1.9 0 3.3-.6 4.3-1.7 1-1.2 1.5-2.9 1.6-5.3h-.1c-.4.6-1 1.1-1.7 1.5-.7.3-1.5.5-2.4.5-1.5 0-2.7-.5-3.6-1.4s-1.3-2.2-1.3-3.8c0-1.8.5-3.2 1.5-4.2s2.3-1.5 3.9-1.5c1.2 0 2.2.3 3.1.9s1.5 1.5 2 2.6.6 2.3.6 3.9zm-5.8-5.9c-1.1 0-2 .4-2.6 1.1s-.9 1.7-.9 3c0 1.1.3 2 .8 2.7.6.6 1.4 1 2.6 1 .7 0 1.4-.1 2-.4s1.1-.7 1.4-1.2.5-1 .5-1.6c0-.8-.2-1.6-.5-2.3s-.8-1.2-1.3-1.6c-.6-.5-1.2-.7-2-.7z"/><path d="m80.4 39.9v-1.6h10.9v1.6zm0 4.8v-1.6h10.9v1.6z"/><path d="m102.4 45.2v-.6c0-.9.1-1.7.4-2.3s.8-1.2 1.6-1.9c1.1-.9 1.7-1.6 2-2 .3-.5.4-1 .4-1.6 0-.8-.3-1.4-.8-1.8s-1.3-.7-2.2-.7c-.6 0-1.2.1-1.8.2s-1.3.4-2 .8l-.7-1.6c1.5-.8 3-1.2 4.6-1.2 1.5 0 2.7.4 3.5 1.1s1.2 1.8 1.2 3.1c0 .6-.1 1.1-.2 1.5-.2.4-.4.8-.7 1.2s-.9 1-1.9 1.9c-.8.7-1.3 1.2-1.6 1.7-.3.4-.4 1-.4 1.8v.4zm-.6 3.5c0-1.1.5-1.6 1.4-1.6.5 0 .8.1 1.1.4.2.3.4.7.4 1.2s-.1.9-.4 1.2-.6.4-1 .4-.7-.1-1-.4c-.3-.2-.5-.6-.5-1.2z"/></g><g enable-background="new"><path d="m5.8 64.8c1.6 0 2.8.4 3.7 1.1s1.4 1.7 1.4 3c0 .8-.3 1.6-.8 2.3s-1.4 1.3-2.5 1.9c1.4.7 2.4 1.4 3 2.1s.9 1.6.9 2.5c0 1.4-.5 2.6-1.5 3.4s-2.4 1.3-4.1 1.3c-1.8 0-3.2-.4-4.2-1.2s-1.5-1.9-1.5-3.4c0-2 1.2-3.5 3.6-4.6-1.1-.6-1.9-1.3-2.3-2s-.7-1.5-.7-2.4c0-1.2.5-2.2 1.4-3 .8-.6 2-1 3.6-1zm-3.8 13.1c0 .9.3 1.7 1 2.2s1.6.8 2.8.8 2.1-.3 2.7-.8 1-1.3 1-2.3c0-.8-.3-1.4-.9-2s-1.7-1.2-3.2-1.7c-1.2.5-2 1.1-2.5 1.7-.6.5-.9 1.3-.9 2.1zm3.7-11.5c-1 0-1.7.2-2.3.7s-.8 1.1-.8 1.9c0 .7.2 1.3.7 1.9s1.3 1 2.6 1.5c1.1-.5 1.9-1 2.4-1.5s.7-1.2.7-1.9c0-.8-.3-1.4-.9-1.9-.6-.4-1.4-.7-2.4-.7z"/><path d="m21 82.2h-1.9v-12.2c0-1 0-2 .1-2.9-.2.2-.3.3-.6.5-.2.2-1.1.9-2.8 2.3l-1-1.3 4.5-3.5h1.7z"/><path d="m34.4 70.6c0-1.1.5-1.6 1.4-1.6 1 0 1.4.5 1.4 1.6 0 .5-.1.9-.4 1.2s-.6.4-1.1.4c-.4 0-.7-.1-1-.4-.1-.2-.3-.6-.3-1.2zm0 10.4c0-.5.1-.9.4-1.2.2-.3.6-.4 1-.4.5 0 .8.1 1.1.4s.4.7.4 1.2-.1.9-.4 1.2-.6.4-1.1.4c-.4 0-.7-.1-1-.4-.2-.2-.4-.6-.4-1.2z"/><path d="m51.8 71.8c1.8 0 3.2.4 4.3 1.3 1 .9 1.6 2.1 1.6 3.7 0 1.8-.6 3.2-1.7 4.2s-2.7 1.5-4.7 1.5c-1.9 0-3.4-.3-4.4-.9v-1.9c.5.4 1.2.6 2 .8s1.6.3 2.4.3c1.4 0 2.4-.3 3.2-1s1.1-1.6 1.1-2.8c0-2.4-1.5-3.6-4.4-3.6-.7 0-1.7.1-3 .3l-1-.6.6-8h8.5v1.8h-6.9l-.3 5.1c.9-.1 1.8-.2 2.7-.2z"/><path d="m72.3 78.3h-2.5v3.9h-1.9v-3.9h-8.3v-1.7l8.1-11.6h2.1v11.5h2.5zm-4.4-1.8v-5.7c0-1.1 0-2.4.1-3.8h-.1c-.4.8-.7 1.4-1.1 1.9l-5.4 7.6z"/><path d="m80.4 72.2v-1.6h10.9v1.6zm0 4.8v-1.6h10.9v1.6z"/><path d="m112.3 78.3h-2.5v3.9h-1.9v-3.9h-8.3v-1.7l8.1-11.6h2.1v11.5h2.5zm-4.4-1.8v-5.7c0-1.1 0-2.4.1-3.8h-.1c-.4.8-.7 1.4-1.1 1.9l-5.4 7.6z"/><path d="m119.3 71.8c1.8 0 3.2.4 4.3 1.3 1 .9 1.6 2.1 1.6 3.7 0 1.8-.6 3.2-1.7 4.2s-2.7 1.5-4.7 1.5c-1.9 0-3.4-.3-4.4-.9v-1.9c.5.4 1.2.6 2 .8s1.6.3 2.4.3c1.4 0 2.4-.3 3.2-1s1.1-1.6 1.1-2.8c0-2.4-1.5-3.6-4.4-3.6-.7 0-1.7.1-3 .3l-1-.6.6-8h8.5v1.8h-6.9l-.4 5.2c1-.2 1.9-.3 2.8-.3z"/></g></g></svg>